<svg width="16" height="14" viewBox="0 0 16 14" fill="none" xmlns="http://www.w3.org/2000/svg">
<path d="M16 3.5V12.5C16 13.3281 15.3281 14 14.5 14H1.5C0.671875 14 0 13.3281 0 12.5V3.5C0 2.67188 0.671875 2 1.5 2H4.25L4.63438 0.971875C4.85313 0.3875 5.4125 0 6.0375 0H9.95938C10.5844 0 11.1438 0.3875 11.3625 0.971875L11.75 2H14.5C15.3281 2 16 2.67188 16 3.5ZM11.75 8C11.75 5.93125 10.0688 4.25 8 4.25C5.93125 4.25 4.25 5.93125 4.25 8C4.25 10.0688 5.93125 11.75 8 11.75C10.0688 11.75 11.75 10.0688 11.75 8ZM10.75 8C10.75 9.51562 9.51562 10.75 8 10.75C6.48438 10.75 5.25 9.51562 5.25 8C5.25 6.48438 6.48438 5.25 8 5.25C9.51562 5.25 10.75 6.48438 10.75 8Z" fill="#D1B176"/>
</svg>
