<svg width="28" height="20" viewBox="0 0 21 16" fill="none" xmlns="http://www.w3.org/2000/svg">
<path d="M17.2888 10.4169C17.1941 9.93923 16.9223 9.59182 16.5113 9.34755C14.1098 7.91585 11.7084 6.48415 9.30694 5.0538C9.27178 5.03209 9.25826 5.01174 9.25826 4.96967C9.26097 4.74847 9.25961 4.52591 9.25961 4.30471C9.25961 4.03058 9.17308 3.78767 9.0027 3.57325C8.83233 3.35883 8.61869 3.1987 8.37124 3.08742C7.7506 2.80922 7.69651 2.02756 7.97506 1.62315C8.19681 1.30289 8.61328 1.14275 9.00406 1.2296C9.40159 1.31781 9.6585 1.55259 9.74504 1.95835C9.76668 2.06013 9.76938 2.16462 9.79372 2.26504C9.83969 2.46182 9.9357 2.62602 10.1385 2.70066C10.363 2.78344 10.6321 2.69387 10.793 2.48624C10.9498 2.2854 10.9674 2.05334 10.9241 1.81586C10.8024 1.16582 10.4671 0.655568 9.9046 0.306803C9.49219 0.0543896 9.03786 -0.025677 8.56325 0.00689244C8.20898 0.0313196 7.87365 0.129028 7.58969 0.346158C6.92578 0.855056 6.5945 1.53223 6.63101 2.37225C6.64994 2.79973 6.80273 3.18649 7.07452 3.51897C7.2476 3.73203 7.47205 3.88266 7.69651 4.03465C7.80874 4.11065 7.92097 4.18664 8.01157 4.28842C8.08729 4.3712 8.12921 4.46755 8.12785 4.5829C8.12515 4.70911 8.12515 4.83667 8.12785 4.96288C8.12921 5.00631 8.11704 5.03073 8.07782 5.0538C7.01773 5.67941 5.95898 6.30773 4.89889 6.93605C3.5332 7.74621 2.16617 8.55638 0.799129 9.36383C0.398888 9.59996 0.160907 9.94872 0.0513822 10.3952C0.0324519 10.4726 0.0338041 10.554 0 10.6273C0 10.7725 0 10.9163 0 11.0615C0.0148738 11.1253 0.00946514 11.1904 0.0256911 11.2542C0.177133 11.8133 0.527344 12.1906 1.0628 12.4009C1.21695 12.462 1.37785 12.4891 1.54147 12.5C1.56445 12.5 1.58609 12.5 1.60907 12.5C1.63747 12.4864 1.66722 12.4932 1.69561 12.4932C6.30784 12.4932 10.9201 12.4932 15.5323 12.4932C15.5607 12.4959 15.5904 12.4864 15.6175 12.5C15.6405 12.5 15.6621 12.5 15.6851 12.5C15.7581 12.4864 15.8325 12.4932 15.9055 12.4824C16.1259 12.4498 16.3341 12.3779 16.5275 12.2652C16.8142 12.0983 17.0278 11.8622 17.1684 11.5609C17.2455 11.394 17.2915 11.2176 17.3077 11.0344C17.3077 10.8539 17.3077 10.672 17.3077 10.4915C17.282 10.4712 17.2942 10.4413 17.2888 10.4169ZM16.0218 10.8552C15.992 11.0493 15.8419 11.2108 15.6418 11.2583C15.585 11.2719 15.5255 11.2746 15.4674 11.2746C13.1849 11.2746 10.9025 11.2746 8.62004 11.2746C6.33353 11.2746 4.04567 11.2746 1.75916 11.2746C1.44817 11.2746 1.22506 11.0398 1.24264 10.7277C1.25075 10.5879 1.31836 10.4753 1.43465 10.402C1.64423 10.2703 1.85787 10.1469 2.07151 10.0206C4.23362 8.74501 6.39709 7.46937 8.55919 6.19238C8.6268 6.15302 8.67278 6.15302 8.73903 6.19238C10.6199 7.30517 12.5007 8.4166 14.383 9.52668C14.844 9.79809 15.3051 10.0695 15.7649 10.3423C15.9528 10.4549 16.0529 10.6558 16.0218 10.8552Z" fill="#B2895D"/>
<path d="M19.5 10.8571H17.75V9.42857C17.75 8.84624 17.2271 8.5 16.75 8.5H16.25C15.7729 8.5 15.25 8.84624 15.25 9.42857V10.8571H13.5C13.0229 10.8571 12.5 11.2034 12.5 11.7857V12.2143C12.5 12.7966 13.0229 13.1429 13.5 13.1429H15.25V14.5714C15.25 15.1538 15.7729 15.5 16.25 15.5H16.75C17.2271 15.5 17.75 15.1538 17.75 14.5714V13.1429H19.5C19.9771 13.1429 20.5 12.7966 20.5 12.2143V11.7857C20.5 11.2034 19.9771 10.8571 19.5 10.8571Z" fill="#7EBC63" stroke="#F2F2F2"/>
</svg>