<svg width="15" height="17" viewBox="0 0 15 17" fill="none" xmlns="http://www.w3.org/2000/svg">
<path d="M7.46877 13.5C8.33107 13.5 9.03053 12.8005 9.03053 11.9375H5.907C5.907 12.8005 6.60646 13.5 7.46877 13.5ZM12.7273 9.84497C12.2556 9.33813 11.3731 8.57568 11.3731 6.07812C11.3731 4.18115 10.043 2.6626 8.24953 2.29004V1.78125C8.24953 1.34985 7.89992 1 7.46877 1C7.03761 1 6.688 1.34985 6.688 1.78125V2.29004C4.89455 2.6626 3.56447 4.18115 3.56447 6.07812C3.56447 8.57568 2.6819 9.33813 2.21022 9.84497C2.06374 10.0024 1.9988 10.1907 2.00002 10.375C2.0027 10.7754 2.31691 11.1562 2.78371 11.1562H12.1538C12.6206 11.1562 12.9351 10.7754 12.9375 10.375C12.9387 10.1907 12.8738 10.0022 12.7273 9.84497Z" fill="#B2895D"/>
</svg>
