<svg width="" height="25" viewBox="0 0 21 17" fill="none" xmlns="http://www.w3.org/2000/svg">
<path d="M17.4116 3.35596L12.6582 1C12.1675 1.67871 11.0811 2.15234 9.81397 2.15234C8.54688 2.15234 7.46045 1.67871 6.96973 1L2.21631 3.35596C2.02344 3.45361 1.94532 3.68799 2.04053 3.88086L3.43702 6.67627C3.53467 6.86914 3.76905 6.94727 3.96192 6.85205L5.34376 6.17578C5.60254 6.04883 5.90528 6.23682 5.90528 6.52734V12.7188C5.90528 13.1509 6.2544 13.5 6.68653 13.5H12.9365C13.3687 13.5 13.7178 13.1509 13.7178 12.7188V6.5249C13.7178 6.23682 14.0205 6.04639 14.2793 6.17334L15.6611 6.84961C15.854 6.94727 16.0884 6.86914 16.186 6.67383L17.585 3.88086C17.6826 3.68799 17.6045 3.45117 17.4116 3.35596Z" fill="#B2895D"/>
<path d="M17.5 8.35714H15.75V6.92857C15.75 6.34624 15.2271 6 14.75 6H14.25C13.7729 6 13.25 6.34624 13.25 6.92857V8.35714H11.5C11.0229 8.35714 10.5 8.70339 10.5 9.28571V9.71429C10.5 10.2966 11.0229 10.6429 11.5 10.6429H13.25V12.0714C13.25 12.6538 13.7729 13 14.25 13H14.75C15.2271 13 15.75 12.6538 15.75 12.0714V10.6429H17.5C17.9771 10.6429 18.5 10.2966 18.5 9.71429V9.28571C18.5 8.70339 17.9771 8.35714 17.5 8.35714Z" fill="#B2895D" stroke="#F2F2F2"/>
</svg>
