<svg width="10" height="14" viewBox="0 0 10 14" fill="none" xmlns="http://www.w3.org/2000/svg">
<path d="M5.83333 3.71875V0H0.625C0.278646 0 0 0.292578 0 0.65625V13.3438C0 13.7074 0.278646 14 0.625 14H9.375C9.72135 14 10 13.7074 10 13.3438V4.375H6.45833C6.11458 4.375 5.83333 4.07969 5.83333 3.71875ZM7.5 10.1719C7.5 10.3523 7.35937 10.5 7.1875 10.5H2.8125C2.64062 10.5 2.5 10.3523 2.5 10.1719V9.95312C2.5 9.77266 2.64062 9.625 2.8125 9.625H7.1875C7.35937 9.625 7.5 9.77266 7.5 9.95312V10.1719ZM7.5 8.42188C7.5 8.60234 7.35937 8.75 7.1875 8.75H2.8125C2.64062 8.75 2.5 8.60234 2.5 8.42188V8.20312C2.5 8.02266 2.64062 7.875 2.8125 7.875H7.1875C7.35937 7.875 7.5 8.02266 7.5 8.20312V8.42188ZM7.5 6.45312V6.67188C7.5 6.85234 7.35937 7 7.1875 7H2.8125C2.64062 7 2.5 6.85234 2.5 6.67188V6.45312C2.5 6.27266 2.64062 6.125 2.8125 6.125H7.1875C7.35937 6.125 7.5 6.27266 7.5 6.45312ZM10 3.3332V3.5H6.66667V0H6.82552C6.99219 0 7.15104 0.0683594 7.26823 0.191406L9.81771 2.87109C9.9349 2.99414 10 3.16094 10 3.3332Z" fill="#B2895D"/>
</svg>
