<svg width="19" height="16" viewBox="0 0 19 16" fill="none" xmlns="http://www.w3.org/2000/svg">
<path d="M7.05844 1H11.9416C12.353 1 12.7127 1.27759 12.817 1.67562C13.0419 2.53441 13.8179 3.13333 14.7057 3.13333H17C17.5523 3.13333 18 3.58105 18 4.13333V14C18 14.5523 17.5523 15 17 15H2C1.44772 15 1 14.5523 1 14V4.13333C1 3.58105 1.44771 3.13333 2 3.13333H4.29431C5.18208 3.13333 5.95809 2.53441 6.18305 1.67562C6.28731 1.27759 6.64698 1 7.05844 1Z" stroke="#B2895D" stroke-width="2"/>
<circle cx="9.5" cy="8.5" r="3.5" stroke="#B2895D" stroke-width="2"/>
</svg>
