<svg width="18" height="16" viewBox="0 0 18 16" fill="none" xmlns="http://www.w3.org/2000/svg">
<path d="M2.25 2.3625C4.6125 2.5875 6.6375 3.15 7.875 3.825L9 4.3875V1.8C6.6375 0.45 3.0375 0.1125 1.125 0C0.45 0 0 0.45 0 1.125V13.05C0 13.6125 0.45 14.0625 1.0125 14.175C2.7 14.2875 6.1875 14.625 8.6625 15.75H9V13.3875C6.75 12.4875 4.1625 12.0375 2.25 11.925V2.3625Z" fill="#1A1A1A"/>
<path d="M15.75 2.3625C13.3875 2.5875 11.3625 3.15 10.125 3.825L9 4.3875V1.8C11.3625 0.45 14.9625 0.1125 16.875 0C17.55 0 18 0.45 18 1.125V13.05C18 13.6125 17.55 14.0625 16.9875 14.175C15.3 14.2875 11.8125 14.625 9.3375 15.75H9V13.3875C11.25 12.4875 13.8375 12.0375 15.75 11.925V2.3625Z" fill="#1A1A1A"/>
<path d="M9 1.7998V14.6248" stroke="#1A1A1A" stroke-width="2" stroke-miterlimit="10"/>
</svg>
