<svg width="29" height="24" viewBox="0 0 29 24" fill="none" xmlns="http://www.w3.org/2000/svg">
<path d="M10.5 1C5.25273 1 1 4.53281 1 8.89286C1 10.775 1.79414 12.4978 3.11523 13.8525C2.65137 15.765 1.1002 17.4688 1.08164 17.4877C1 17.575 0.977734 17.704 1.02598 17.8179C1.07422 17.9317 1.17812 18 1.29688 18C3.75723 18 5.60156 16.7933 6.51445 16.0496C7.72793 16.5163 9.075 16.7857 10.5 16.7857C15.7473 16.7857 20 13.2529 20 8.89286C20 4.53281 15.7473 1 10.5 1Z" stroke="#FAFAFA" stroke-width="2"/>
<path d="M18.5 6C23.7473 6 28 9.53281 28 13.8929C28 15.775 27.2059 17.4978 25.8848 18.8525C26.3486 20.765 27.8998 22.4688 27.9184 22.4877C28 22.575 28.0223 22.704 27.974 22.8179C27.9258 22.9317 27.8219 23 27.7031 23C25.2428 23 23.3984 21.7933 22.4855 21.0496C21.2721 21.5163 19.925 21.7857 18.5 21.7857C14.2541 21.7857 10.6594 19.4726 9.44199 16.2798" stroke="#FAFAFA" stroke-width="2"/>
</svg>
