<svg width="30" height="32" viewBox="0 0 30 32" fill="none" xmlns="http://www.w3.org/2000/svg">
<mask id="mask0" mask-type="alpha" maskUnits="userSpaceOnUse" x="0" y="0" width="35" height="30">
<path d="M26.9281 17.887L29.6206 19.4412C29.9281 19.6187 30.0709 19.9857 29.9656 20.3248C29.2661 22.5767 28.072 24.6112 26.5102 26.3009C26.3933 26.4275 26.2369 26.5105 26.0666 26.5364C25.8963 26.5622 25.7222 26.5294 25.5731 26.4433L22.8825 24.8894C21.7505 25.8593 20.449 26.6118 19.0436 27.109V30.2164C19.0436 30.3888 18.9849 30.556 18.8773 30.6905C18.7696 30.8251 18.6193 30.919 18.4511 30.9568C16.2425 31.4528 13.8705 31.4784 11.5504 30.9572C11.2036 30.8793 10.9563 30.5721 10.9563 30.2165V27.109C9.55092 26.6118 8.24945 25.8594 7.11744 24.8894L4.42688 26.4433C4.27769 26.5294 4.10366 26.5622 3.93337 26.5364C3.76307 26.5105 3.60664 26.4275 3.48976 26.3009C1.92802 24.6112 0.733812 22.5767 0.0343839 20.3248C-0.070941 19.9857 0.0717878 19.6187 0.379296 19.4412L3.07194 17.887C2.80149 16.4209 2.80149 14.9177 3.07194 13.4516L0.379359 11.8974C0.0718511 11.7199 -0.0708779 11.3529 0.034447 11.0138C0.733875 8.76185 1.92802 6.72738 3.48982 5.03763C3.6067 4.9111 3.76314 4.82808 3.93343 4.80221C4.10372 4.77633 4.27775 4.80912 4.42694 4.89521L7.1175 6.44918C8.24953 5.47924 9.551 4.72675 10.9564 4.22959V1.12209C10.9564 0.949748 11.0151 0.782536 11.1227 0.647972C11.2304 0.513407 11.3807 0.419507 11.5489 0.381723C13.7575 -0.114258 16.1295 -0.13991 18.4496 0.381281C18.7964 0.459185 19.0437 0.76644 19.0437 1.12197V4.22953C20.4491 4.72665 21.7505 5.47915 22.8826 6.44912L25.5731 4.89515C25.7223 4.80906 25.8963 4.77626 26.0666 4.80214C26.2369 4.82802 26.3934 4.91104 26.5102 5.03756C28.072 6.72731 29.2662 8.76178 29.9656 11.0137C30.0709 11.3528 29.9282 11.7198 29.6207 11.8973L26.9281 13.4516C27.1985 14.9176 27.1985 16.4209 26.9281 17.887ZM20.0546 15.6693C20.0546 12.8822 17.7871 10.6147 15 10.6147C12.2129 10.6147 9.94541 12.8822 9.94541 15.6693C9.94541 18.4563 12.2129 20.7238 15 20.7238C17.7871 20.7238 20.0546 18.4563 20.0546 15.6693Z" fill="white"/>
</mask>
<g mask="url(#mask0)">
<path d="M26.9282 17.887L24.9613 17.5241L24.7051 18.913L25.9283 19.6191L26.9282 17.887ZM22.8826 24.8894L23.8829 23.1575L22.6566 22.4493L21.5813 23.3706L22.8826 24.8894ZM19.0437 27.109L18.3767 25.2235L17.0437 25.695V27.109H19.0437ZM10.9564 27.109H12.9564V25.695L11.6234 25.2235L10.9564 27.109ZM7.11758 24.8894L8.41891 23.3707L7.34357 22.4492L6.1173 23.1575L7.11758 24.8894ZM3.07208 17.887L4.0719 19.6191L5.29511 18.9131L5.03889 17.5241L3.07208 17.887ZM3.07208 13.4516L5.03889 13.8144L5.29511 12.4255L4.07191 11.7195L3.07208 13.4516ZM7.11764 6.44918L6.11736 8.18107L7.34361 8.88931L8.41894 7.96794L7.11764 6.44918ZM11.1107 4.22959L11.6235 6.11509L12.9565 5.64354L13.1107 4.22959H11.1107ZM19.0438 4.22953H17.0438V5.64351L18.3768 6.11504L19.0438 4.22953ZM22.8827 6.44912L21.5813 7.96785L22.6567 8.88926L23.8829 8.18101L22.8827 6.44912ZM26.9282 13.4516L25.9283 11.7194L24.7051 12.4254L24.9613 13.8144L26.9282 13.4516ZM25.9283 19.6191L27.7302 20.6592L28.6209 21.1733L30.6206 17.709L27.928 16.1548L25.9283 19.6191ZM28.6209 21.1733C28.115 20.8813 27.8851 20.2808 28.0557 19.7315L31.8756 20.918C32.2569 19.6906 31.7415 18.3559 30.6206 17.709L28.6209 21.1733ZM28.0557 19.7315C27.9582 20.0457 27.8495 20.355 27.7302 20.6592C27.2263 21.9439 26.5328 23.1349 25.6833 24.1973C25.4783 24.4537 25.2643 24.7025 25.0416 24.9434L27.979 27.6585C29.7387 25.7546 31.086 23.4603 31.8756 20.918L28.0557 19.7315ZM25.0416 24.9434C25.2326 24.7366 25.4879 24.6014 25.7662 24.5591L26.3672 28.5137C26.9861 28.4196 27.5542 28.1184 27.979 27.6585L25.0416 24.9434ZM25.7662 24.5591C26.0445 24.5168 26.3289 24.5704 26.5728 24.7111L24.5729 28.1752C25.1151 28.4881 25.7482 28.6077 26.3672 28.5137L25.7662 24.5591ZM26.5728 24.7111L25.6833 24.1973L23.8829 23.1575L21.8823 26.6213L24.5729 28.1752L26.5728 24.7111ZM21.5813 23.3706C20.6363 24.1803 19.5499 24.8085 18.3767 25.2235L19.7107 28.9945C21.3483 28.4152 22.8648 27.5384 24.1839 26.4081L21.5813 23.3706ZM17.0437 27.109V29.1864V30.2164H21.0437V27.109H17.0437ZM17.0437 30.2164C17.0437 29.9345 17.1397 29.661 17.3158 29.4409L20.4389 31.9401C20.8304 31.4509 21.0437 30.843 21.0437 30.2164H17.0437ZM17.3158 29.4409C17.4919 29.2208 17.7377 29.0672 18.0128 29.0054L18.8895 32.9082C19.5009 32.7709 20.0474 32.4294 20.4389 31.9401L17.3158 29.4409ZM18.0128 29.0054C17.6935 29.0771 17.3702 29.1376 17.0437 29.1864C15.7129 29.3857 14.3306 29.3926 12.9564 29.1867C12.6332 29.1383 12.3105 29.0781 11.9889 29.0059L11.1122 32.9086C13.7284 33.4963 16.3999 33.4673 18.8895 32.9082L18.0128 29.0054ZM11.9889 29.0059C12.5499 29.1319 12.9564 29.6311 12.9564 30.2165H8.95647C8.95647 31.513 9.8575 32.6268 11.1122 32.9086L11.9889 29.0059ZM12.9564 30.2165V29.1867V27.109H8.95647V30.2165H12.9564ZM11.6234 25.2235C10.4502 24.8085 9.36386 24.1803 8.41891 23.3707L5.81625 26.4081C7.13533 27.5384 8.65187 28.4152 10.2895 28.9945L11.6234 25.2235ZM6.1173 23.1575L4.31702 24.1973L3.42674 24.7115L5.42663 28.1756L8.11786 26.6213L6.1173 23.1575ZM3.42674 24.7115C3.67056 24.5708 3.95566 24.5168 4.23399 24.5591L3.63302 28.5137C4.25194 28.6077 4.88443 28.4885 5.42663 28.1756L3.42674 24.7115ZM4.23399 24.5591C4.51232 24.6014 4.76798 24.737 4.959 24.9438L2.0208 27.658C2.44558 28.1179 3.0141 28.4196 3.63302 28.5137L4.23399 24.5591ZM4.959 24.9438C4.73625 24.7028 4.5221 24.4538 4.31702 24.1973C3.46756 23.1348 2.77391 21.9438 2.27001 20.6592C2.15073 20.3551 2.04209 20.0457 1.94452 19.7316L-1.87547 20.918C-1.08584 23.4604 0.261211 25.7542 2.0208 27.658L4.959 24.9438ZM1.94452 19.7316C2.11524 20.2812 1.8849 20.8814 1.37945 21.1732L-0.620382 17.709C-1.74085 18.3559 -2.25685 19.6904 -1.87547 20.918L1.94452 19.7316ZM1.37945 21.1732L2.27001 20.6592L4.0719 19.6191L2.07226 16.1548L-0.620382 17.709L1.37945 21.1732ZM5.03889 17.5241C4.81269 16.2979 4.81269 15.0407 5.03889 13.8144L1.10526 13.0888C0.790564 14.7947 0.790564 16.5438 1.10526 18.2498L5.03889 17.5241ZM4.07191 11.7195L2.27008 10.6794L1.37934 10.1652L-0.620337 13.6295L2.07224 15.1838L4.07191 11.7195ZM1.37934 10.1652C1.88524 10.4572 2.11517 11.0578 1.94458 11.607L-1.8754 10.4205C-2.25665 11.648 -1.74125 12.9826 -0.620337 13.6295L1.37934 10.1652ZM1.94458 11.607C2.04215 11.2928 2.1508 10.9835 2.27008 10.6794C2.77396 9.39466 3.4675 8.20371 4.31701 7.14126C4.52198 6.88491 4.73603 6.63604 4.95869 6.39514L2.02124 3.68011C0.261545 5.58396 -1.08578 7.87813 -1.8754 10.4205L1.94458 11.607ZM4.95869 6.39514C4.76767 6.60193 4.51237 6.73721 4.23406 6.7795L3.63308 2.82491C3.01418 2.91896 2.44602 3.22027 2.02124 3.68011L4.95869 6.39514ZM4.23406 6.7795C3.95574 6.8218 3.67131 6.7682 3.42748 6.62749L5.42736 3.16332C4.88515 2.85043 4.25198 2.73085 3.63308 2.82491L4.23406 6.7795ZM3.42748 6.62749L4.31701 7.14126L6.11736 8.18107L8.11792 4.71729L5.42736 3.16332L3.42748 6.62749ZM8.41894 7.96794C9.36393 7.15826 10.4503 6.5301 11.6235 6.11509L10.2895 2.34409C8.65193 2.92339 7.13542 3.80021 5.81634 4.93043L8.41894 7.96794ZM13.1107 4.22959L12.9565 2.15204V1.12209H8.95654V4.22959H13.1107ZM12.9565 1.12209C12.9565 1.40398 12.8605 1.67746 12.6844 1.89757L9.56131 -0.601628C9.16981 -0.112386 8.95653 0.495516 8.95654 1.12209H12.9565ZM12.6844 1.89757C12.5083 2.11768 12.2625 2.27127 11.9874 2.33307L11.1107 -1.56968C10.4993 -1.43231 9.95281 -1.09086 9.56131 -0.601628L12.6844 1.89757ZM11.9874 2.33307C12.3068 2.26135 12.6301 2.20091 12.9565 2.15204C14.2874 1.95278 15.6697 1.94591 17.0438 2.1518C17.367 2.20023 17.6898 2.26042 18.0113 2.33265L18.888 -1.57009C16.2718 -2.15781 13.6003 -2.12875 11.1107 -1.56968L11.9874 2.33307ZM18.0113 2.33265C17.4503 2.20667 17.0438 1.7074 17.0438 1.12197H21.0438C21.0438 -0.174519 20.1427 -1.2883 18.888 -1.57009L18.0113 2.33265ZM17.0438 1.12197V2.1518V4.22953H21.0438V1.12197H17.0438ZM18.3768 6.11504C19.55 6.53002 20.6364 7.15816 21.5813 7.96785L24.184 4.93039C22.8649 3.80013 21.3484 2.92329 19.7107 2.34401L18.3768 6.11504ZM23.8829 8.18101L25.6833 7.14123L26.5735 6.62704L24.5736 3.16288L21.8824 4.71723L23.8829 8.18101ZM26.5735 6.62704C26.3297 6.76774 26.0446 6.82174 25.7662 6.77944L26.3672 2.82484C25.7483 2.73079 25.1158 2.84999 24.5736 3.16288L26.5735 6.62704ZM25.7662 6.77944C25.4879 6.73714 25.2323 6.60146 25.0412 6.39467L27.9794 3.68045C27.5547 3.22062 26.9861 2.9189 26.3672 2.82484L25.7662 6.77944ZM25.0412 6.39467C25.264 6.6357 25.4782 6.88472 25.6833 7.14123C26.5327 8.20368 27.2264 9.39472 27.7303 10.6793C27.8495 10.9834 27.9582 11.2928 28.0557 11.6069L31.8757 10.4205C31.0861 7.87813 29.739 5.58426 27.9794 3.68045L25.0412 6.39467ZM28.0557 11.6069C27.8849 11.0573 28.1153 10.4571 28.6208 10.1653L30.6206 13.6295C31.7411 12.9826 32.2571 11.6481 31.8757 10.4205L28.0557 11.6069ZM28.6208 10.1653L27.7303 10.6793L25.9283 11.7194L27.928 15.1837L30.6206 13.6295L28.6208 10.1653ZM24.9613 13.8144C25.1876 15.0406 25.1876 16.2979 24.9613 17.5241L28.895 18.2498C29.2097 16.5438 29.2097 14.7947 28.895 13.0887L24.9613 13.8144ZM22.0547 15.6693C22.0547 11.7776 18.8918 8.61467 15.0001 8.61467V12.6147C16.6826 12.6147 18.0547 13.9867 18.0547 15.6693H22.0547ZM15.0001 8.61467C11.1084 8.61467 7.94555 11.7776 7.94555 15.6693H11.9455C11.9455 13.9867 13.3176 12.6147 15.0001 12.6147V8.61467ZM7.94555 15.6693C7.94555 19.5609 11.1084 22.7238 15.0001 22.7238V18.7238C13.3176 18.7238 11.9455 17.3518 11.9455 15.6693H7.94555ZM15.0001 22.7238C18.8918 22.7238 22.0547 19.5609 22.0547 15.6693H18.0547C18.0547 17.3518 16.6826 18.7238 15.0001 18.7238V22.7238Z" fill="#7EBC63"/>
<path d="M26.9282 17.887L24.9613 17.5241L24.7051 18.913L25.9283 19.6191L26.9282 17.887ZM22.8826 24.8894L23.8829 23.1575L22.6566 22.4493L21.5813 23.3706L22.8826 24.8894ZM19.0437 27.109L18.3767 25.2235L17.0437 25.695V27.109H19.0437ZM10.9564 27.109H12.9564V25.695L11.6234 25.2235L10.9564 27.109ZM7.11758 24.8894L8.41891 23.3707L7.34357 22.4492L6.1173 23.1575L7.11758 24.8894ZM3.07208 17.887L4.0719 19.6191L5.29511 18.9131L5.03889 17.5241L3.07208 17.887ZM3.07208 13.4516L5.03889 13.8144L5.29511 12.4255L4.07191 11.7195L3.07208 13.4516ZM7.11764 6.44918L6.11736 8.18107L7.34361 8.88931L8.41894 7.96794L7.11764 6.44918ZM11.1107 4.22959L11.6235 6.11509L12.9565 5.64354L13.1107 4.22959H11.1107ZM19.0438 4.22953H17.0438V5.64351L18.3768 6.11504L19.0438 4.22953ZM22.8827 6.44912L21.5813 7.96785L22.6567 8.88926L23.8829 8.18101L22.8827 6.44912ZM26.9282 13.4516L25.9283 11.7194L24.7051 12.4254L24.9613 13.8144L26.9282 13.4516ZM25.9283 19.6191L27.7302 20.6592L28.6209 21.1733L30.6206 17.709L27.928 16.1548L25.9283 19.6191ZM28.6209 21.1733C28.115 20.8813 27.8851 20.2808 28.0557 19.7315L31.8756 20.918C32.2569 19.6906 31.7415 18.3559 30.6206 17.709L28.6209 21.1733ZM28.0557 19.7315C27.9582 20.0457 27.8495 20.355 27.7302 20.6592C27.2263 21.9439 26.5328 23.1349 25.6833 24.1973C25.4783 24.4537 25.2643 24.7025 25.0416 24.9434L27.979 27.6585C29.7387 25.7546 31.086 23.4603 31.8756 20.918L28.0557 19.7315ZM25.0416 24.9434C25.2326 24.7366 25.4879 24.6014 25.7662 24.5591L26.3672 28.5137C26.9861 28.4196 27.5542 28.1184 27.979 27.6585L25.0416 24.9434ZM25.7662 24.5591C26.0445 24.5168 26.3289 24.5704 26.5728 24.7111L24.5729 28.1752C25.1151 28.4881 25.7482 28.6077 26.3672 28.5137L25.7662 24.5591ZM26.5728 24.7111L25.6833 24.1973L23.8829 23.1575L21.8823 26.6213L24.5729 28.1752L26.5728 24.7111ZM21.5813 23.3706C20.6363 24.1803 19.5499 24.8085 18.3767 25.2235L19.7107 28.9945C21.3483 28.4152 22.8648 27.5384 24.1839 26.4081L21.5813 23.3706ZM17.0437 27.109V29.1864V30.2164H21.0437V27.109H17.0437ZM17.0437 30.2164C17.0437 29.9345 17.1397 29.661 17.3158 29.4409L20.4389 31.9401C20.8304 31.4509 21.0437 30.843 21.0437 30.2164H17.0437ZM17.3158 29.4409C17.4919 29.2208 17.7377 29.0672 18.0128 29.0054L18.8895 32.9082C19.5009 32.7709 20.0474 32.4294 20.4389 31.9401L17.3158 29.4409ZM18.0128 29.0054C17.6935 29.0771 17.3702 29.1376 17.0437 29.1864C15.7129 29.3857 14.3306 29.3926 12.9564 29.1867C12.6332 29.1383 12.3105 29.0781 11.9889 29.0059L11.1122 32.9086C13.7284 33.4963 16.3999 33.4673 18.8895 32.9082L18.0128 29.0054ZM11.9889 29.0059C12.5499 29.1319 12.9564 29.6311 12.9564 30.2165H8.95647C8.95647 31.513 9.8575 32.6268 11.1122 32.9086L11.9889 29.0059ZM12.9564 30.2165V29.1867V27.109H8.95647V30.2165H12.9564ZM11.6234 25.2235C10.4502 24.8085 9.36386 24.1803 8.41891 23.3707L5.81625 26.4081C7.13533 27.5384 8.65187 28.4152 10.2895 28.9945L11.6234 25.2235ZM6.1173 23.1575L4.31702 24.1973L3.42674 24.7115L5.42663 28.1756L8.11786 26.6213L6.1173 23.1575ZM3.42674 24.7115C3.67056 24.5708 3.95566 24.5168 4.23399 24.5591L3.63302 28.5137C4.25194 28.6077 4.88443 28.4885 5.42663 28.1756L3.42674 24.7115ZM4.23399 24.5591C4.51232 24.6014 4.76798 24.737 4.959 24.9438L2.0208 27.658C2.44558 28.1179 3.0141 28.4196 3.63302 28.5137L4.23399 24.5591ZM4.959 24.9438C4.73625 24.7028 4.5221 24.4538 4.31702 24.1973C3.46756 23.1348 2.77391 21.9438 2.27001 20.6592C2.15073 20.3551 2.04209 20.0457 1.94452 19.7316L-1.87547 20.918C-1.08584 23.4604 0.261211 25.7542 2.0208 27.658L4.959 24.9438ZM1.94452 19.7316C2.11524 20.2812 1.8849 20.8814 1.37945 21.1732L-0.620382 17.709C-1.74085 18.3559 -2.25685 19.6904 -1.87547 20.918L1.94452 19.7316ZM1.37945 21.1732L2.27001 20.6592L4.0719 19.6191L2.07226 16.1548L-0.620382 17.709L1.37945 21.1732ZM5.03889 17.5241C4.81269 16.2979 4.81269 15.0407 5.03889 13.8144L1.10526 13.0888C0.790564 14.7947 0.790564 16.5438 1.10526 18.2498L5.03889 17.5241ZM4.07191 11.7195L2.27008 10.6794L1.37934 10.1652L-0.620337 13.6295L2.07224 15.1838L4.07191 11.7195ZM1.37934 10.1652C1.88524 10.4572 2.11517 11.0578 1.94458 11.607L-1.8754 10.4205C-2.25665 11.648 -1.74125 12.9826 -0.620337 13.6295L1.37934 10.1652ZM1.94458 11.607C2.04215 11.2928 2.1508 10.9835 2.27008 10.6794C2.77396 9.39466 3.4675 8.20371 4.31701 7.14126C4.52198 6.88491 4.73603 6.63604 4.95869 6.39514L2.02124 3.68011C0.261545 5.58396 -1.08578 7.87813 -1.8754 10.4205L1.94458 11.607ZM4.95869 6.39514C4.76767 6.60193 4.51237 6.73721 4.23406 6.7795L3.63308 2.82491C3.01418 2.91896 2.44602 3.22027 2.02124 3.68011L4.95869 6.39514ZM4.23406 6.7795C3.95574 6.8218 3.67131 6.7682 3.42748 6.62749L5.42736 3.16332C4.88515 2.85043 4.25198 2.73085 3.63308 2.82491L4.23406 6.7795ZM3.42748 6.62749L4.31701 7.14126L6.11736 8.18107L8.11792 4.71729L5.42736 3.16332L3.42748 6.62749ZM8.41894 7.96794C9.36393 7.15826 10.4503 6.5301 11.6235 6.11509L10.2895 2.34409C8.65193 2.92339 7.13542 3.80021 5.81634 4.93043L8.41894 7.96794ZM13.1107 4.22959L12.9565 2.15204V1.12209H8.95654V4.22959H13.1107ZM12.9565 1.12209C12.9565 1.40398 12.8605 1.67746 12.6844 1.89757L9.56131 -0.601628C9.16981 -0.112386 8.95653 0.495516 8.95654 1.12209H12.9565ZM12.6844 1.89757C12.5083 2.11768 12.2625 2.27127 11.9874 2.33307L11.1107 -1.56968C10.4993 -1.43231 9.95281 -1.09086 9.56131 -0.601628L12.6844 1.89757ZM11.9874 2.33307C12.3068 2.26135 12.6301 2.20091 12.9565 2.15204C14.2874 1.95278 15.6697 1.94591 17.0438 2.1518C17.367 2.20023 17.6898 2.26042 18.0113 2.33265L18.888 -1.57009C16.2718 -2.15781 13.6003 -2.12875 11.1107 -1.56968L11.9874 2.33307ZM18.0113 2.33265C17.4503 2.20667 17.0438 1.7074 17.0438 1.12197H21.0438C21.0438 -0.174519 20.1427 -1.2883 18.888 -1.57009L18.0113 2.33265ZM17.0438 1.12197V2.1518V4.22953H21.0438V1.12197H17.0438ZM18.3768 6.11504C19.55 6.53002 20.6364 7.15816 21.5813 7.96785L24.184 4.93039C22.8649 3.80013 21.3484 2.92329 19.7107 2.34401L18.3768 6.11504ZM23.8829 8.18101L25.6833 7.14123L26.5735 6.62704L24.5736 3.16288L21.8824 4.71723L23.8829 8.18101ZM26.5735 6.62704C26.3297 6.76774 26.0446 6.82174 25.7662 6.77944L26.3672 2.82484C25.7483 2.73079 25.1158 2.84999 24.5736 3.16288L26.5735 6.62704ZM25.7662 6.77944C25.4879 6.73714 25.2323 6.60146 25.0412 6.39467L27.9794 3.68045C27.5547 3.22062 26.9861 2.9189 26.3672 2.82484L25.7662 6.77944ZM25.0412 6.39467C25.264 6.6357 25.4782 6.88472 25.6833 7.14123C26.5327 8.20368 27.2264 9.39472 27.7303 10.6793C27.8495 10.9834 27.9582 11.2928 28.0557 11.6069L31.8757 10.4205C31.0861 7.87813 29.739 5.58426 27.9794 3.68045L25.0412 6.39467ZM28.0557 11.6069C27.8849 11.0573 28.1153 10.4571 28.6208 10.1653L30.6206 13.6295C31.7411 12.9826 32.2571 11.6481 31.8757 10.4205L28.0557 11.6069ZM28.6208 10.1653L27.7303 10.6793L25.9283 11.7194L27.928 15.1837L30.6206 13.6295L28.6208 10.1653ZM24.9613 13.8144C25.1876 15.0406 25.1876 16.2979 24.9613 17.5241L28.895 18.2498C29.2097 16.5438 29.2097 14.7947 28.895 13.0887L24.9613 13.8144ZM22.0547 15.6693C22.0547 11.7776 18.8918 8.61467 15.0001 8.61467V12.6147C16.6826 12.6147 18.0547 13.9867 18.0547 15.6693H22.0547ZM15.0001 8.61467C11.1084 8.61467 7.94555 11.7776 7.94555 15.6693H11.9455C11.9455 13.9867 13.3176 12.6147 15.0001 12.6147V8.61467ZM7.94555 15.6693C7.94555 19.5609 11.1084 22.7238 15.0001 22.7238V18.7238C13.3176 18.7238 11.9455 17.3518 11.9455 15.6693H7.94555ZM15.0001 22.7238C18.8918 22.7238 22.0547 19.5609 22.0547 15.6693H18.0547C18.0547 17.3518 16.6826 18.7238 15.0001 18.7238V22.7238Z" fill="#7EBC63"/>
<path fill-rule="evenodd" clip-rule="evenodd" d="M24.7051 18.913L24.9613 17.5241C25.1876 16.2979 25.1876 15.0406 24.9613 13.8144L24.7051 12.4254L25.9283 11.7194L27.7303 10.6793C27.2264 9.39472 26.5327 8.20368 25.6833 7.14123L23.8829 8.18101L22.6567 8.88926L21.5813 7.96785C20.6364 7.15816 19.55 6.53002 18.3768 6.11504L17.0438 5.64351V4.22953V2.1518C15.6697 1.94591 14.2874 1.95278 12.9565 2.15204L13.1107 4.22959L12.9565 5.64354L11.6235 6.11509C10.4503 6.5301 9.36393 7.15826 8.41894 7.96794L7.34361 8.88931L6.11736 8.18107L4.31701 7.14126C3.4675 8.20371 2.77396 9.39466 2.27008 10.6794L4.07191 11.7195L5.29511 12.4255L5.03889 13.8144C4.81269 15.0407 4.81269 16.2979 5.03889 17.5241L5.29511 18.9131L4.0719 19.6191L2.27001 20.6592C2.77391 21.9438 3.46756 23.1348 4.31702 24.1973L6.1173 23.1575L7.34357 22.4492L8.41891 23.3707C9.36386 24.1803 10.4502 24.8085 11.6234 25.2235L12.9564 25.695V27.109V29.1867C14.3306 29.3926 15.7129 29.3857 17.0437 29.1864V27.109V25.695L18.3767 25.2235C19.5499 24.8085 20.6363 24.1803 21.5813 23.3706L22.6566 22.4493L23.8829 23.1575L25.6833 24.1973C26.5328 23.1349 27.2263 21.9439 27.7302 20.6592L25.9283 19.6191L24.7051 18.913ZM15.0001 8.61467C18.8918 8.61467 22.0547 11.7776 22.0547 15.6693C22.0547 19.5609 18.8918 22.7238 15.0001 22.7238C11.1084 22.7238 7.94555 19.5609 7.94555 15.6693C7.94555 11.7776 11.1084 8.61467 15.0001 8.61467Z" fill="#7EBC63"/>
<path d="M26.9282 17.887L24.9613 17.5241L24.7051 18.913L25.9283 19.6191L26.9282 17.887ZM22.8826 24.8894L23.8829 23.1575L22.6566 22.4493L21.5813 23.3706L22.8826 24.8894ZM19.0437 27.109L18.3767 25.2235L17.0437 25.695V27.109H19.0437ZM10.9564 27.109H12.9564V25.695L11.6234 25.2235L10.9564 27.109ZM7.11758 24.8894L8.41891 23.3707L7.34357 22.4492L6.1173 23.1575L7.11758 24.8894ZM3.07208 17.887L4.0719 19.6191L5.29511 18.9131L5.03889 17.5241L3.07208 17.887ZM3.07208 13.4516L5.03889 13.8144L5.29511 12.4255L4.07191 11.7195L3.07208 13.4516ZM7.11764 6.44918L6.11736 8.18107L7.34361 8.88931L8.41894 7.96794L7.11764 6.44918ZM11.1107 4.22959L11.6235 6.11509L12.9565 5.64354L13.1107 4.22959H11.1107ZM19.0438 4.22953H17.0438V5.64351L18.3768 6.11504L19.0438 4.22953ZM22.8827 6.44912L21.5813 7.96785L22.6567 8.88926L23.8829 8.18101L22.8827 6.44912ZM26.9282 13.4516L25.9283 11.7194L24.7051 12.4254L24.9613 13.8144L26.9282 13.4516ZM25.9283 19.6191L27.7302 20.6592L28.6209 21.1733L30.6206 17.709L27.928 16.1548L25.9283 19.6191ZM28.6209 21.1733C28.115 20.8813 27.8851 20.2808 28.0557 19.7315L31.8756 20.918C32.2569 19.6906 31.7415 18.3559 30.6206 17.709L28.6209 21.1733ZM28.0557 19.7315C27.9582 20.0457 27.8495 20.355 27.7302 20.6592C27.2263 21.9439 26.5328 23.1349 25.6833 24.1973C25.4783 24.4537 25.2643 24.7025 25.0416 24.9434L27.979 27.6585C29.7387 25.7546 31.086 23.4603 31.8756 20.918L28.0557 19.7315ZM25.0416 24.9434C25.2326 24.7366 25.4879 24.6014 25.7662 24.5591L26.3672 28.5137C26.9861 28.4196 27.5542 28.1184 27.979 27.6585L25.0416 24.9434ZM25.7662 24.5591C26.0445 24.5168 26.3289 24.5704 26.5728 24.7111L24.5729 28.1752C25.1151 28.4881 25.7482 28.6077 26.3672 28.5137L25.7662 24.5591ZM26.5728 24.7111L25.6833 24.1973L23.8829 23.1575L21.8823 26.6213L24.5729 28.1752L26.5728 24.7111ZM21.5813 23.3706C20.6363 24.1803 19.5499 24.8085 18.3767 25.2235L19.7107 28.9945C21.3483 28.4152 22.8648 27.5384 24.1839 26.4081L21.5813 23.3706ZM17.0437 27.109V29.1864V30.2164H21.0437V27.109H17.0437ZM17.0437 30.2164C17.0437 29.9345 17.1397 29.661 17.3158 29.4409L20.4389 31.9401C20.8304 31.4509 21.0437 30.843 21.0437 30.2164H17.0437ZM17.3158 29.4409C17.4919 29.2208 17.7377 29.0672 18.0128 29.0054L18.8895 32.9082C19.5009 32.7709 20.0474 32.4294 20.4389 31.9401L17.3158 29.4409ZM18.0128 29.0054C17.6935 29.0771 17.3702 29.1376 17.0437 29.1864C15.7129 29.3857 14.3306 29.3926 12.9564 29.1867C12.6332 29.1383 12.3105 29.0781 11.9889 29.0059L11.1122 32.9086C13.7284 33.4963 16.3999 33.4673 18.8895 32.9082L18.0128 29.0054ZM11.9889 29.0059C12.5499 29.1319 12.9564 29.6311 12.9564 30.2165H8.95647C8.95647 31.513 9.8575 32.6268 11.1122 32.9086L11.9889 29.0059ZM12.9564 30.2165V29.1867V27.109H8.95647V30.2165H12.9564ZM11.6234 25.2235C10.4502 24.8085 9.36386 24.1803 8.41891 23.3707L5.81625 26.4081C7.13533 27.5384 8.65187 28.4152 10.2895 28.9945L11.6234 25.2235ZM6.1173 23.1575L4.31702 24.1973L3.42674 24.7115L5.42663 28.1756L8.11786 26.6213L6.1173 23.1575ZM3.42674 24.7115C3.67056 24.5708 3.95566 24.5168 4.23399 24.5591L3.63302 28.5137C4.25194 28.6077 4.88443 28.4885 5.42663 28.1756L3.42674 24.7115ZM4.23399 24.5591C4.51232 24.6014 4.76798 24.737 4.959 24.9438L2.0208 27.658C2.44558 28.1179 3.0141 28.4196 3.63302 28.5137L4.23399 24.5591ZM4.959 24.9438C4.73625 24.7028 4.5221 24.4538 4.31702 24.1973C3.46756 23.1348 2.77391 21.9438 2.27001 20.6592C2.15073 20.3551 2.04209 20.0457 1.94452 19.7316L-1.87547 20.918C-1.08584 23.4604 0.261211 25.7542 2.0208 27.658L4.959 24.9438ZM1.94452 19.7316C2.11524 20.2812 1.8849 20.8814 1.37945 21.1732L-0.620382 17.709C-1.74085 18.3559 -2.25685 19.6904 -1.87547 20.918L1.94452 19.7316ZM1.37945 21.1732L2.27001 20.6592L4.0719 19.6191L2.07226 16.1548L-0.620382 17.709L1.37945 21.1732ZM5.03889 17.5241C4.81269 16.2979 4.81269 15.0407 5.03889 13.8144L1.10526 13.0888C0.790564 14.7947 0.790564 16.5438 1.10526 18.2498L5.03889 17.5241ZM4.07191 11.7195L2.27008 10.6794L1.37934 10.1652L-0.620337 13.6295L2.07224 15.1838L4.07191 11.7195ZM1.37934 10.1652C1.88524 10.4572 2.11517 11.0578 1.94458 11.607L-1.8754 10.4205C-2.25665 11.648 -1.74125 12.9826 -0.620337 13.6295L1.37934 10.1652ZM1.94458 11.607C2.04215 11.2928 2.1508 10.9835 2.27008 10.6794C2.77396 9.39466 3.4675 8.20371 4.31701 7.14126C4.52198 6.88491 4.73603 6.63604 4.95869 6.39514L2.02124 3.68011C0.261545 5.58396 -1.08578 7.87813 -1.8754 10.4205L1.94458 11.607ZM4.95869 6.39514C4.76767 6.60193 4.51237 6.73721 4.23406 6.7795L3.63308 2.82491C3.01418 2.91896 2.44602 3.22027 2.02124 3.68011L4.95869 6.39514ZM4.23406 6.7795C3.95574 6.8218 3.67131 6.7682 3.42748 6.62749L5.42736 3.16332C4.88515 2.85043 4.25198 2.73085 3.63308 2.82491L4.23406 6.7795ZM3.42748 6.62749L4.31701 7.14126L6.11736 8.18107L8.11792 4.71729L5.42736 3.16332L3.42748 6.62749ZM8.41894 7.96794C9.36393 7.15826 10.4503 6.5301 11.6235 6.11509L10.9565 4.22959L10.2895 2.34409C8.65193 2.92339 7.13542 3.80021 5.81634 4.93043L8.41894 7.96794ZM13.1107 4.22959L12.9565 2.15204V1.12209H8.95654V4.22959H10.9565H13.1107ZM12.9565 1.12209C12.9565 1.40398 12.8605 1.67746 12.6844 1.89757L9.56131 -0.601628C9.16981 -0.112386 8.95653 0.495516 8.95654 1.12209H12.9565ZM12.6844 1.89757C12.5083 2.11768 12.2625 2.27127 11.9874 2.33307L11.1107 -1.56968C10.4993 -1.43231 9.95281 -1.09086 9.56131 -0.601628L12.6844 1.89757ZM11.9874 2.33307C12.3068 2.26135 12.6301 2.20091 12.9565 2.15204C14.2874 1.95278 15.6697 1.94591 17.0438 2.1518C17.367 2.20023 17.6898 2.26042 18.0113 2.33265L18.888 -1.57009C16.2718 -2.15781 13.6003 -2.12875 11.1107 -1.56968L11.9874 2.33307ZM18.0113 2.33265C17.4503 2.20667 17.0438 1.7074 17.0438 1.12197H21.0438C21.0438 -0.174519 20.1427 -1.2883 18.888 -1.57009L18.0113 2.33265ZM17.0438 1.12197V2.1518V4.22953H21.0438V1.12197H17.0438ZM18.3768 6.11504C19.55 6.53002 20.6364 7.15816 21.5813 7.96785L24.184 4.93039C22.8649 3.80013 21.3484 2.92329 19.7107 2.34401L18.3768 6.11504ZM23.8829 8.18101L25.6833 7.14123L26.5735 6.62704L24.5736 3.16288L21.8824 4.71723L23.8829 8.18101ZM26.5735 6.62704C26.3297 6.76774 26.0446 6.82174 25.7662 6.77944L26.3672 2.82484C25.7483 2.73079 25.1158 2.84999 24.5736 3.16288L26.5735 6.62704ZM25.7662 6.77944C25.4879 6.73714 25.2323 6.60146 25.0412 6.39467L27.9794 3.68045C27.5547 3.22062 26.9861 2.9189 26.3672 2.82484L25.7662 6.77944ZM25.0412 6.39467C25.264 6.6357 25.4782 6.88472 25.6833 7.14123C26.5327 8.20368 27.2264 9.39472 27.7303 10.6793C27.8495 10.9834 27.9582 11.2928 28.0557 11.6069L31.8757 10.4205C31.0861 7.87813 29.739 5.58426 27.9794 3.68045L25.0412 6.39467ZM28.0557 11.6069C27.8849 11.0573 28.1153 10.4571 28.6208 10.1653L30.6206 13.6295C31.7411 12.9826 32.2571 11.6481 31.8757 10.4205L28.0557 11.6069ZM28.6208 10.1653L27.7303 10.6793L25.9283 11.7194L27.928 15.1837L30.6206 13.6295L28.6208 10.1653ZM24.9613 13.8144C25.1876 15.0406 25.1876 16.2979 24.9613 17.5241L28.895 18.2498C29.2097 16.5438 29.2097 14.7947 28.895 13.0887L24.9613 13.8144ZM22.0547 15.6693C22.0547 11.7776 18.8918 8.61467 15.0001 8.61467V12.6147C16.6826 12.6147 18.0547 13.9867 18.0547 15.6693H22.0547ZM15.0001 8.61467C11.1084 8.61467 7.94555 11.7776 7.94555 15.6693H11.9455C11.9455 13.9867 13.3176 12.6147 15.0001 12.6147V8.61467ZM7.94555 15.6693C7.94555 19.5609 11.1084 22.7238 15.0001 22.7238V18.7238C13.3176 18.7238 11.9455 17.3518 11.9455 15.6693H7.94555ZM15.0001 22.7238C18.8918 22.7238 22.0547 19.5609 22.0547 15.6693H18.0547C18.0547 17.3518 16.6826 18.7238 15.0001 18.7238V22.7238Z" fill="#B2895D"/>
<path d="M26.9282 17.887L24.9613 17.5241L24.7051 18.913L25.9283 19.6191L26.9282 17.887ZM22.8826 24.8894L23.8829 23.1575L22.6566 22.4493L21.5813 23.3706L22.8826 24.8894ZM19.0437 27.109L18.3767 25.2235L17.0437 25.695V27.109H19.0437ZM10.9564 27.109H12.9564V25.695L11.6234 25.2235L10.9564 27.109ZM7.11758 24.8894L8.41891 23.3707L7.34357 22.4492L6.1173 23.1575L7.11758 24.8894ZM3.07208 17.887L4.0719 19.6191L5.29511 18.9131L5.03889 17.5241L3.07208 17.887ZM3.07208 13.4516L5.03889 13.8144L5.29511 12.4255L4.07191 11.7195L3.07208 13.4516ZM7.11764 6.44918L6.11736 8.18107L7.34361 8.88931L8.41894 7.96794L7.11764 6.44918ZM11.1107 4.22959L11.6235 6.11509L12.9565 5.64354L13.1107 4.22959H11.1107ZM19.0438 4.22953H17.0438V5.64351L18.3768 6.11504L19.0438 4.22953ZM22.8827 6.44912L21.5813 7.96785L22.6567 8.88926L23.8829 8.18101L22.8827 6.44912ZM26.9282 13.4516L25.9283 11.7194L24.7051 12.4254L24.9613 13.8144L26.9282 13.4516ZM25.9283 19.6191L27.7302 20.6592L28.6209 21.1733L30.6206 17.709L27.928 16.1548L25.9283 19.6191ZM28.6209 21.1733C28.115 20.8813 27.8851 20.2808 28.0557 19.7315L31.8756 20.918C32.2569 19.6906 31.7415 18.3559 30.6206 17.709L28.6209 21.1733ZM28.0557 19.7315C27.9582 20.0457 27.8495 20.355 27.7302 20.6592C27.2263 21.9439 26.5328 23.1349 25.6833 24.1973C25.4783 24.4537 25.2643 24.7025 25.0416 24.9434L27.979 27.6585C29.7387 25.7546 31.086 23.4603 31.8756 20.918L28.0557 19.7315ZM25.0416 24.9434C25.2326 24.7366 25.4879 24.6014 25.7662 24.5591L26.3672 28.5137C26.9861 28.4196 27.5542 28.1184 27.979 27.6585L25.0416 24.9434ZM25.7662 24.5591C26.0445 24.5168 26.3289 24.5704 26.5728 24.7111L24.5729 28.1752C25.1151 28.4881 25.7482 28.6077 26.3672 28.5137L25.7662 24.5591ZM26.5728 24.7111L25.6833 24.1973L23.8829 23.1575L21.8823 26.6213L24.5729 28.1752L26.5728 24.7111ZM21.5813 23.3706C20.6363 24.1803 19.5499 24.8085 18.3767 25.2235L19.7107 28.9945C21.3483 28.4152 22.8648 27.5384 24.1839 26.4081L21.5813 23.3706ZM17.0437 27.109V29.1864V30.2164H21.0437V27.109H17.0437ZM17.0437 30.2164C17.0437 29.9345 17.1397 29.661 17.3158 29.4409L20.4389 31.9401C20.8304 31.4509 21.0437 30.843 21.0437 30.2164H17.0437ZM17.3158 29.4409C17.4919 29.2208 17.7377 29.0672 18.0128 29.0054L18.8895 32.9082C19.5009 32.7709 20.0474 32.4294 20.4389 31.9401L17.3158 29.4409ZM18.0128 29.0054C17.6935 29.0771 17.3702 29.1376 17.0437 29.1864C15.7129 29.3857 14.3306 29.3926 12.9564 29.1867C12.6332 29.1383 12.3105 29.0781 11.9889 29.0059L11.1122 32.9086C13.7284 33.4963 16.3999 33.4673 18.8895 32.9082L18.0128 29.0054ZM11.9889 29.0059C12.5499 29.1319 12.9564 29.6311 12.9564 30.2165H8.95647C8.95647 31.513 9.8575 32.6268 11.1122 32.9086L11.9889 29.0059ZM12.9564 30.2165V29.1867V27.109H8.95647V30.2165H12.9564ZM11.6234 25.2235C10.4502 24.8085 9.36386 24.1803 8.41891 23.3707L5.81625 26.4081C7.13533 27.5384 8.65187 28.4152 10.2895 28.9945L11.6234 25.2235ZM6.1173 23.1575L4.31702 24.1973L3.42674 24.7115L5.42663 28.1756L8.11786 26.6213L6.1173 23.1575ZM3.42674 24.7115C3.67056 24.5708 3.95566 24.5168 4.23399 24.5591L3.63302 28.5137C4.25194 28.6077 4.88443 28.4885 5.42663 28.1756L3.42674 24.7115ZM4.23399 24.5591C4.51232 24.6014 4.76798 24.737 4.959 24.9438L2.0208 27.658C2.44558 28.1179 3.0141 28.4196 3.63302 28.5137L4.23399 24.5591ZM4.959 24.9438C4.73625 24.7028 4.5221 24.4538 4.31702 24.1973C3.46756 23.1348 2.77391 21.9438 2.27001 20.6592C2.15073 20.3551 2.04209 20.0457 1.94452 19.7316L-1.87547 20.918C-1.08584 23.4604 0.261211 25.7542 2.0208 27.658L4.959 24.9438ZM1.94452 19.7316C2.11524 20.2812 1.8849 20.8814 1.37945 21.1732L-0.620382 17.709C-1.74085 18.3559 -2.25685 19.6904 -1.87547 20.918L1.94452 19.7316ZM1.37945 21.1732L2.27001 20.6592L4.0719 19.6191L2.07226 16.1548L-0.620382 17.709L1.37945 21.1732ZM5.03889 17.5241C4.81269 16.2979 4.81269 15.0407 5.03889 13.8144L1.10526 13.0888C0.790564 14.7947 0.790564 16.5438 1.10526 18.2498L5.03889 17.5241ZM4.07191 11.7195L2.27008 10.6794L1.37934 10.1652L-0.620337 13.6295L2.07224 15.1838L4.07191 11.7195ZM1.37934 10.1652C1.88524 10.4572 2.11517 11.0578 1.94458 11.607L-1.8754 10.4205C-2.25665 11.648 -1.74125 12.9826 -0.620337 13.6295L1.37934 10.1652ZM1.94458 11.607C2.04215 11.2928 2.1508 10.9835 2.27008 10.6794C2.77396 9.39466 3.4675 8.20371 4.31701 7.14126C4.52198 6.88491 4.73603 6.63604 4.95869 6.39514L2.02124 3.68011C0.261545 5.58396 -1.08578 7.87813 -1.8754 10.4205L1.94458 11.607ZM4.95869 6.39514C4.76767 6.60193 4.51237 6.73721 4.23406 6.7795L3.63308 2.82491C3.01418 2.91896 2.44602 3.22027 2.02124 3.68011L4.95869 6.39514ZM4.23406 6.7795C3.95574 6.8218 3.67131 6.7682 3.42748 6.62749L5.42736 3.16332C4.88515 2.85043 4.25198 2.73085 3.63308 2.82491L4.23406 6.7795ZM3.42748 6.62749L4.31701 7.14126L6.11736 8.18107L8.11792 4.71729L5.42736 3.16332L3.42748 6.62749ZM8.41894 7.96794C9.36393 7.15826 10.4503 6.5301 11.6235 6.11509L10.9565 4.22959L10.2895 2.34409C8.65193 2.92339 7.13542 3.80021 5.81634 4.93043L8.41894 7.96794ZM13.1107 4.22959L12.9565 2.15204V1.12209H8.95654V4.22959H10.9565H13.1107ZM12.9565 1.12209C12.9565 1.40398 12.8605 1.67746 12.6844 1.89757L9.56131 -0.601628C9.16981 -0.112386 8.95653 0.495516 8.95654 1.12209H12.9565ZM12.6844 1.89757C12.5083 2.11768 12.2625 2.27127 11.9874 2.33307L11.1107 -1.56968C10.4993 -1.43231 9.95281 -1.09086 9.56131 -0.601628L12.6844 1.89757ZM11.9874 2.33307C12.3068 2.26135 12.6301 2.20091 12.9565 2.15204C14.2874 1.95278 15.6697 1.94591 17.0438 2.1518C17.367 2.20023 17.6898 2.26042 18.0113 2.33265L18.888 -1.57009C16.2718 -2.15781 13.6003 -2.12875 11.1107 -1.56968L11.9874 2.33307ZM18.0113 2.33265C17.4503 2.20667 17.0438 1.7074 17.0438 1.12197H21.0438C21.0438 -0.174519 20.1427 -1.2883 18.888 -1.57009L18.0113 2.33265ZM17.0438 1.12197V2.1518V4.22953H21.0438V1.12197H17.0438ZM18.3768 6.11504C19.55 6.53002 20.6364 7.15816 21.5813 7.96785L24.184 4.93039C22.8649 3.80013 21.3484 2.92329 19.7107 2.34401L18.3768 6.11504ZM23.8829 8.18101L25.6833 7.14123L26.5735 6.62704L24.5736 3.16288L21.8824 4.71723L23.8829 8.18101ZM26.5735 6.62704C26.3297 6.76774 26.0446 6.82174 25.7662 6.77944L26.3672 2.82484C25.7483 2.73079 25.1158 2.84999 24.5736 3.16288L26.5735 6.62704ZM25.7662 6.77944C25.4879 6.73714 25.2323 6.60146 25.0412 6.39467L27.9794 3.68045C27.5547 3.22062 26.9861 2.9189 26.3672 2.82484L25.7662 6.77944ZM25.0412 6.39467C25.264 6.6357 25.4782 6.88472 25.6833 7.14123C26.5327 8.20368 27.2264 9.39472 27.7303 10.6793C27.8495 10.9834 27.9582 11.2928 28.0557 11.6069L31.8757 10.4205C31.0861 7.87813 29.739 5.58426 27.9794 3.68045L25.0412 6.39467ZM28.0557 11.6069C27.8849 11.0573 28.1153 10.4571 28.6208 10.1653L30.6206 13.6295C31.7411 12.9826 32.2571 11.6481 31.8757 10.4205L28.0557 11.6069ZM28.6208 10.1653L27.7303 10.6793L25.9283 11.7194L27.928 15.1837L30.6206 13.6295L28.6208 10.1653ZM24.9613 13.8144C25.1876 15.0406 25.1876 16.2979 24.9613 17.5241L28.895 18.2498C29.2097 16.5438 29.2097 14.7947 28.895 13.0887L24.9613 13.8144ZM22.0547 15.6693C22.0547 11.7776 18.8918 8.61467 15.0001 8.61467V12.6147C16.6826 12.6147 18.0547 13.9867 18.0547 15.6693H22.0547ZM15.0001 8.61467C11.1084 8.61467 7.94555 11.7776 7.94555 15.6693H11.9455C11.9455 13.9867 13.3176 12.6147 15.0001 12.6147V8.61467ZM7.94555 15.6693C7.94555 19.5609 11.1084 22.7238 15.0001 22.7238V18.7238C13.3176 18.7238 11.9455 17.3518 11.9455 15.6693H7.94555ZM15.0001 22.7238C18.8918 22.7238 22.0547 19.5609 22.0547 15.6693H18.0547C18.0547 17.3518 16.6826 18.7238 15.0001 18.7238V22.7238Z" fill="#B2895D"/>
<path d="M11.6235 6.11509L11.1107 4.22959H10.9565L11.6235 6.11509Z" fill="#B2895D"/>
</g>
</svg>
