<svg width="19" height="17" viewBox="0 0 19 17" fill="none" xmlns="http://www.w3.org/2000/svg">
<path d="M2.60115 12.9703L2.66636 12.7014L2.4732 12.5034C1.23065 11.2292 0.5 9.62766 0.5 7.89286C0.5 3.89172 4.43811 0.5 9.5 0.5C14.5619 0.5 18.5 3.89172 18.5 7.89286C18.5 11.894 14.5619 15.2857 9.5 15.2857C8.13825 15.2857 6.85192 15.0283 5.69395 14.5829L5.42338 14.4788L5.19864 14.6619C4.38386 15.3257 2.8149 16.3549 0.738006 16.4861C0.902033 16.2825 1.11794 15.9994 1.34656 15.6589C1.80966 14.9691 2.34933 14.0085 2.60115 12.9703ZM0.446738 16.8292C0.448146 16.8277 0.449704 16.826 0.451408 16.8242C0.449905 16.8259 0.448364 16.8276 0.446788 16.8293L0.446738 16.8292Z" stroke="#B2895D"/>
</svg>
