<svg width="22" height="17" viewBox="0 0 22 17" fill="none" xmlns="http://www.w3.org/2000/svg">
<path d="M19.2888 11.9169C19.1941 11.4392 18.9223 11.0918 18.5113 10.8475C16.1098 9.41585 13.7084 7.98415 11.3069 6.5538C11.2718 6.53209 11.2583 6.51174 11.2583 6.46967C11.261 6.24847 11.2596 6.02591 11.2596 5.80471C11.2596 5.53058 11.1731 5.28767 11.0027 5.07325C10.8323 4.85883 10.6187 4.6987 10.3712 4.58742C9.7506 4.30922 9.69651 3.52756 9.97506 3.12315C10.1968 2.80289 10.6133 2.64275 11.0041 2.7296C11.4016 2.81781 11.6585 3.05259 11.745 3.45835C11.7667 3.56013 11.7694 3.66462 11.7937 3.76504C11.8397 3.96182 11.9357 4.12602 12.1385 4.20066C12.363 4.28344 12.6321 4.19387 12.793 3.98624C12.9498 3.7854 12.9674 3.55334 12.9241 3.31586C12.8024 2.66582 12.4671 2.15557 11.9046 1.8068C11.4922 1.55439 11.0379 1.47432 10.5633 1.50689C10.209 1.53132 9.87365 1.62903 9.58969 1.84616C8.92578 2.35506 8.5945 3.03223 8.63101 3.87225C8.64994 4.29973 8.80273 4.68649 9.07452 5.01897C9.2476 5.23203 9.47205 5.38266 9.69651 5.53465C9.80874 5.61065 9.92097 5.68664 10.0116 5.78842C10.0873 5.8712 10.1292 5.96755 10.1279 6.0829C10.1251 6.20911 10.1251 6.33667 10.1279 6.46288C10.1292 6.50631 10.117 6.53073 10.0778 6.5538C9.01773 7.17941 7.95898 7.80773 6.89889 8.43605C5.5332 9.24621 4.16617 10.0564 2.79913 10.8638C2.39889 11.1 2.16091 11.4487 2.05138 11.8952C2.03245 11.9726 2.0338 12.054 2 12.1273C2 12.2725 2 12.4163 2 12.5615C2.01487 12.6253 2.00947 12.6904 2.02569 12.7542C2.17713 13.3133 2.52734 13.6906 3.0628 13.9009C3.21695 13.962 3.37785 13.9891 3.54147 14C3.56445 14 3.58609 14 3.60907 14C3.63747 13.9864 3.66722 13.9932 3.69561 13.9932C8.30784 13.9932 12.9201 13.9932 17.5323 13.9932C17.5607 13.9959 17.5904 13.9864 17.6175 14C17.6405 14 17.6621 14 17.6851 14C17.7581 13.9864 17.8325 13.9932 17.9055 13.9824C18.1259 13.9498 18.3341 13.8779 18.5275 13.7652C18.8142 13.5983 19.0278 13.3622 19.1684 13.0609C19.2455 12.894 19.2915 12.7176 19.3077 12.5344C19.3077 12.3539 19.3077 12.172 19.3077 11.9915C19.282 11.9712 19.2942 11.9413 19.2888 11.9169ZM18.0218 12.3552C17.992 12.5493 17.8419 12.7108 17.6418 12.7583C17.585 12.7719 17.5255 12.7746 17.4674 12.7746C15.1849 12.7746 12.9025 12.7746 10.62 12.7746C8.33353 12.7746 6.04567 12.7746 3.75916 12.7746C3.44817 12.7746 3.22506 12.5398 3.24264 12.2277C3.25075 12.0879 3.31836 11.9753 3.43465 11.902C3.64423 11.7703 3.85787 11.6469 4.07151 11.5206C6.23362 10.245 8.39709 8.96937 10.5592 7.69238C10.6268 7.65302 10.6728 7.65302 10.739 7.69238C12.6199 8.80517 14.5007 9.9166 16.383 11.0267C16.844 11.2981 17.3051 11.5695 17.7649 11.8423C17.9528 11.9549 18.0529 12.1558 18.0218 12.3552Z" fill="#B2895D"/>
</svg>
