<svg width="576" height="513" viewBox="0 0 576 513" fill="none" xmlns="http://www.w3.org/2000/svg">
<path d="M402.3 344.975L434.3 312.975C439.3 307.975 448 311.475 448 318.675V464.075C448 490.575 426.5 512.075 400 512.075H48C21.5 512.075 0 490.575 0 464.075V112.075C0 85.575 21.5 64.075 48 64.075H321.5C328.6 64.075 332.2 72.675 327.2 77.775L295.2 109.775C293.7 111.275 291.7 112.075 289.5 112.075H48V464.075H400V350.575C400 348.475 400.8 346.475 402.3 344.975ZM558.9 143.175L296.3 405.775L205.9 415.775C179.7 418.675 157.4 396.575 160.3 370.175L170.3 279.775L432.9 17.175C455.8 -5.725 492.8 -5.725 515.6 17.175L558.8 60.375C581.7 83.275 581.7 120.375 558.9 143.175V143.175ZM460.1 174.075L402 115.975L216.2 301.875L208.9 367.175L274.2 359.875L460.1 174.075ZM524.9 94.375L481.7 51.175C477.6 47.075 470.9 47.075 466.9 51.175L436 82.075L494.1 140.175L525 109.275C529 105.075 529 98.475 524.9 94.375V94.375Z" fill="#B2895D"/>
</svg>
