<svg width="27" height="27" viewBox="0 0 27 27" fill="none" xmlns="http://www.w3.org/2000/svg">
<path d="M27 1.48862V25.5054C27 26.331 26.331 26.994 25.5114 26.994H18.6288V16.5435H22.1364L22.6607 12.4694H18.6228V9.86585C18.6228 8.6846 18.9482 7.88304 20.6417 7.88304H22.7993V4.23683C22.4257 4.18862 21.148 4.07411 19.6533 4.07411C16.5435 4.07411 14.41 5.97254 14.41 9.46205V12.4694H10.8904V16.5435H14.41V27H1.48862C0.668973 27 0 26.331 0 25.5114V1.48862C0 0.668973 0.668973 0 1.48862 0H25.5054C26.331 0 27 0.668973 27 1.48862Z" fill="#4267B2"/>
</svg>
