<svg width="15" height="13" viewBox="0 0 15 13" fill="none" xmlns="http://www.w3.org/2000/svg">
<path d="M0.46875 2.78571H12.6562C12.9152 2.78571 13.125 2.57795 13.125 2.32143V0.464286C13.125 0.207768 12.9152 0 12.6562 0H0.46875C0.209766 0 0 0.207768 0 0.464286V2.32143C0 2.57795 0.209766 2.78571 0.46875 2.78571ZM14.5312 5.10714H2.34375C2.08477 5.10714 1.875 5.31491 1.875 5.57143V7.42857C1.875 7.68509 2.08477 7.89286 2.34375 7.89286H14.5312C14.7902 7.89286 15 7.68509 15 7.42857V5.57143C15 5.31491 14.7902 5.10714 14.5312 5.10714ZM12.6562 10.2143H0.46875C0.209766 10.2143 0 10.4221 0 10.6786V12.5357C0 12.7922 0.209766 13 0.46875 13H12.6562C12.9152 13 13.125 12.7922 13.125 12.5357V10.6786C13.125 10.4221 12.9152 10.2143 12.6562 10.2143Z" fill="#1A1A1A"/>
</svg>
