<svg width="27" height="27" viewBox="0 0 27 27" fill="none" xmlns="http://www.w3.org/2000/svg">
<path fill-rule="evenodd" clip-rule="evenodd" d="M27 1.48862V25.5054C27 26.331 26.3311 26.994 25.5114 26.994H18.6288L14.41 27H1.48865C0.668945 27 0 26.331 0 25.5114V1.48862C0 0.668976 0.668945 0 1.48865 0H25.5054C26.3311 0 27 0.668976 27 1.48862ZM21.3988 5.60153C22.5137 6.71231 22.8612 8.06052 22.9332 9.58255C23.0222 11.1512 23.0222 15.8488 22.9332 17.4174C22.8569 18.9395 22.5094 20.2877 21.3988 21.3985C20.2883 22.5135 18.9404 22.8611 17.4187 22.9332C15.8503 23.0222 11.1497 23.0222 9.5813 22.9332C8.05957 22.8569 6.71594 22.5093 5.6012 21.3985C4.48645 20.2877 4.13879 18.9395 4.06677 17.4174C3.97778 15.8488 3.97778 11.147 4.06677 9.57834C4.14307 8.05627 4.48645 6.70807 5.6012 5.59729C6.71594 4.48651 8.06384 4.13885 9.5813 4.06677C11.1497 3.97775 15.8503 3.97775 17.4187 4.06677C18.9404 4.1431 20.2883 4.49075 21.3988 5.60153ZM20.9071 19.1006C20.5765 19.9315 19.9365 20.5717 19.1014 20.9067C18.0289 21.3321 15.6936 21.3085 14.1788 21.2931C13.9275 21.2906 13.6987 21.2882 13.5021 21.2882L13.3979 21.2884C13.3192 21.2887 13.2361 21.2892 13.149 21.2899L12.8396 21.2928C11.3245 21.3073 8.97498 21.3298 7.90283 20.9067C7.07202 20.576 6.43201 19.9358 6.09705 19.1006C5.67188 18.0283 5.69543 15.6937 5.71069 14.1785V14.1769C5.71326 13.9255 5.71558 13.6967 5.71558 13.5C5.71558 13.3071 5.7135 13.0832 5.71106 12.8373C5.69653 11.3218 5.67407 8.97189 6.09705 7.89941C6.42773 7.06845 7.06775 6.42825 7.90283 6.09332C8.97522 5.66788 11.3105 5.69156 12.8254 5.70691C13.0768 5.70944 13.3055 5.71176 13.5021 5.71176C13.5757 5.71176 13.6537 5.71146 13.7357 5.71094L13.9452 5.70932L14.1647 5.70724C15.6798 5.69272 18.0292 5.67017 19.1014 6.09332C19.9323 6.42401 20.5723 7.06421 20.9071 7.89941C21.3325 8.97214 21.3088 11.308 21.2935 12.8231C21.2919 12.9728 21.2905 13.1146 21.2896 13.2462L21.2889 13.3625L21.2886 13.5C21.2886 13.6967 21.2909 13.9255 21.2935 14.177C21.3088 15.6929 21.3325 18.0315 20.9071 19.1006ZM19.7075 8.42938C19.7075 9.0611 19.199 9.56561 18.5717 9.56561C17.9401 9.56561 17.4357 9.05685 17.4357 8.42938C17.4357 7.80191 17.9443 7.29315 18.5717 7.29315C19.199 7.29315 19.7075 7.80191 19.7075 8.42938ZM13.5021 8.62863C10.8063 8.62863 8.63184 10.8036 8.63184 13.5C8.63184 16.1964 10.8063 18.3714 13.5021 18.3714C16.198 18.3714 18.3724 16.1964 18.3724 13.5C18.3724 10.8036 16.198 8.62863 13.5021 8.62863ZM10.3358 13.5C10.3358 15.2467 11.76 16.667 13.5021 16.667C15.2443 16.667 16.6685 15.2467 16.6685 13.5C16.6685 11.7533 15.2484 10.333 13.5021 10.333C11.7557 10.333 10.3358 11.7533 10.3358 13.5Z" fill="url(#paint0_linear)"/>
<defs>
<linearGradient id="paint0_linear" x1="0" y1="27" x2="27" y2="0" gradientUnits="userSpaceOnUse">
<stop stop-color="#F58529"/>
<stop offset="0.229167" stop-color="#FFC423"/>
<stop offset="0.475804" stop-color="#DD2A7B"/>
<stop offset="0.719574" stop-color="#8134AF"/>
<stop offset="0.989583" stop-color="#515BD4"/>
</linearGradient>
</defs>
</svg>
