<svg width="19" height="17" viewBox="0 0 19 17" fill="none" xmlns="http://www.w3.org/2000/svg">
<path d="M10.594 2.02265L10.5942 2.02241C12.2996 0.223059 15.0201 -0.035164 16.827 1.53911C18.9395 3.38282 19.0538 6.70533 17.1565 8.70739L17.1564 8.7075L9.976 16.289C9.97597 16.289 9.97593 16.289 9.9759 16.2891C9.70928 16.5703 9.28756 16.5703 9.02093 16.2891C9.0209 16.289 9.02087 16.289 9.02084 16.289L1.84061 8.70772C-0.0532622 6.70565 0.0609605 3.38297 2.17342 1.5392C3.98051 -0.0353456 6.70455 0.223318 8.40599 2.02205L8.40656 2.02265L9.1376 2.79295L9.50027 3.1751L9.86295 2.79295L10.594 2.02265Z" stroke="#B2895D"/>
</svg>
