<svg width="20" height="18" viewBox="0 0 20 18" fill="none" xmlns="http://www.w3.org/2000/svg">
<path d="M11.094 2.52224L11.0942 2.522C12.7996 0.722646 15.5201 0.464423 17.327 2.0387C19.4395 3.88241 19.5538 7.20492 17.6565 9.20698L17.6564 9.20709L10.476 16.7886C10.476 16.7886 10.476 16.7886 10.4759 16.7887C10.2093 17.0699 9.7876 17.0699 9.52097 16.7887C9.52094 16.7886 9.5209 16.7886 9.52087 16.7886L2.34065 9.20731C0.446773 7.20524 0.560996 3.88256 2.67346 2.03879C4.48055 0.464241 7.20458 0.722905 8.90602 2.52164L8.9066 2.52224L9.63764 3.29254L10.0003 3.67469L10.363 3.29254L11.094 2.52224Z" fill="#7EBC63" stroke="#B2895D"/>
</svg>
