<svg width="21" height="17" viewBox="0 0 21 17" fill="none" xmlns="http://www.w3.org/2000/svg">
<path d="M18.1757 7.80295L12.7079 13.2708C12.2197 13.759 11.3734 13.4172 11.3734 12.7175V9.59301H6.94709C6.51422 9.59301 6.16597 9.24477 6.16597 8.81189V5.68741C6.16597 5.25454 6.51422 4.90629 6.94709 4.90629H11.3734V1.78181C11.3734 1.08531 12.2164 0.740319 12.7079 1.22852L18.1757 6.69636C18.4784 7.0023 18.4784 7.49701 18.1757 7.80295ZM8.24896 13.1081V11.8062C8.24896 11.5914 8.07321 11.4156 7.8584 11.4156H5.12448C4.5484 11.4156 4.08299 10.9502 4.08299 10.3741V4.12517C4.08299 3.5491 4.5484 3.08368 5.12448 3.08368H7.8584C8.07321 3.08368 8.24896 2.90793 8.24896 2.69312V1.39125C8.24896 1.17644 8.07321 1.00069 7.8584 1.00069H5.12448C3.39951 1.00069 2 2.4002 2 4.12517V10.3741C2 12.0991 3.39951 13.4986 5.12448 13.4986H7.8584C8.07321 13.4986 8.24896 13.3229 8.24896 13.1081Z" fill="#B2895D"/>
</svg>
