<svg width="2392" height="579" viewBox="0 0 2392 579" fill="none" xmlns="http://www.w3.org/2000/svg">
<path d="M1588.11 33.7508C1607 33.7508 1623.06 36.9384 1636.28 43.3136C1649.51 49.6888 1662.42 58.689 1675.02 70.3143C1678.48 73.6894 1681.47 75.3769 1683.99 75.3769C1690.29 75.3769 1694.38 64.1266 1696.27 41.6261H1707.14C1705.88 67.1267 1705.25 112.503 1705.25 177.754H1694.38C1691.55 150.004 1687.77 128.816 1683.05 114.19C1678.32 99.565 1670.29 86.8147 1658.96 75.9394C1651.08 66.9392 1641.95 60.189 1631.56 55.6889C1621.17 50.8138 1610.31 48.3762 1598.97 48.3762C1567.16 48.3762 1543.55 66.9392 1528.12 104.065C1512.69 140.816 1504.97 186.755 1504.97 241.881C1504.97 296.632 1513 342.384 1529.06 379.135C1545.12 415.885 1569.05 434.261 1600.86 434.261C1611.56 434.261 1622.11 432.011 1632.51 427.511C1643.21 422.636 1652.19 415.698 1659.43 406.698C1671.08 396.197 1679.11 383.072 1683.52 367.322C1688.24 351.571 1691.86 328.508 1694.38 298.133H1705.25C1705.25 366.009 1705.88 413.26 1707.14 439.886H1696.27C1695.33 427.886 1693.91 419.448 1692.02 414.573C1690.45 409.323 1688.08 406.698 1684.94 406.698C1682.42 406.698 1679.11 408.198 1675.02 411.198C1660.85 423.198 1647.31 432.386 1634.39 438.761C1621.48 444.761 1605.9 447.761 1587.63 447.761C1554.25 447.761 1524.97 439.699 1499.78 423.573C1474.9 407.448 1455.53 384.197 1441.68 353.821C1427.82 323.071 1420.9 286.507 1420.9 244.131C1420.9 202.88 1427.98 166.317 1442.15 134.441C1456.32 102.565 1476 77.8145 1501.19 60.189C1526.7 42.5636 1555.67 33.7508 1588.11 33.7508Z" fill="#3C3C3C"/>
<path d="M1840.85 193.505C1855.02 158.629 1880.68 141.191 1917.84 141.191C1942.4 141.191 1959.72 148.504 1969.8 163.129C1975.15 170.254 1978.93 179.63 1981.13 191.255C1983.65 202.505 1984.91 217.505 1984.91 236.256V387.572C1984.91 402.948 1987.11 413.635 1991.52 419.636C1995.93 425.261 2003.8 428.073 2015.14 428.073V439.886C1982.39 438.386 1961.61 437.636 1952.79 437.636C1942.08 437.636 1921.62 438.386 1891.39 439.886V428.073C1900.83 428.073 1907.45 425.261 1911.22 419.636C1915 413.635 1916.89 402.948 1916.89 387.572V212.63C1916.89 197.255 1914.69 185.63 1910.28 177.754C1906.19 169.879 1898.63 165.942 1887.61 165.942C1874.38 165.942 1863.2 172.129 1854.07 184.505C1845.25 196.505 1840.85 211.88 1840.85 230.631V387.572C1840.85 402.948 1842.74 413.635 1846.51 419.636C1850.29 425.261 1856.91 428.073 1866.35 428.073V439.886C1836.12 438.386 1816.6 437.636 1807.78 437.636C1797.08 437.636 1775.35 438.386 1742.6 439.886V428.073C1753.62 428.073 1761.33 425.261 1765.74 419.636C1770.47 413.635 1772.83 402.948 1772.83 387.572V67.5017C1772.83 50.2513 1770.47 37.6885 1765.74 29.8133C1761.33 21.9381 1753.62 18.0005 1742.6 18.0005V6.18768C1752.68 7.31271 1762.44 7.87523 1771.88 7.87523C1799.28 7.87523 1822.27 5.25015 1840.85 0V193.505Z" fill="#3C3C3C"/>
<path d="M2093.74 3.93761C2106.96 3.93761 2117.35 7.87522 2124.91 15.7504C2132.78 23.2506 2136.72 33.7509 2136.72 47.2512C2136.72 60.7515 2132.78 71.4393 2124.91 79.3145C2117.35 86.8147 2106.96 90.5648 2093.74 90.5648C2080.51 90.5648 2069.96 86.8147 2062.09 79.3145C2054.53 71.4393 2050.75 60.7515 2050.75 47.2512C2050.75 33.7509 2054.53 23.2506 2062.09 15.7504C2069.96 7.87522 2080.51 3.93761 2093.74 3.93761Z" fill="#3C3C3C"/>
<path d="M2304.13 141.191C2315.78 141.191 2326.81 142.691 2337.2 145.691C2347.59 148.691 2356.25 152.816 2363.18 158.066C2371.36 164.067 2377.66 171.754 2382.07 181.13C2386.79 190.13 2389.16 200.068 2389.16 210.943C2389.16 224.068 2385.69 234.943 2378.76 243.569C2371.84 251.819 2362.86 255.944 2351.84 255.944C2340.82 255.944 2332 252.194 2325.39 244.694C2318.78 237.193 2315.47 227.068 2315.47 214.318C2315.47 203.068 2318.46 193.317 2324.44 185.067C2330.43 176.817 2337.83 171.192 2346.64 168.192C2344.13 164.067 2340.19 160.879 2334.84 158.629C2329.8 156.004 2324.29 154.691 2318.3 154.691C2299.41 154.691 2284.61 167.067 2273.9 191.817C2263.51 216.193 2258.32 248.256 2258.32 288.007C2258.32 328.133 2264.3 357.009 2276.27 374.634C2288.23 392.26 2303.19 401.073 2321.14 401.073C2331.84 401.073 2342.55 397.697 2353.26 390.947C2364.28 384.197 2374.2 372.384 2383.01 355.509L2391.04 358.884C2384.75 383.26 2373.73 404.26 2357.98 421.886C2342.24 439.136 2321.93 447.761 2297.05 447.761C2264.61 447.761 2238.16 435.011 2217.69 409.51C2197.23 384.01 2186.99 346.134 2186.99 295.882C2186.99 262.882 2192.03 234.756 2202.11 211.505C2212.18 188.255 2226.04 170.817 2243.67 159.191C2261.31 147.191 2281.46 141.191 2304.13 141.191Z" fill="#3C3C3C"/>
<path d="M2124.9 14.7982C2117.35 6.92295 2106.96 2.98535 2093.73 2.98535C2080.5 2.98535 2069.96 6.92295 2062.08 14.7982C2054.53 22.2983 2050.75 32.7986 2050.75 46.2989C2050.75 59.7993 2054.53 70.487 2062.08 78.3622C2069.96 85.8624 2080.5 89.6125 2093.73 89.6125C2106.96 89.6125 2117.35 85.8624 2124.9 78.3622C2132.78 70.487 2136.71 59.7993 2136.71 46.2989C2136.71 32.7986 2132.78 22.2983 2124.9 14.7982Z" fill="#3C3C3C"/>
<path d="M113.449 35.8213C130.624 35.8213 144.33 37.6856 154.569 41.4142C164.807 45.1427 175.211 50.5492 185.78 57.6335C189.413 59.8706 192.55 61.7349 195.192 63.2264C198.165 64.7178 200.642 65.4635 202.624 65.4635C205.596 65.4635 207.908 63.5992 209.559 59.8707C211.211 55.7692 212.532 49.4306 213.523 40.8549H224.917C223.266 65.8364 222.44 108.342 222.44 168.372H211.046C209.725 148.238 205.596 129.036 198.66 110.766C192.055 92.4958 182.477 77.7679 169.926 66.5821C157.706 55.0235 143.339 49.2442 126.826 49.2442C110.642 49.2442 97.4311 54.4642 87.1926 64.9042C77.2843 74.9714 72.3302 88.7672 72.3302 106.292C72.3302 119.342 74.8073 130.714 79.7614 140.408C84.7155 150.102 91.6513 159.051 100.569 167.254C109.486 175.084 123.193 185.897 141.688 199.693L157.541 211.997C177.027 226.538 192.385 239.216 203.614 250.028C214.844 260.841 223.926 273.519 230.862 288.06C238.128 302.229 241.761 318.821 241.761 337.837C241.761 361.7 236.312 381.834 225.413 398.24C214.514 414.273 199.651 426.391 180.826 434.594C162.33 442.796 141.688 446.898 118.899 446.898C100.404 446.898 85.0458 445.034 72.8256 441.305C60.6054 437.576 49.3761 432.543 39.1376 426.204C31.8715 420.984 26.2569 418.374 22.2936 418.374C19.3211 418.374 17.0092 420.425 15.3578 424.526C13.7064 428.255 12.3853 434.407 11.3945 442.983H0C1.3211 419.493 1.98165 369.157 1.98165 291.975H13.3761C15.6881 333.735 23.9449 367.665 38.1467 393.765C52.3486 419.493 74.1467 432.356 103.541 432.356C121.376 432.356 136.073 426.95 147.633 416.137C159.192 405.324 164.972 389.85 164.972 369.716C164.972 348.836 159.027 330.939 147.137 316.024C135.248 301.11 116.422 284.331 90.6604 265.689C70.844 251.147 54.9908 238.47 43.1009 227.657C31.211 216.844 21.4679 204.167 13.8715 189.625C6.27522 174.711 2.47706 157.56 2.47706 138.171C2.47706 115.799 7.43118 96.9701 17.3394 81.6829C27.578 66.0228 41.1192 54.4642 57.9632 47.007C74.8073 39.5499 93.3027 35.8213 113.449 35.8213Z" fill="#3C3C3C"/>
<path d="M611.885 151.594C628.729 151.594 641.279 151.035 649.536 149.916V161.102C642.6 163.339 636.325 168 630.71 175.084C625.096 182.168 620.141 193.54 615.848 209.2L549.958 440.186C546.325 439.813 540.875 439.627 533.609 439.627C526.674 439.627 521.389 439.813 517.756 440.186L450.38 232.691L395.389 440.186C392.087 439.813 386.802 439.627 379.536 439.627C372.27 439.627 366.821 439.813 363.188 440.186L284.912 192.981C280.949 179.931 276.49 171.542 271.536 167.813C266.582 163.712 261.463 161.661 256.178 161.661V149.916C277.646 152.153 301.096 153.272 326.527 153.272C343.041 153.272 364.509 152.153 390.931 149.916V161.661C380.032 161.661 372.105 162.593 367.151 164.457C362.527 166.322 360.215 170.796 360.215 177.88C360.215 182.728 361.041 187.761 362.692 192.981L407.279 351.26L461.279 149.357L479.609 149.916L497.444 149.357L561.848 363.005L593.059 250.588C597.683 233.063 599.995 218.895 599.995 208.082C599.995 178.999 586.949 163.339 560.857 161.102V149.916C576.38 151.035 593.389 151.594 611.885 151.594Z" fill="#3C3C3C"/>
<path d="M721.553 442.983C700.415 442.983 684.562 436.831 673.993 424.526C663.754 412.222 658.635 396.003 658.635 375.868C658.635 359.09 662.433 345.294 670.03 334.481C677.956 323.295 687.369 314.719 698.268 308.754C709.497 302.788 723.699 296.449 740.874 289.738C759.039 282.654 772.25 276.315 780.507 270.722C789.094 264.756 793.387 256.74 793.387 246.673V203.048C793.387 187.388 790.085 175.27 783.479 166.695C777.204 157.746 767.296 153.272 753.754 153.272C737.901 153.272 725.846 157.746 717.589 166.695C726.837 170.423 733.938 176.016 738.892 183.473C744.176 190.93 746.819 199.693 746.819 209.76C746.819 222.437 743.02 232.504 735.424 239.961C727.828 247.419 718.58 251.147 707.681 251.147C696.121 251.147 687.204 247.046 680.929 238.843C674.653 230.64 671.516 220.386 671.516 208.082C671.516 197.642 673.663 188.88 677.956 181.795C682.58 174.338 689.516 167.44 698.764 161.102C707.681 155.136 718.58 150.475 731.461 147.12C744.672 143.764 759.039 142.086 774.562 142.086C790.745 142.086 804.782 143.95 816.672 147.679C828.562 151.407 838.47 157.746 846.396 166.695C853.663 174.898 858.452 184.965 860.763 196.896C863.406 208.828 864.727 225.047 864.727 245.554V397.68C864.727 406.629 865.387 412.968 866.708 416.696C868.36 420.425 871.332 422.289 875.626 422.289C880.58 422.289 886.525 419.12 893.461 412.781L898.415 422.289C883.552 436.085 865.387 442.983 843.919 442.983C825.754 442.983 813.039 438.881 805.773 430.678C798.507 422.476 794.708 411.476 794.378 397.68C777.864 427.882 753.589 442.983 721.553 442.983ZM759.699 407.188C772.58 407.188 783.809 399.545 793.387 384.258V269.604C789.424 277.061 781.002 285.264 768.121 294.212C755.241 303.534 745.497 312.855 738.892 322.177C732.286 331.498 728.984 344.921 728.984 362.445C728.984 377.733 731.791 389.105 737.406 396.562C743.02 403.646 750.452 407.188 759.699 407.188Z" fill="#3C3C3C"/>
<path d="M1090.43 142.086C1107.6 142.086 1122.79 147.306 1136 157.746C1149.54 168.186 1160.11 183.846 1167.71 204.726C1175.31 225.606 1179.1 251.147 1179.1 281.349C1179.1 334.667 1168.7 375.682 1147.89 404.392C1127.42 432.729 1099.51 446.898 1064.17 446.898C1054.26 446.898 1044.85 445.406 1035.93 442.424C1027.34 439.441 1019.91 434.966 1013.64 429.001V522.987C1013.64 539.393 1017.27 550.765 1024.54 557.104C1031.8 563.443 1043.03 566.612 1058.22 566.612V578.357L1044.85 577.798C1008.19 576.679 984.903 576.12 974.995 576.12C965.086 576.12 944.279 576.865 912.573 578.357V566.612C923.472 566.612 931.068 563.815 935.362 558.223C939.985 553.003 942.297 543.122 942.297 528.58V210.878C942.297 193.727 939.82 181.236 934.866 173.406C930.242 165.576 922.151 161.661 910.591 161.661V149.916C921.16 151.035 931.398 151.594 941.307 151.594C970.04 151.594 994.151 148.984 1013.64 143.764V195.218C1020.57 178.067 1030.65 165.017 1043.86 156.068C1057.07 146.747 1072.59 142.086 1090.43 142.086ZM1044.85 431.797C1065.99 431.797 1081.18 420.052 1090.43 396.562C1099.67 372.699 1104.3 338.023 1104.3 292.534C1104.3 247.046 1100.5 214.607 1092.9 195.218C1085.64 175.83 1075.07 166.135 1061.2 166.135C1049.97 166.135 1039.89 170.423 1030.98 178.999C1022.39 187.575 1016.61 199.506 1013.64 214.793V416.696C1021.56 426.763 1031.97 431.797 1044.85 431.797Z" fill="#3C3C3C"/>
<path d="M1340.3 286.567H1259.7V259.701H1340.3V286.567Z" fill="#3C3C3C"/>
<path d="M2116 143C2102.06 152.841 2092.53 154.534 2069 143C2082.01 237.132 2087.37 385.196 2098.38 578C2104.71 407.271 2106.82 309.281 2116 143Z" fill="#3C3C3C"/>
<path d="M1172.32 540.896C1174.05 545.384 1176.55 547.7 1179.81 547.845V550.016C1176.91 549.799 1173.04 549.691 1168.19 549.691C1161.97 549.691 1157.33 549.799 1154.29 550.016V547.845C1157.04 547.7 1159 547.374 1160.16 546.868C1161.39 546.288 1162 545.275 1162 543.827C1162 542.597 1161.57 540.896 1160.7 538.724L1154.08 520.917H1127.8L1123.35 532.427C1121.91 536.336 1121.18 539.303 1121.18 541.33C1121.18 543.574 1121.94 545.203 1123.46 546.216C1125.05 547.229 1127.44 547.772 1130.63 547.845V550.016C1126.5 549.799 1122.34 549.691 1118.14 549.691C1114.89 549.691 1112.17 549.799 1110 550.016V547.845C1113.62 546.976 1116.48 543.827 1118.58 538.398L1144.09 472.6H1145.83L1172.32 540.896ZM1153.21 518.746L1141.05 486.281L1128.67 518.746H1153.21Z" fill="#3C3C3C"/>
<path d="M1209.43 492.579C1214.28 492.579 1218.48 493.737 1222.03 496.053C1225.43 498.297 1227.13 501.084 1227.13 504.414C1227.13 506.296 1226.59 507.78 1225.5 508.865C1224.41 509.951 1223.04 510.494 1221.37 510.494C1219.71 510.494 1218.3 510.024 1217.14 509.083C1215.98 508.069 1215.4 506.73 1215.4 505.065C1215.4 503.545 1215.84 502.278 1216.71 501.265C1217.57 500.179 1218.66 499.455 1219.96 499.093C1219.24 497.79 1217.94 496.705 1216.05 495.836C1214.25 494.967 1212.29 494.533 1210.19 494.533C1207.51 494.533 1205.02 495.402 1202.7 497.139C1200.39 498.804 1198.47 501.627 1196.95 505.608C1195.43 509.517 1194.67 514.692 1194.67 521.135C1194.67 530.11 1196.12 536.661 1199.01 540.787C1201.91 544.841 1205.67 546.868 1210.3 546.868C1213.41 546.868 1216.34 545.963 1219.09 544.153C1221.92 542.343 1224.23 539.52 1226.04 535.684L1228.11 536.444C1226.88 540.57 1224.56 544.117 1221.16 547.085C1217.83 550.052 1213.49 551.536 1208.13 551.536C1203.64 551.536 1199.55 550.378 1195.86 548.062C1192.24 545.746 1189.38 542.416 1187.29 538.073C1185.19 533.657 1184.14 528.554 1184.14 522.763C1184.14 516.9 1185.19 511.688 1187.29 507.128C1189.46 502.568 1192.46 499.021 1196.3 496.488C1200.13 493.882 1204.51 492.579 1209.43 492.579Z" fill="#3C3C3C"/>
<path d="M1252.57 494.207H1268.64V496.379H1252.57V538.398C1252.57 541.656 1253.15 544.008 1254.31 545.456C1255.54 546.904 1257.27 547.628 1259.52 547.628C1261.76 547.628 1263.68 546.723 1265.27 544.913C1266.86 543.104 1268.2 540.136 1269.29 536.01L1271.46 536.553C1269.65 546.542 1264.94 551.536 1257.34 551.536C1254.88 551.536 1252.86 551.247 1251.27 550.668C1249.67 550.089 1248.26 549.184 1247.03 547.953C1245.44 546.361 1244.32 544.406 1243.67 542.09C1243.09 539.774 1242.8 536.661 1242.8 532.752V496.379H1232.38V494.207H1242.8V477.595C1246.85 477.45 1250.11 476.944 1252.57 476.075V494.207Z" fill="#3C3C3C"/>
<path d="M1336.37 471.623C1340.64 471.623 1344.15 472.239 1346.9 473.469C1349.65 474.627 1352.66 476.364 1355.91 478.681C1356.86 479.405 1357.58 479.767 1358.09 479.767C1359.46 479.767 1360.37 477.559 1360.8 473.143H1363.3C1363.01 477.848 1362.86 486.173 1362.86 498.116H1360.37C1359.71 494.28 1359.03 491.131 1358.3 488.67C1357.58 486.136 1356.46 483.929 1354.94 482.047C1352.84 479.441 1350.09 477.378 1346.69 475.858C1343.36 474.338 1339.85 473.578 1336.16 473.578C1331.38 473.578 1327.18 475.134 1323.56 478.246C1319.94 481.359 1317.16 485.811 1315.2 491.602C1313.25 497.32 1312.27 504.016 1312.27 511.688C1312.27 524.718 1314.33 534.273 1318.46 540.353C1322.66 546.361 1329.21 549.365 1338.11 549.365C1342.45 549.365 1346.22 548.243 1349.4 545.999C1350.7 545.13 1351.54 544.298 1351.9 543.502C1352.33 542.633 1352.55 541.475 1352.55 540.027V529.604C1352.55 526.564 1352.26 524.356 1351.68 522.98C1351.1 521.605 1350.09 520.664 1348.64 520.157C1347.19 519.651 1344.84 519.325 1341.58 519.18V517.009C1345.35 517.226 1350.45 517.334 1356.89 517.334C1361.81 517.334 1365.58 517.226 1368.18 517.009V519.18C1366.52 519.325 1365.29 519.615 1364.49 520.049C1363.77 520.483 1363.26 521.316 1362.97 522.546C1362.75 523.777 1362.65 525.767 1362.65 528.518V550.016H1360.47C1360.4 548.569 1360.11 547.193 1359.61 545.89C1359.1 544.515 1358.41 543.827 1357.54 543.827C1357.11 543.827 1356.67 543.936 1356.24 544.153C1355.81 544.37 1355.05 544.877 1353.96 545.673C1351.43 547.628 1348.79 549.075 1346.04 550.016C1343.36 551.03 1340.35 551.536 1337.02 551.536C1329.57 551.536 1323.16 550.016 1317.81 546.976C1312.53 543.864 1308.47 539.412 1305.65 533.621C1302.83 527.83 1301.42 520.917 1301.42 512.883C1301.42 504.631 1302.9 497.392 1305.87 491.167C1308.91 484.87 1313.07 480.056 1318.35 476.726C1323.63 473.324 1329.64 471.623 1336.37 471.623Z" fill="#3C3C3C"/>
<path d="M1408.8 492.579C1411.69 492.579 1414.05 493.411 1415.86 495.076C1417.74 496.741 1418.68 498.768 1418.68 501.156C1418.68 503.038 1418.1 504.667 1416.94 506.042C1415.86 507.345 1414.37 507.997 1412.49 507.997C1410.9 507.997 1409.52 507.49 1408.36 506.477C1407.28 505.463 1406.74 504.088 1406.74 502.351C1406.74 499.962 1407.97 498.008 1410.43 496.488C1409.92 495.764 1409.16 495.402 1408.15 495.402C1405.33 495.402 1402.76 496.524 1400.44 498.768C1398.12 500.939 1396.31 503.617 1395.01 506.802C1393.71 509.987 1393.06 512.991 1393.06 515.814V538.833C1393.06 542.163 1394 544.479 1395.88 545.782C1397.83 547.085 1400.73 547.736 1404.57 547.736V550.016L1401.96 549.908C1394.58 549.691 1389.87 549.582 1387.85 549.582C1385.96 549.582 1381.69 549.727 1375.04 550.016V547.736C1378.08 547.736 1380.21 547.193 1381.44 546.107C1382.67 544.949 1383.29 542.886 1383.29 539.919V505.934C1383.29 502.604 1382.67 500.179 1381.44 498.659C1380.21 497.139 1378.08 496.379 1375.04 496.379V494.099C1377.35 494.316 1379.6 494.425 1381.77 494.425C1386.33 494.425 1390.09 493.918 1393.06 492.904V506.477C1394.36 502.857 1396.42 499.636 1399.25 496.813C1402.14 493.99 1405.32 492.579 1408.8 492.579Z" fill="#3C3C3C"/>
<path d="M1468.38 536.987C1467.07 540.968 1464.61 544.406 1460.99 547.302C1457.45 550.125 1453.14 551.536 1448.08 551.536C1442.94 551.536 1438.49 550.378 1434.72 548.062C1430.96 545.673 1428.06 542.38 1426.04 538.181C1424.08 533.911 1423.11 528.988 1423.11 523.415C1423.11 517.117 1424.12 511.652 1426.15 507.02C1428.17 502.387 1431.03 498.84 1434.72 496.379C1438.41 493.845 1442.72 492.579 1447.64 492.579C1454.16 492.579 1459.15 494.569 1462.62 498.55C1466.17 502.459 1467.94 508.431 1467.94 516.466H1433.96C1433.75 518.493 1433.64 520.809 1433.64 523.415C1433.64 528.192 1434.4 532.354 1435.92 535.901C1437.51 539.448 1439.57 542.199 1442.1 544.153C1444.71 546.035 1447.42 546.976 1450.25 546.976C1453.72 546.976 1456.8 546.144 1459.47 544.479C1462.15 542.814 1464.4 540.027 1466.21 536.118L1468.38 536.987ZM1447.21 494.642C1443.81 494.642 1440.87 496.307 1438.41 499.636C1435.95 502.966 1434.43 507.888 1433.85 514.403H1457.52C1457.67 508.757 1456.83 504.052 1455.02 500.288C1453.29 496.524 1450.68 494.642 1447.21 494.642Z" fill="#3C3C3C"/>
<path d="M1523.3 536.987C1521.99 540.968 1519.53 544.406 1515.91 547.302C1512.37 550.125 1508.06 551.536 1502.99 551.536C1497.86 551.536 1493.4 550.378 1489.64 548.062C1485.88 545.673 1482.98 542.38 1480.96 538.181C1479 533.911 1478.02 528.988 1478.02 523.415C1478.02 517.117 1479.04 511.652 1481.06 507.02C1483.09 502.387 1485.95 498.84 1489.64 496.379C1493.33 493.845 1497.64 492.579 1502.56 492.579C1509.07 492.579 1514.07 494.569 1517.54 498.55C1521.09 502.459 1522.86 508.431 1522.86 516.466H1488.88C1488.66 518.493 1488.55 520.809 1488.55 523.415C1488.55 528.192 1489.31 532.354 1490.83 535.901C1492.43 539.448 1494.49 542.199 1497.02 544.153C1499.63 546.035 1502.34 546.976 1505.17 546.976C1508.64 546.976 1511.72 546.144 1514.39 544.479C1517.07 542.814 1519.31 540.027 1521.12 536.118L1523.3 536.987ZM1502.13 494.642C1498.72 494.642 1495.79 496.307 1493.33 499.636C1490.87 502.966 1489.35 507.888 1488.77 514.403H1512.44C1512.58 508.757 1511.75 504.052 1509.94 500.288C1508.21 496.524 1505.6 494.642 1502.13 494.642Z" fill="#3C3C3C"/>
<path d="M1567.57 492.579C1572.64 492.579 1576.48 493.954 1579.08 496.705C1580.46 498.152 1581.43 499.962 1582.01 502.134C1582.59 504.305 1582.88 507.237 1582.88 510.928V539.919C1582.88 542.886 1583.5 544.949 1584.73 546.107C1585.96 547.193 1588.09 547.736 1591.13 547.736V550.016C1584.47 549.727 1580.13 549.582 1578.11 549.582C1576.08 549.582 1572.03 549.727 1565.95 550.016V547.736C1568.62 547.736 1570.47 547.193 1571.48 546.107C1572.57 544.949 1573.11 542.886 1573.11 539.919V508.54C1573.11 504.486 1572.53 501.41 1571.37 499.311C1570.22 497.139 1567.86 496.053 1564.32 496.053C1561.35 496.053 1558.71 496.922 1556.39 498.659C1554.08 500.396 1552.27 502.785 1550.96 505.825C1549.73 508.793 1549.12 512.123 1549.12 515.814V539.919C1549.12 542.886 1549.63 544.949 1550.64 546.107C1551.72 547.193 1553.61 547.736 1556.28 547.736V550.016C1550.2 549.727 1546.15 549.582 1544.12 549.582C1542.1 549.582 1537.76 549.727 1531.1 550.016V547.736C1534.14 547.736 1536.27 547.193 1537.5 546.107C1538.73 544.949 1539.35 542.886 1539.35 539.919V505.934C1539.35 502.604 1538.73 500.179 1537.5 498.659C1536.27 497.139 1534.14 496.379 1531.1 496.379V494.099C1533.41 494.316 1535.66 494.425 1537.83 494.425C1542.39 494.425 1546.15 493.918 1549.12 492.904V505.717C1550.93 501.084 1553.43 497.754 1556.61 495.727C1559.87 493.628 1563.52 492.579 1567.57 492.579Z" fill="#3C3C3C"/>
<path d="M1606.41 537.638C1609.23 537.638 1611.36 538.797 1612.81 541.113C1614.04 543.067 1614.66 545.456 1614.66 548.279C1614.66 551.898 1613.72 555.156 1611.83 558.051C1610.02 560.946 1607.24 563.263 1603.47 565L1602.5 563.046C1604.74 562.105 1606.66 560.621 1608.25 558.594C1609.92 556.567 1610.75 554.504 1610.75 552.405C1610.75 551.536 1610.64 550.776 1610.42 550.125C1609.26 551.066 1607.93 551.536 1606.41 551.536C1604.45 551.536 1602.79 550.921 1601.41 549.691C1600.11 548.388 1599.46 546.687 1599.46 544.587C1599.46 542.633 1600.11 541.004 1601.41 539.701C1602.79 538.326 1604.45 537.638 1606.41 537.638Z" fill="#3C3C3C"/>
<path d="M1688.67 509.408C1696.63 510.494 1702.32 512.81 1705.72 516.357C1709.12 519.832 1710.82 524.03 1710.82 528.952C1710.82 533.078 1709.77 536.734 1707.67 539.919C1705.57 543.104 1702.57 545.601 1698.66 547.41C1694.75 549.148 1690.12 550.016 1684.76 550.016C1682.81 550.016 1681.15 549.98 1679.77 549.908C1675.14 549.763 1670.58 549.691 1666.09 549.691C1660.16 549.691 1655.67 549.799 1652.63 550.016V547.845C1655.23 547.7 1657.12 547.41 1658.27 546.976C1659.5 546.542 1660.34 545.709 1660.77 544.479C1661.21 543.248 1661.42 541.258 1661.42 538.507V484.653C1661.42 481.902 1661.21 479.911 1660.77 478.681C1660.34 477.45 1659.5 476.618 1658.27 476.184C1657.12 475.749 1655.23 475.46 1652.63 475.315V473.143C1655.67 473.36 1660.08 473.469 1665.87 473.469L1677.6 473.36C1678.97 473.288 1680.53 473.252 1682.27 473.252C1689.65 473.252 1695.29 474.808 1699.2 477.921C1703.18 481.033 1705.17 485.159 1705.17 490.299C1705.17 494.497 1703.84 498.261 1701.16 501.591C1698.55 504.92 1694.39 507.454 1688.67 509.191V509.408ZM1679.55 475.315C1677.31 475.315 1675.61 475.568 1674.45 476.075C1673.36 476.582 1672.6 477.486 1672.17 478.789C1671.74 480.092 1671.52 482.047 1671.52 484.653V509.191H1678.79C1684.73 509.191 1688.85 507.599 1691.17 504.414C1693.56 501.156 1694.75 496.849 1694.75 491.493C1694.75 486.064 1693.56 482.01 1691.17 479.332C1688.78 476.654 1684.91 475.315 1679.55 475.315ZM1679.66 547.519C1693.2 547.519 1699.96 541.185 1699.96 528.518C1699.96 522.799 1698.41 518.456 1695.29 515.489C1692.25 512.521 1687.37 511.037 1680.64 511.037H1671.52V538.507C1671.52 541.113 1671.74 543.031 1672.17 544.262C1672.6 545.492 1673.36 546.361 1674.45 546.868C1675.61 547.302 1677.35 547.519 1679.66 547.519Z" fill="#3C3C3C"/>
<path d="M1765.98 536.987C1764.67 540.968 1762.21 544.406 1758.59 547.302C1755.05 550.125 1750.74 551.536 1745.67 551.536C1740.53 551.536 1736.08 550.378 1732.32 548.062C1728.56 545.673 1725.66 542.38 1723.64 538.181C1721.68 533.911 1720.7 528.988 1720.7 523.415C1720.7 517.117 1721.72 511.652 1723.74 507.02C1725.77 502.387 1728.63 498.84 1732.32 496.379C1736.01 493.845 1740.32 492.579 1745.24 492.579C1751.75 492.579 1756.75 494.569 1760.22 498.55C1763.77 502.459 1765.54 508.431 1765.54 516.466H1731.56C1731.34 518.493 1731.23 520.809 1731.23 523.415C1731.23 528.192 1731.99 532.354 1733.51 535.901C1735.11 539.448 1737.17 542.199 1739.7 544.153C1742.31 546.035 1745.02 546.976 1747.85 546.976C1751.32 546.976 1754.4 546.144 1757.07 544.479C1759.75 542.814 1761.99 540.027 1763.8 536.118L1765.98 536.987ZM1744.81 494.642C1741.4 494.642 1738.47 496.307 1736.01 499.636C1733.55 502.966 1732.03 507.888 1731.45 514.403H1755.12C1755.26 508.757 1754.43 504.052 1752.62 500.288C1750.88 496.524 1748.28 494.642 1744.81 494.642Z" fill="#3C3C3C"/>
<path d="M1837.94 471.623C1842.28 471.623 1845.97 472.239 1849.01 473.469C1852.05 474.7 1855.02 476.437 1857.92 478.681C1858.71 479.332 1859.4 479.658 1859.98 479.658C1861.43 479.658 1862.37 477.486 1862.8 473.143H1865.3C1865.01 477.848 1864.86 486.173 1864.86 498.116H1862.37C1861.57 493.411 1860.85 490.045 1860.2 488.018C1859.55 485.919 1858.46 483.929 1856.94 482.047C1854.77 479.224 1851.98 477.125 1848.58 475.749C1845.25 474.301 1841.63 473.578 1837.72 473.578C1833.02 473.578 1828.89 475.134 1825.35 478.246C1821.87 481.359 1819.16 485.811 1817.2 491.602C1815.25 497.32 1814.27 504.052 1814.27 511.797C1814.27 519.687 1815.32 526.455 1817.42 532.101C1819.52 537.747 1822.42 542.054 1826.11 545.022C1829.87 547.917 1834.1 549.365 1838.81 549.365C1842.43 549.365 1845.94 548.677 1849.34 547.302C1852.74 545.927 1855.42 543.864 1857.37 541.113C1858.82 539.086 1859.87 536.915 1860.52 534.598C1861.17 532.282 1861.79 528.735 1862.37 523.958H1864.86C1864.86 536.408 1865.01 545.094 1865.3 550.016H1862.8C1862.58 547.7 1862.26 546.071 1861.82 545.13C1861.46 544.117 1860.92 543.61 1860.2 543.61C1859.62 543.61 1858.86 543.9 1857.92 544.479C1854.66 546.795 1851.55 548.569 1848.58 549.799C1845.61 550.957 1842.03 551.536 1837.83 551.536C1830.96 551.536 1824.91 549.98 1819.7 546.868C1814.56 543.755 1810.55 539.267 1807.65 533.404C1804.83 527.468 1803.42 520.411 1803.42 512.231C1803.42 504.269 1804.86 497.211 1807.76 491.059C1810.73 484.906 1814.82 480.128 1820.03 476.726C1825.31 473.324 1831.28 471.623 1837.94 471.623Z" fill="#3C3C3C"/>
<path d="M1892.6 505.608C1894.41 501.048 1896.91 497.754 1900.09 495.727C1903.35 493.628 1907 492.579 1911.06 492.579C1916.12 492.579 1919.96 493.954 1922.56 496.705C1923.94 498.152 1924.92 499.962 1925.5 502.134C1926.07 504.305 1926.36 507.237 1926.36 510.928V539.919C1926.36 542.886 1926.98 544.949 1928.21 546.107C1929.44 547.193 1931.58 547.736 1934.61 547.736V550.016C1927.96 549.727 1923.61 549.582 1921.59 549.582C1919.56 549.582 1915.51 549.727 1909.43 550.016V547.736C1912.11 547.736 1913.95 547.193 1914.96 546.107C1916.05 544.949 1916.59 542.886 1916.59 539.919V508.54C1916.59 504.486 1916.01 501.41 1914.86 499.311C1913.7 497.139 1911.35 496.053 1907.8 496.053C1904.83 496.053 1902.19 496.886 1899.87 498.55C1897.63 500.215 1895.86 502.568 1894.55 505.608C1893.25 508.576 1892.6 511.942 1892.6 515.706V539.919C1892.6 542.886 1893.11 544.949 1894.12 546.107C1895.21 547.193 1897.09 547.736 1899.77 547.736V550.016C1893.69 549.727 1889.63 549.582 1887.61 549.582C1885.58 549.582 1881.24 549.727 1874.58 550.016V547.736C1877.62 547.736 1879.75 547.193 1880.98 546.107C1882.21 544.949 1882.83 542.886 1882.83 539.919V478.029C1882.83 474.7 1882.21 472.275 1880.98 470.755C1879.75 469.235 1877.62 468.474 1874.58 468.474V466.194C1876.89 466.412 1879.14 466.52 1881.31 466.52C1885.87 466.52 1889.63 466.013 1892.6 465V505.608Z" fill="#3C3C3C"/>
<path d="M1951.76 466.954C1953.64 466.954 1955.27 467.642 1956.64 469.017C1958.02 470.393 1958.7 472.021 1958.7 473.903C1958.7 475.785 1958.02 477.414 1956.64 478.789C1955.27 480.165 1953.64 480.852 1951.76 480.852C1949.87 480.852 1948.25 480.165 1946.87 478.789C1945.5 477.414 1944.81 475.785 1944.81 473.903C1944.81 472.021 1945.5 470.393 1946.87 469.017C1948.25 467.642 1949.87 466.954 1951.76 466.954ZM1957.4 539.919C1957.4 542.886 1958.02 544.949 1959.25 546.107C1960.48 547.193 1962.61 547.736 1965.65 547.736V550.016C1958.99 549.727 1954.62 549.582 1952.52 549.582C1950.42 549.582 1946.04 549.727 1939.38 550.016V547.736C1942.42 547.736 1944.55 547.193 1945.79 546.107C1947.02 544.949 1947.63 542.886 1947.63 539.919V505.934C1947.63 502.604 1947.02 500.179 1945.79 498.659C1944.55 497.139 1942.42 496.379 1939.38 496.379V494.099C1941.7 494.316 1943.94 494.425 1946.11 494.425C1950.67 494.425 1954.43 493.918 1957.4 492.904V539.919Z" fill="#3C3C3C"/>
<path d="M1998.33 492.579C2003.18 492.579 2007.37 493.737 2010.92 496.053C2014.32 498.297 2016.02 501.084 2016.02 504.414C2016.02 506.296 2015.48 507.78 2014.39 508.865C2013.31 509.951 2011.93 510.494 2010.27 510.494C2008.6 510.494 2007.19 510.024 2006.04 509.083C2004.88 508.069 2004.3 506.73 2004.3 505.065C2004.3 503.545 2004.73 502.278 2005.6 501.265C2006.47 500.179 2007.55 499.455 2008.86 499.093C2008.13 497.79 2006.83 496.705 2004.95 495.836C2003.14 494.967 2001.19 494.533 1999.09 494.533C1996.41 494.533 1993.91 495.402 1991.6 497.139C1989.28 498.804 1987.36 501.627 1985.84 505.608C1984.32 509.517 1983.56 514.692 1983.56 521.135C1983.56 530.11 1985.01 536.661 1987.9 540.787C1990.8 544.841 1994.56 546.868 1999.2 546.868C2002.31 546.868 2005.24 545.963 2007.99 544.153C2010.81 542.343 2013.13 539.52 2014.94 535.684L2017 536.444C2015.77 540.57 2013.45 544.117 2010.05 547.085C2006.72 550.052 2002.38 551.536 1997.02 551.536C1992.54 551.536 1988.45 550.378 1984.76 548.062C1981.14 545.746 1978.28 542.416 1976.18 538.073C1974.08 533.657 1973.03 528.554 1973.03 522.763C1973.03 516.9 1974.08 511.688 1976.18 507.128C1978.35 502.568 1981.35 499.021 1985.19 496.488C1989.03 493.882 1993.41 492.579 1998.33 492.579Z" fill="#3C3C3C"/>
<path d="M1336.37 471.623C1340.64 471.623 1344.15 472.238 1346.9 473.469C1349.65 474.627 1352.66 476.364 1355.91 478.681C1356.86 479.404 1357.58 479.766 1358.09 479.766C1359.46 479.766 1360.37 477.559 1360.8 473.143H1363.3C1363.01 477.848 1362.86 486.172 1362.86 498.116H1360.37C1359.71 494.28 1359.03 491.131 1358.3 488.67C1357.58 486.136 1356.46 483.929 1354.94 482.047C1352.84 479.441 1350.09 477.378 1346.69 475.858C1343.36 474.337 1339.85 473.577 1336.16 473.577C1331.38 473.577 1327.18 475.134 1323.56 478.246C1319.94 481.359 1317.16 485.811 1315.2 491.601C1313.25 497.32 1312.27 504.015 1312.27 511.688C1312.27 524.718 1314.33 534.272 1318.46 540.353C1322.66 546.361 1329.21 549.365 1338.11 549.365C1342.45 549.365 1346.22 548.243 1349.4 545.999C1350.7 545.13 1351.54 544.298 1351.9 543.501C1352.33 542.633 1352.55 541.475 1352.55 540.027V529.604C1352.55 526.563 1352.26 524.356 1351.68 522.98C1351.1 521.605 1350.09 520.664 1348.64 520.157C1347.19 519.651 1344.84 519.325 1341.58 519.18V517.009C1345.35 517.226 1350.45 517.334 1356.89 517.334C1361.81 517.334 1365.58 517.226 1368.18 517.009V519.18C1366.52 519.325 1365.29 519.614 1364.49 520.049C1363.77 520.483 1363.26 521.315 1362.97 522.546C1362.75 523.777 1362.65 525.767 1362.65 528.518V550.016H1360.47C1360.4 548.568 1360.11 547.193 1359.61 545.89C1359.1 544.515 1358.41 543.827 1357.54 543.827C1357.11 543.827 1356.67 543.936 1356.24 544.153C1355.81 544.37 1355.05 544.877 1353.96 545.673C1351.43 547.627 1348.79 549.075 1346.04 550.016C1343.36 551.029 1340.35 551.536 1337.02 551.536C1329.57 551.536 1323.16 550.016 1317.81 546.976C1312.53 543.863 1308.47 539.412 1305.65 533.621C1302.83 527.83 1301.42 520.917 1301.42 512.883C1301.42 504.631 1302.9 497.392 1305.87 491.167C1308.91 484.87 1313.07 480.056 1318.35 476.726C1323.63 473.324 1329.64 471.623 1336.37 471.623Z" fill="#7EBC63"/>
<path d="M1408.8 492.579C1411.69 492.579 1414.05 493.411 1415.86 495.076C1417.74 496.741 1418.68 498.767 1418.68 501.156C1418.68 503.038 1418.1 504.667 1416.94 506.042C1415.86 507.345 1414.37 507.997 1412.49 507.997C1410.9 507.997 1409.52 507.49 1408.36 506.476C1407.28 505.463 1406.74 504.088 1406.74 502.351C1406.74 499.962 1407.97 498.007 1410.43 496.487C1409.92 495.763 1409.16 495.402 1408.15 495.402C1405.33 495.402 1402.76 496.524 1400.44 498.767C1398.12 500.939 1396.31 503.617 1395.01 506.802C1393.71 509.987 1393.06 512.991 1393.06 515.814V538.833C1393.06 542.162 1394 544.479 1395.88 545.782C1397.83 547.085 1400.73 547.736 1404.57 547.736V550.016L1401.96 549.908C1394.58 549.69 1389.87 549.582 1387.85 549.582C1385.96 549.582 1381.69 549.727 1375.04 550.016V547.736C1378.08 547.736 1380.21 547.193 1381.44 546.107C1382.67 544.949 1383.29 542.886 1383.29 539.918V505.934C1383.29 502.604 1382.67 500.179 1381.44 498.659C1380.21 497.139 1378.08 496.379 1375.04 496.379V494.099C1377.35 494.316 1379.6 494.424 1381.77 494.424C1386.33 494.424 1390.09 493.918 1393.06 492.904V506.476C1394.36 502.857 1396.42 499.636 1399.25 496.813C1402.14 493.99 1405.33 492.579 1408.8 492.579Z" fill="#7EBC63"/>
<path d="M1468.38 536.987C1467.07 540.968 1464.61 544.406 1460.99 547.302C1457.45 550.125 1453.14 551.536 1448.08 551.536C1442.94 551.536 1438.49 550.378 1434.72 548.062C1430.96 545.673 1428.06 542.379 1426.04 538.181C1424.08 533.91 1423.11 528.988 1423.11 523.415C1423.11 517.117 1424.12 511.652 1426.15 507.019C1428.17 502.387 1431.03 498.84 1434.72 496.379C1438.41 493.845 1442.72 492.579 1447.64 492.579C1454.16 492.579 1459.15 494.569 1462.62 498.55C1466.17 502.459 1467.94 508.431 1467.94 516.466H1433.96C1433.75 518.492 1433.64 520.809 1433.64 523.415C1433.64 528.192 1434.4 532.354 1435.92 535.901C1437.51 539.448 1439.57 542.199 1442.1 544.153C1444.71 546.035 1447.42 546.976 1450.25 546.976C1453.72 546.976 1456.8 546.143 1459.47 544.479C1462.15 542.814 1464.4 540.027 1466.21 536.118L1468.38 536.987ZM1447.21 494.642C1443.81 494.642 1440.87 496.306 1438.41 499.636C1435.95 502.966 1434.43 507.888 1433.85 514.403H1457.52C1457.67 508.757 1456.83 504.052 1455.02 500.288C1453.29 496.524 1450.68 494.642 1447.21 494.642Z" fill="#7EBC63"/>
<path d="M1523.3 536.987C1521.99 540.968 1519.53 544.406 1515.91 547.302C1512.37 550.125 1508.06 551.536 1502.99 551.536C1497.86 551.536 1493.4 550.378 1489.64 548.062C1485.88 545.673 1482.98 542.379 1480.96 538.181C1479 533.91 1478.02 528.988 1478.02 523.415C1478.02 517.117 1479.04 511.652 1481.06 507.019C1483.09 502.387 1485.95 498.84 1489.64 496.379C1493.33 493.845 1497.64 492.579 1502.56 492.579C1509.07 492.579 1514.07 494.569 1517.54 498.55C1521.09 502.459 1522.86 508.431 1522.86 516.466H1488.88C1488.66 518.492 1488.55 520.809 1488.55 523.415C1488.55 528.192 1489.31 532.354 1490.83 535.901C1492.43 539.448 1494.49 542.199 1497.02 544.153C1499.63 546.035 1502.34 546.976 1505.17 546.976C1508.64 546.976 1511.72 546.143 1514.39 544.479C1517.07 542.814 1519.31 540.027 1521.12 536.118L1523.3 536.987ZM1502.13 494.642C1498.72 494.642 1495.79 496.306 1493.33 499.636C1490.87 502.966 1489.35 507.888 1488.77 514.403H1512.44C1512.58 508.757 1511.75 504.052 1509.94 500.288C1508.21 496.524 1505.6 494.642 1502.13 494.642Z" fill="#7EBC63"/>
<path d="M1567.57 492.579C1572.64 492.579 1576.48 493.954 1579.08 496.704C1580.46 498.152 1581.43 499.962 1582.01 502.133C1582.59 504.305 1582.88 507.237 1582.88 510.928V539.918C1582.88 542.886 1583.5 544.949 1584.73 546.107C1585.96 547.193 1588.09 547.736 1591.13 547.736V550.016C1584.47 549.727 1580.13 549.582 1578.11 549.582C1576.08 549.582 1572.03 549.727 1565.95 550.016V547.736C1568.62 547.736 1570.47 547.193 1571.48 546.107C1572.57 544.949 1573.11 542.886 1573.11 539.918V508.539C1573.11 504.486 1572.53 501.41 1571.37 499.31C1570.22 497.139 1567.86 496.053 1564.32 496.053C1561.35 496.053 1558.71 496.922 1556.39 498.659C1554.08 500.396 1552.27 502.785 1550.96 505.825C1549.73 508.793 1549.12 512.123 1549.12 515.814V539.918C1549.12 542.886 1549.63 544.949 1550.64 546.107C1551.72 547.193 1553.61 547.736 1556.28 547.736V550.016C1550.2 549.727 1546.15 549.582 1544.12 549.582C1542.1 549.582 1537.76 549.727 1531.1 550.016V547.736C1534.14 547.736 1536.27 547.193 1537.5 546.107C1538.73 544.949 1539.35 542.886 1539.35 539.918V505.934C1539.35 502.604 1538.73 500.179 1537.5 498.659C1536.27 497.139 1534.14 496.379 1531.1 496.379V494.099C1533.41 494.316 1535.66 494.424 1537.83 494.424C1542.39 494.424 1546.15 493.918 1549.12 492.904V505.716C1550.93 501.084 1553.43 497.754 1556.61 495.727C1559.87 493.628 1563.52 492.579 1567.57 492.579Z" fill="#7EBC63"/>
</svg>
