<svg width="2392" height="579" viewBox="0 0 2392 579" fill="none" xmlns="http://www.w3.org/2000/svg">
<path d="M1588.11 33.7508C1607 33.7508 1623.06 36.9384 1636.28 43.3136C1649.51 49.6888 1662.42 58.689 1675.02 70.3143C1678.48 73.6894 1681.47 75.3769 1683.99 75.3769C1690.29 75.3769 1694.38 64.1266 1696.27 41.6261H1707.14C1705.88 67.1267 1705.25 112.503 1705.25 177.754H1694.38C1691.55 150.004 1687.77 128.816 1683.05 114.19C1678.32 99.565 1670.29 86.8147 1658.96 75.9394C1651.08 66.9392 1641.95 60.189 1631.56 55.6889C1621.17 50.8138 1610.31 48.3762 1598.97 48.3762C1567.16 48.3762 1543.55 66.9392 1528.12 104.065C1512.69 140.816 1504.97 186.755 1504.97 241.881C1504.97 296.632 1513 342.384 1529.06 379.135C1545.12 415.885 1569.05 434.261 1600.86 434.261C1611.56 434.261 1622.11 432.011 1632.51 427.511C1643.21 422.636 1652.19 415.698 1659.43 406.698C1671.08 396.197 1679.11 383.072 1683.52 367.322C1688.24 351.571 1691.86 328.508 1694.38 298.132H1705.25C1705.25 366.009 1705.88 413.26 1707.14 439.886H1696.27C1695.33 427.886 1693.91 419.448 1692.02 414.573C1690.45 409.323 1688.08 406.698 1684.94 406.698C1682.42 406.698 1679.11 408.198 1675.02 411.198C1660.85 423.198 1647.31 432.386 1634.39 438.761C1621.48 444.761 1605.9 447.761 1587.63 447.761C1554.25 447.761 1524.97 439.699 1499.78 423.573C1474.9 407.448 1455.53 384.197 1441.68 353.821C1427.82 323.071 1420.9 286.507 1420.9 244.131C1420.9 202.88 1427.98 166.317 1442.15 134.441C1456.32 102.565 1476 77.8145 1501.19 60.189C1526.7 42.5636 1555.67 33.7508 1588.11 33.7508Z" fill="#3C3C3C"/>
<path d="M1840.85 193.505C1855.02 158.629 1880.68 141.191 1917.84 141.191C1942.4 141.191 1959.72 148.504 1969.8 163.129C1975.15 170.254 1978.93 179.63 1981.13 191.255C1983.65 202.505 1984.91 217.505 1984.91 236.256V387.572C1984.91 402.948 1987.11 413.635 1991.52 419.636C1995.93 425.261 2003.8 428.073 2015.14 428.073V439.886C1982.39 438.386 1961.61 437.636 1952.79 437.636C1942.08 437.636 1921.62 438.386 1891.39 439.886V428.073C1900.83 428.073 1907.45 425.261 1911.22 419.636C1915 413.635 1916.89 402.948 1916.89 387.572V212.63C1916.89 197.255 1914.69 185.63 1910.28 177.754C1906.19 169.879 1898.63 165.942 1887.61 165.942C1874.38 165.942 1863.2 172.129 1854.07 184.505C1845.25 196.505 1840.85 211.88 1840.85 230.631V387.572C1840.85 402.948 1842.74 413.635 1846.51 419.636C1850.29 425.261 1856.91 428.073 1866.35 428.073V439.886C1836.12 438.386 1816.6 437.636 1807.78 437.636C1797.08 437.636 1775.35 438.386 1742.6 439.886V428.073C1753.62 428.073 1761.33 425.261 1765.74 419.636C1770.47 413.635 1772.83 402.948 1772.83 387.572V67.5017C1772.83 50.2513 1770.47 37.6885 1765.74 29.8133C1761.33 21.9381 1753.62 18.0005 1742.6 18.0005V6.18768C1752.68 7.31271 1762.44 7.87523 1771.88 7.87523C1799.28 7.87523 1822.27 5.25015 1840.85 0V193.505Z" fill="#3C3C3C"/>
<path d="M2093.74 3.93761C2106.96 3.93761 2117.35 7.87522 2124.91 15.7504C2132.78 23.2506 2136.72 33.7509 2136.72 47.2512C2136.72 60.7515 2132.78 71.4393 2124.91 79.3145C2117.35 86.8147 2106.96 90.5648 2093.74 90.5648C2080.51 90.5648 2069.96 86.8147 2062.09 79.3145C2054.53 71.4393 2050.75 60.7515 2050.75 47.2512C2050.75 33.7509 2054.53 23.2506 2062.09 15.7504C2069.96 7.87522 2080.51 3.93761 2093.74 3.93761Z" fill="#3C3C3C"/>
<path d="M2304.13 141.191C2315.78 141.191 2326.81 142.691 2337.2 145.691C2347.59 148.691 2356.25 152.816 2363.18 158.066C2371.36 164.067 2377.66 171.754 2382.07 181.13C2386.79 190.13 2389.16 200.068 2389.16 210.943C2389.16 224.068 2385.69 234.943 2378.76 243.569C2371.84 251.819 2362.86 255.944 2351.84 255.944C2340.82 255.944 2332 252.194 2325.39 244.694C2318.78 237.193 2315.47 227.068 2315.47 214.318C2315.47 203.068 2318.46 193.317 2324.44 185.067C2330.43 176.817 2337.83 171.192 2346.64 168.192C2344.13 164.067 2340.19 160.879 2334.84 158.629C2329.8 156.004 2324.29 154.691 2318.3 154.691C2299.41 154.691 2284.61 167.067 2273.9 191.817C2263.51 216.193 2258.32 248.256 2258.32 288.007C2258.32 328.133 2264.3 357.009 2276.27 374.634C2288.23 392.26 2303.19 401.073 2321.14 401.073C2331.84 401.073 2342.55 397.697 2353.26 390.947C2364.28 384.197 2374.2 372.384 2383.01 355.509L2391.04 358.884C2384.75 383.26 2373.73 404.26 2357.98 421.886C2342.24 439.136 2321.93 447.761 2297.05 447.761C2264.61 447.761 2238.16 435.011 2217.69 409.51C2197.23 384.01 2186.99 346.134 2186.99 295.882C2186.99 262.882 2192.03 234.756 2202.11 211.505C2212.18 188.255 2226.04 170.817 2243.67 159.192C2261.31 147.191 2281.46 141.191 2304.13 141.191Z" fill="#3C3C3C"/>
<path d="M2124.9 14.7972C2117.35 6.92198 2106.95 2.98438 2093.73 2.98438C2080.5 2.98438 2069.95 6.92198 2062.08 14.7972C2054.52 22.2974 2050.75 32.7976 2050.75 46.298C2050.75 59.7983 2054.52 70.486 2062.08 78.3613C2069.95 85.8614 2080.5 89.6115 2093.73 89.6115C2106.95 89.6115 2117.35 85.8614 2124.9 78.3613C2132.78 70.486 2136.71 59.7983 2136.71 46.298C2136.71 32.7976 2132.78 22.2974 2124.9 14.7972Z" fill="#3C3C3C"/>
<path d="M113.449 35.8203C130.624 35.8203 144.33 37.6846 154.569 41.4132C164.807 45.1418 175.211 50.5482 185.78 57.6325C189.413 59.8697 192.55 61.734 195.192 63.2254C198.165 64.7168 200.642 65.4626 202.624 65.4626C205.596 65.4626 207.908 63.5983 209.559 59.8697C211.211 55.7682 212.532 49.4297 213.523 40.8539H224.917C223.266 65.8354 222.44 108.341 222.44 168.372H211.046C209.725 148.237 205.596 129.035 198.66 110.765C192.055 92.4948 182.477 77.7669 169.926 66.5811C157.706 55.0225 143.339 49.2432 126.826 49.2432C110.642 49.2432 97.4311 54.4632 87.1926 64.9033C77.2843 74.9705 72.3302 88.7662 72.3302 106.291C72.3302 119.341 74.8073 130.713 79.7614 140.407C84.7155 150.101 91.6513 159.05 100.569 167.253C109.486 175.083 123.193 185.896 141.688 199.692L157.541 211.996C177.027 226.537 192.385 239.215 203.614 250.028C214.844 260.84 223.926 273.518 230.862 288.059C238.128 302.228 241.761 318.82 241.761 337.836C241.761 361.699 236.312 381.833 225.413 398.239C214.514 414.272 199.651 426.39 180.825 434.593C162.33 442.795 141.688 446.897 118.899 446.897C100.404 446.897 85.0458 445.033 72.8256 441.304C60.6054 437.575 49.3761 432.542 39.1376 426.203C31.8715 420.983 26.2569 418.373 22.2936 418.373C19.3211 418.373 17.0092 420.424 15.3578 424.525C13.7064 428.254 12.3853 434.406 11.3945 442.982H0C1.3211 419.492 1.98165 369.156 1.98165 291.974H13.3761C15.6881 333.734 23.9449 367.664 38.1467 393.764C52.3486 419.492 74.1467 432.355 103.541 432.355C121.376 432.355 136.073 426.949 147.633 416.136C159.192 405.323 164.972 389.849 164.972 369.715C164.972 348.835 159.027 330.938 147.137 316.024C135.248 301.109 116.422 284.331 90.6604 265.688C70.844 251.146 54.9908 238.469 43.1009 227.656C31.211 216.843 21.4679 204.166 13.8715 189.624C6.27522 174.71 2.47706 157.559 2.47706 138.17C2.47706 115.798 7.43118 96.9691 17.3394 81.6819C27.578 66.0218 41.1192 54.4632 57.9632 47.0061C74.8073 39.5489 93.3027 35.8203 113.449 35.8203Z" fill="#3C3C3C"/>
<path d="M611.885 151.593C628.729 151.593 641.279 151.034 649.536 149.915V161.101C642.6 163.338 636.325 167.999 630.71 175.083C625.096 182.167 620.141 193.539 615.848 209.2L549.958 440.185C546.325 439.813 540.875 439.626 533.609 439.626C526.674 439.626 521.389 439.813 517.756 440.185L450.38 232.69L395.389 440.185C392.087 439.813 386.802 439.626 379.536 439.626C372.27 439.626 366.821 439.813 363.188 440.185L284.912 192.98C280.949 179.93 276.49 171.541 271.536 167.812C266.582 163.711 261.463 161.66 256.178 161.66V149.915C277.646 152.152 301.096 153.271 326.527 153.271C343.041 153.271 364.509 152.152 390.931 149.915V161.66C380.032 161.66 372.105 162.592 367.151 164.456C362.527 166.321 360.215 170.795 360.215 177.879C360.215 182.727 361.041 187.76 362.692 192.98L407.279 351.259L461.279 149.356L479.609 149.915L497.444 149.356L561.848 363.004L593.059 250.587C597.683 233.062 599.995 218.894 599.995 208.081C599.995 178.998 586.949 163.338 560.857 161.101V149.915C576.38 151.034 593.389 151.593 611.885 151.593Z" fill="#3C3C3C"/>
<path d="M721.553 442.982C700.415 442.982 684.562 436.83 673.993 424.525C663.754 412.221 658.635 396.002 658.635 375.867C658.635 359.089 662.433 345.293 670.03 334.48C677.956 323.294 687.369 314.718 698.268 308.753C709.498 302.787 723.699 296.448 740.874 289.737C759.039 282.653 772.25 276.314 780.507 270.721C789.094 264.755 793.387 256.739 793.387 246.672V203.047C793.387 187.387 790.085 175.269 783.479 166.694C777.204 157.745 767.296 153.271 753.754 153.271C737.901 153.271 725.846 157.745 717.589 166.694C726.837 170.422 733.938 176.015 738.892 183.472C744.176 190.929 746.819 199.692 746.819 209.759C746.819 222.436 743.02 232.503 735.424 239.96C727.828 247.418 718.58 251.146 707.681 251.146C696.121 251.146 687.204 247.045 680.929 238.842C674.653 230.639 671.516 220.385 671.516 208.081C671.516 197.641 673.663 188.879 677.956 181.794C682.58 174.337 689.516 167.439 698.764 161.101C707.681 155.135 718.58 150.474 731.461 147.119C744.672 143.763 759.039 142.085 774.562 142.085C790.745 142.085 804.782 143.949 816.672 147.678C828.562 151.406 838.47 157.745 846.397 166.694C853.663 174.897 858.452 184.964 860.763 196.895C863.406 208.827 864.727 225.046 864.727 245.553V397.679C864.727 406.628 865.387 412.967 866.708 416.695C868.36 420.424 871.332 422.288 875.626 422.288C880.58 422.288 886.525 419.119 893.461 412.78L898.415 422.288C883.552 436.084 865.387 442.982 843.919 442.982C825.754 442.982 813.039 438.88 805.773 430.677C798.507 422.475 794.708 411.475 794.378 397.679C777.864 427.881 753.589 442.982 721.553 442.982ZM759.699 407.187C772.58 407.187 783.809 399.544 793.387 384.257V269.603C789.424 277.06 781.002 285.263 768.121 294.211C755.241 303.533 745.497 312.854 738.892 322.176C732.286 331.497 728.984 344.92 728.984 362.444C728.984 377.732 731.791 389.104 737.406 396.561C743.02 403.645 750.452 407.187 759.699 407.187Z" fill="#3C3C3C"/>
<path d="M1090.43 142.085C1107.6 142.085 1122.79 147.305 1136 157.745C1149.54 168.185 1160.11 183.845 1167.71 204.725C1175.31 225.605 1179.1 251.146 1179.1 281.348C1179.1 334.666 1168.7 375.681 1147.89 404.391C1127.42 432.728 1099.51 446.897 1064.17 446.897C1054.26 446.897 1044.85 445.405 1035.93 442.423C1027.34 439.44 1019.91 434.965 1013.64 429V522.986C1013.64 539.392 1017.27 550.764 1024.54 557.103C1031.8 563.442 1043.03 566.611 1058.22 566.611V578.356L1044.85 577.797C1008.19 576.678 984.903 576.119 974.995 576.119C965.086 576.119 944.279 576.865 912.573 578.356V566.611C923.472 566.611 931.068 563.814 935.362 558.222C939.985 553.002 942.297 543.121 942.297 528.579V210.877C942.297 193.726 939.82 181.235 934.866 173.405C930.242 165.575 922.151 161.66 910.591 161.66V149.915C921.16 151.034 931.398 151.593 941.307 151.593C970.04 151.593 994.151 148.983 1013.64 143.763V195.217C1020.57 178.066 1030.65 165.016 1043.86 156.067C1057.07 146.746 1072.59 142.085 1090.43 142.085ZM1044.85 431.796C1065.99 431.796 1081.18 420.051 1090.43 396.561C1099.67 372.698 1104.3 338.022 1104.3 292.533C1104.3 247.045 1100.5 214.606 1092.9 195.217C1085.64 175.829 1075.07 166.134 1061.2 166.134C1049.97 166.134 1039.89 170.422 1030.98 178.998C1022.39 187.574 1016.61 199.505 1013.64 214.792V416.695C1021.56 426.762 1031.97 431.796 1044.85 431.796Z" fill="#3C3C3C"/>
<path d="M1340.3 286.567H1259.7V259.701H1340.3V286.567Z" fill="#3C3C3C"/>
<path d="M2116 143C2102.06 152.841 2092.53 154.534 2069 143C2082.01 237.132 2087.37 385.196 2098.38 578C2104.71 407.271 2106.82 309.281 2116 143Z" fill="#3C3C3C"/>
</svg>
