<svg width="22" height="17" viewBox="0 0 22 17" fill="none" xmlns="http://www.w3.org/2000/svg">
<path d="M21.3897 0C21.3148 0 21.2376 0.0140402 21.162 0.0440179L14.667 2.42857H14.6667L8.09722 0.124464C7.8479 0.0421311 7.5869 0.000108094 7.32417 0C7.06865 0 6.81351 0.0398437 6.56753 0.119152L0.768472 2.1231C0.541665 2.21323 0.347237 2.3688 0.210264 2.56975C0.0732908 2.77069 5.43204e-05 3.0078 0 3.25049L0 16.3921C0 16.7408 0.287604 17 0.610729 17C0.68559 17 0.762361 16.986 0.838368 16.956L7.33333 14.5714L13.9028 16.8752C14.3989 17.0396 14.9351 17.0416 15.4325 16.8808L21.2315 14.8769C21.4584 14.7868 21.6528 14.6313 21.7898 14.4303C21.9268 14.2293 22 13.9922 22 13.7495V0.607902C22 0.259174 21.7124 0 21.3897 0ZM8.55556 2.21683L13.4444 3.93163V14.7832L8.55556 13.0684V2.21683ZM1.83333 14.6492V3.68346L6.72222 1.99371V12.854L6.69778 12.8627L1.83333 14.6492ZM20.1667 13.3162L15.2778 15.0059V4.14603L15.3022 4.13692L20.1667 2.35078V13.3162Z" fill="#B2895D"/>
</svg>
