<svg width="16" height="11" viewBox="0 0 16 11" fill="none" xmlns="http://www.w3.org/2000/svg">
<path d="M15.6969 3.63229C15.8187 3.54349 16 3.62656 16 3.76693V9.625C16 10.3841 15.3281 11 14.5 11H1.5C0.671875 11 0 10.3841 0 9.625V3.76979C0 3.62656 0.178125 3.54635 0.303125 3.63516C1.00312 4.13359 1.93125 4.76667 5.11875 6.88932C5.77813 7.33047 6.89062 8.25859 8 8.25286C9.11563 8.26146 10.25 7.31328 10.8844 6.88932C14.0719 4.76667 14.9969 4.13073 15.6969 3.63229ZM8 7.33333C8.725 7.34479 9.76875 6.49688 10.2937 6.1474C14.4406 3.3888 14.7562 3.14818 15.7125 2.46068C15.8937 2.33177 16 2.13125 16 1.91927V1.375C16 0.615885 15.3281 0 14.5 0H1.5C0.671875 0 0 0.615885 0 1.375V1.91927C0 2.13125 0.10625 2.32891 0.2875 2.46068C1.24375 3.14531 1.55938 3.3888 5.70625 6.1474C6.23125 6.49688 7.275 7.34479 8 7.33333Z" fill="#D1B176"/>
</svg>
