<svg width="18" height="17" viewBox="0 0 18 17" fill="none" xmlns="http://www.w3.org/2000/svg">
<path d="M7.35714 7.25C9.08426 7.25 10.4821 5.85212 10.4821 4.125C10.4821 2.39788 9.08426 1 7.35714 1C5.63002 1 4.23214 2.39788 4.23214 4.125C4.23214 5.85212 5.63002 7.25 7.35714 7.25ZM9.5 8.14286H9.26842C8.68806 8.42187 8.04353 8.58929 7.35714 8.58929C6.67076 8.58929 6.02902 8.42187 5.44587 8.14286H5.21429C3.43973 8.14286 2 9.58259 2 11.3571V12.1607C2 12.9001 2.59989 13.5 3.33929 13.5H11.375C12.1144 13.5 12.7143 12.9001 12.7143 12.1607V11.3571C12.7143 9.58259 11.2746 8.14286 9.5 8.14286Z" fill="#B2895D"/>
<path d="M16.3838 6.54374L16.055 6.92045L16.3835 6.54349C15.4783 5.75473 14.1812 5.88096 13.3531 6.65443C12.5258 5.88068 11.2275 5.75499 10.3226 6.54349L10.3223 6.54374C9.28193 7.45172 9.2305 9.06772 10.1582 10.0484L10.1584 10.0486L12.6927 12.7245L12.6928 12.7246C13.0537 13.1054 13.651 13.1054 14.012 12.7246L14.0121 12.7245L16.5463 10.0487C16.5463 10.0487 16.5463 10.0486 16.5464 10.0486C17.4756 9.06789 17.4241 7.45173 16.3838 6.54374Z" fill="#B2895D" stroke="#F2F2F2"/>
</svg>
