<svg width="22" height="17" viewBox="0 0 22 17" fill="none" xmlns="http://www.w3.org/2000/svg">
<path d="M7.35714 7.25C9.08426 7.25 10.4821 5.85212 10.4821 4.125C10.4821 2.39788 9.08426 1 7.35714 1C5.63002 1 4.23214 2.39788 4.23214 4.125C4.23214 5.85212 5.63002 7.25 7.35714 7.25ZM9.5 8.14286H9.26842C8.68806 8.42188 8.04353 8.58929 7.35714 8.58929C6.67076 8.58929 6.02902 8.42188 5.44587 8.14286H5.21429C3.43973 8.14286 2 9.58259 2 11.3571V12.1607C2 12.9001 2.59989 13.5 3.33929 13.5H11.375C12.1144 13.5 12.7143 12.9001 12.7143 12.1607V11.3571C12.7143 9.58259 11.2746 8.14286 9.5 8.14286ZM15.3929 7.25C16.8717 7.25 18.0714 6.05022 18.0714 4.57143C18.0714 3.09263 16.8717 1.89286 15.3929 1.89286C13.9141 1.89286 12.7143 3.09263 12.7143 4.57143C12.7143 6.05022 13.9141 7.25 15.3929 7.25ZM16.7321 8.14286H16.6261C16.2383 8.27679 15.8281 8.36607 15.3929 8.36607C14.9576 8.36607 14.5474 8.27679 14.1596 8.14286H14.0536C13.4844 8.14286 12.9598 8.30748 12.4994 8.57254C13.1802 9.30636 13.6071 10.2801 13.6071 11.3571V12.4286C13.6071 12.49 13.5932 12.5485 13.5904 12.6071H18.5179C19.2573 12.6071 19.8571 12.0073 19.8571 11.2679C19.8571 9.54074 18.4593 8.14286 16.7321 8.14286Z" fill="#B2895D"/>
</svg>
