<svg width="22" height="17" viewBox="0 0 22 17" fill="none" xmlns="http://www.w3.org/2000/svg">
<path d="M18.3333 14.5714V15.1786C18.3333 16.1845 17.5125 17 16.5 17H1.83333C0.820799 17 0 16.1845 0 15.1786V5.46429C0 4.45833 0.820799 3.64286 1.83333 3.64286H2.44444V5.46429H2.0625C2.00172 5.46429 1.94343 5.48827 1.90045 5.53097C1.85748 5.57367 1.83333 5.63158 1.83333 5.69196V14.9509C1.83333 15.0113 1.85748 15.0692 1.90045 15.1119C1.94343 15.1546 2.00172 15.1786 2.0625 15.1786H16.2708C16.3316 15.1786 16.3899 15.1546 16.4329 15.1119C16.4759 15.0692 16.5 15.0113 16.5 14.9509V14.5714H18.3333ZM19.9375 1.82143H5.72917C5.66839 1.82143 5.6101 1.84542 5.56712 1.88811C5.52414 1.93081 5.5 1.98872 5.5 2.04911V11.308C5.5 11.3684 5.52414 11.4263 5.56712 11.469C5.6101 11.5117 5.66839 11.5357 5.72917 11.5357H19.9375C19.9983 11.5357 20.0566 11.5117 20.0995 11.469C20.1425 11.4263 20.1667 11.3684 20.1667 11.308V2.04911C20.1667 1.98872 20.1425 1.93081 20.0995 1.88811C20.0566 1.84542 19.9983 1.82143 19.9375 1.82143ZM20.1667 0C21.1792 0 22 0.815469 22 1.82143V11.5357C22 12.5417 21.1792 13.3571 20.1667 13.3571H5.5C4.48747 13.3571 3.66667 12.5417 3.66667 11.5357V1.82143C3.66667 0.815469 4.48747 0 5.5 0H20.1667ZM10.0833 4.25C10.0833 5.08827 9.39931 5.76786 8.55556 5.76786C7.7118 5.76786 7.02778 5.08827 7.02778 4.25C7.02778 3.41173 7.7118 2.73214 8.55556 2.73214C9.39931 2.73214 10.0833 3.41173 10.0833 4.25ZM7.33333 7.89286L8.84259 6.3934C9.02157 6.21559 9.31177 6.21559 9.49078 6.3934L11 7.89286L14.9537 3.96483C15.1327 3.78702 15.4229 3.78702 15.6019 3.96483L18.3333 6.67857V9.71429H7.33333V7.89286Z" fill="#B2895D"/>
</svg>
