<svg width="27" height="27" viewBox="0 0 27 27" fill="none" xmlns="http://www.w3.org/2000/svg">
<path d="M27 2.89286V24.1071C27 25.7042 25.7042 27 24.1071 27H9.30536C9.89598 26.0116 10.6554 24.5893 10.9567 23.4261C11.1375 22.733 11.8788 19.9065 11.8788 19.9065C12.3609 20.8286 13.7712 21.606 15.2719 21.606C19.7377 21.606 22.95 17.5018 22.95 12.4031C22.95 7.5154 18.9603 3.85714 13.8254 3.85714C7.43705 3.85714 4.05 8.14219 4.05 12.8129C4.05 14.9826 5.20714 17.6826 7.05134 18.5444C7.3346 18.677 7.47924 18.6167 7.54554 18.3455C7.59375 18.1406 7.84688 17.1342 7.95536 16.6701C7.99152 16.5194 7.97344 16.3929 7.8529 16.2482C7.2442 15.5069 6.75 14.1449 6.75 12.8732C6.75 9.6067 9.22098 6.44866 13.4337 6.44866C17.0679 6.44866 19.6172 8.92567 19.6172 12.4694C19.6172 16.4712 17.5982 19.2435 14.9645 19.2435C13.5121 19.2435 12.4272 18.0442 12.7708 16.5676C13.1866 14.8078 13.9942 12.9094 13.9942 11.6377C13.9942 8.44353 9.44397 8.88348 9.44397 13.1444C9.44397 14.4522 9.88393 15.3442 9.88393 15.3442C7.99152 23.3478 7.70826 23.4502 8.1 26.9518L8.23259 27H2.89286C1.29576 27 0 25.7042 0 24.1071V2.89286C0 1.29576 1.29576 0 2.89286 0H24.1071C25.7042 0 27 1.29576 27 2.89286Z" fill="#BD081C"/>
</svg>
