<svg width="11" height="13" viewBox="0 0 11 13" fill="none" xmlns="http://www.w3.org/2000/svg">
<path d="M5.46875 6.75C7.19482 6.75 8.59375 5.35107 8.59375 3.625C8.59375 1.89893 7.19482 0.5 5.46875 0.5C3.74268 0.5 2.34375 1.89893 2.34375 3.625C2.34375 5.35107 3.74268 6.75 5.46875 6.75ZM7.65625 7.53125H7.24854C6.70654 7.78027 6.10352 7.92188 5.46875 7.92188C4.83398 7.92188 4.2334 7.78027 3.68897 7.53125H3.28125C1.46973 7.53125 0 9.00098 0 10.8125V11.8281C0 12.4751 0.524902 13 1.17188 13H9.76562C10.4126 13 10.9375 12.4751 10.9375 11.8281V10.8125C10.9375 9.00098 9.46777 7.53125 7.65625 7.53125Z" fill="#1A1A1A"/>
</svg>
