<svg width="16" height="17" viewBox="0 0 16 17" fill="none" xmlns="http://www.w3.org/2000/svg">
<path fill-rule="evenodd" clip-rule="evenodd" d="M2.96042 1L2.91607 1.20245L3.21525 1.2451C2.91607 1.20245 2.91607 1.20245 2.91607 1.20245L2.91552 1.20498L2.91413 1.21147L2.90897 1.236C2.90453 1.25737 2.89817 1.28862 2.89034 1.32879C2.87467 1.40912 2.85307 1.52523 2.82912 1.66953C2.78125 1.95795 2.7238 2.35995 2.68547 2.81468C2.60954 3.71554 2.6054 4.8556 2.92386 5.72623C3.12151 6.2666 3.51513 6.89889 3.84986 7.38607C4.01877 7.63191 4.17567 7.84506 4.2904 7.99683C4.3478 8.07276 4.39474 8.13345 4.42746 8.17533C4.42851 8.17667 4.42954 8.17799 4.43056 8.17929C4.43127 8.18021 4.43098 10.5971 4.43074 12.0114C4.43065 12.5636 3.98297 13.0098 3.43077 13.0098H2.49019C2.21947 13.0098 2 13.2293 2 13.5H7.46875C7.46875 13.2293 7.24928 13.0098 6.97855 13.0098H6.03819C5.48591 13.0098 5.03819 12.5621 5.03819 12.0098V8.17923C5.0392 8.17795 5.04021 8.17665 5.04124 8.17533C5.07397 8.13345 5.1209 8.07276 5.1783 7.99683C5.29304 7.84506 5.44993 7.63191 5.61884 7.38607C5.95357 6.89889 6.34719 6.2666 6.54485 5.72623C6.86331 4.8556 6.85916 3.71554 6.78323 2.81468C6.7449 2.35995 6.68745 1.95795 6.63958 1.66953C6.61563 1.52523 6.59404 1.40912 6.57837 1.32879C6.57053 1.28862 6.56417 1.25737 6.55974 1.236L6.55458 1.21147L6.55318 1.20498L6.55269 1.2027C6.55269 1.2027 6.55263 1.20245 6.25345 1.2451L6.55269 1.2027L6.50829 1H2.96042ZM3.43139 1.73459C3.44716 1.63956 3.46185 1.55731 3.47435 1.4902H5.99435C6.00686 1.55731 6.02154 1.63956 6.03732 1.73459C6.08389 2.01518 6.13977 2.40628 6.17699 2.84794C6.25217 3.73985 6.24803 4.80567 5.96205 5.5875C5.78427 6.07352 5.41835 6.66672 5.08738 7.14843C4.95764 7.33726 4.83508 7.50639 4.73435 7.64181C4.63363 7.50639 4.51106 7.33726 4.38132 7.14843C4.05036 6.66672 3.68443 6.07352 3.50665 5.5875C3.22068 4.80567 3.21653 3.73985 3.29171 2.84794C3.32894 2.40628 3.38482 2.01518 3.43139 1.73459Z" fill="#B2895D"/>
<path d="M12.5 7.75H10.75V6C10.75 5.44776 10.3022 5 9.75 5H9.25C8.69776 5 8.25 5.44776 8.25 6V7.75H6.5C5.94776 7.75 5.5 8.19776 5.5 8.75V9.25C5.5 9.80224 5.94776 10.25 6.5 10.25H8.25V12C8.25 12.5522 8.69776 13 9.25 13H9.75C10.3022 13 10.75 12.5522 10.75 12V10.25H12.5C13.0522 10.25 13.5 9.80224 13.5 9.25V8.75C13.5 8.19776 13.0522 7.75 12.5 7.75Z" fill="#B2895D" stroke="#F2F2F2"/>
</svg>
