<svg width="314" height="18" viewBox="0 0 314 18" fill="none" xmlns="http://www.w3.org/2000/svg">
<path d="M2.636 3.362C2.804 3.458 2.936 3.596 3.032 3.776C3.14 3.944 3.194 4.136 3.194 4.352C3.194 4.724 3.068 5.036 2.816 5.288C2.576 5.54 2.282 5.666 1.934 5.666C1.61 5.666 1.334 5.558 1.106 5.342C0.89 5.126 0.782 4.85 0.782 4.514C0.782 4.334 0.812 4.166 0.872 4.01C0.932 3.842 1.04 3.62 1.196 3.344L2.708 0.643999H3.842L2.636 3.362ZM6.038 3.362C6.206 3.458 6.338 3.596 6.434 3.776C6.542 3.944 6.596 4.136 6.596 4.352C6.596 4.724 6.47 5.036 6.218 5.288C5.978 5.54 5.684 5.666 5.336 5.666C5.012 5.666 4.736 5.558 4.508 5.342C4.292 5.126 4.184 4.85 4.184 4.514C4.184 4.334 4.214 4.166 4.274 4.01C4.334 3.842 4.442 3.62 4.598 3.344L6.11 0.643999H7.244L6.038 3.362ZM14.6243 1.4C16.0883 1.4 17.2223 1.724 18.0263 2.372C18.8423 3.008 19.2503 3.914 19.2503 5.09C19.2503 6.158 19.0103 7.076 18.5303 7.844C18.0623 8.6 17.3843 9.182 16.4963 9.59C15.6083 9.986 14.5583 10.184 13.3463 10.184H9.98028L9.22428 14H7.42428L9.94428 1.4H14.6243ZM13.3823 8.618C14.6783 8.618 15.6803 8.33 16.3883 7.754C17.0963 7.178 17.4503 6.344 17.4503 5.252C17.4503 4.508 17.1923 3.944 16.6763 3.56C16.1603 3.164 15.4223 2.966 14.4623 2.966H11.4383L10.3043 8.618H13.3823ZM23.1225 5.882C23.5425 5.354 24.0585 4.97 24.6705 4.73C25.2825 4.49 26.0265 4.37 26.9025 4.37L26.5785 6.044C26.4705 6.032 26.3205 6.026 26.1285 6.026C24.1485 6.026 22.9485 7.094 22.5285 9.23L21.5745 14H19.8465L21.7365 4.46H23.3925L23.1225 5.882ZM28.9963 4.46H30.7243L28.8343 14H27.1063L28.9963 4.46ZM30.3643 2.624C30.0523 2.624 29.7943 2.522 29.5903 2.318C29.3863 2.114 29.2843 1.868 29.2843 1.58C29.2843 1.244 29.3983 0.961999 29.6263 0.733999C29.8663 0.493999 30.1663 0.373999 30.5263 0.373999C30.8383 0.373999 31.0963 0.476 31.3003 0.68C31.5163 0.872 31.6243 1.106 31.6243 1.382C31.6243 1.754 31.5043 2.054 31.2643 2.282C31.0363 2.51 30.7363 2.624 30.3643 2.624ZM42.4656 4.46L36.3996 14H34.6356L32.3496 4.46H34.0776L35.8596 12.11L40.7196 4.46H42.4656ZM44.0783 4.46H45.8063L43.9163 14H42.1883L44.0783 4.46ZM45.4463 2.624C45.1343 2.624 44.8763 2.522 44.6723 2.318C44.4683 2.114 44.3663 1.868 44.3663 1.58C44.3663 1.244 44.4803 0.961999 44.7083 0.733999C44.9483 0.493999 45.2483 0.373999 45.6083 0.373999C45.9203 0.373999 46.1783 0.476 46.3823 0.68C46.5983 0.872 46.7063 1.106 46.7063 1.382C46.7063 1.754 46.5863 2.054 46.3463 2.282C46.1183 2.51 45.8183 2.624 45.4463 2.624ZM49.8797 0.643999H51.6077L48.9437 14H47.2157L49.8797 0.643999ZM53.917 9.77V9.878C53.917 10.766 54.169 11.444 54.673 11.912C55.177 12.368 55.933 12.596 56.941 12.596C57.529 12.596 58.081 12.5 58.597 12.308C59.113 12.104 59.545 11.834 59.893 11.498L60.631 12.74C60.163 13.172 59.593 13.508 58.921 13.748C58.249 13.988 57.541 14.108 56.797 14.108C55.861 14.108 55.051 13.94 54.367 13.604C53.683 13.268 53.155 12.788 52.783 12.164C52.411 11.54 52.225 10.808 52.225 9.968C52.225 8.9 52.453 7.94 52.909 7.088C53.377 6.236 54.019 5.57 54.835 5.09C55.663 4.61 56.587 4.37 57.607 4.37C58.903 4.37 59.935 4.742 60.703 5.486C61.483 6.218 61.873 7.22 61.873 8.492C61.873 8.876 61.831 9.302 61.747 9.77H53.917ZM57.535 5.81C56.683 5.81 55.951 6.05 55.339 6.53C54.727 7.01 54.313 7.67 54.097 8.51H60.253C60.301 7.658 60.073 6.998 59.569 6.53C59.077 6.05 58.399 5.81 57.535 5.81ZM59.497 0.751999H61.747L58.471 3.092H56.779L59.497 0.751999ZM74.2629 4.46L72.6249 12.704C72.2889 14.408 71.6529 15.65 70.7169 16.43C69.7929 17.21 68.5269 17.6 66.9189 17.6C66.0189 17.6 65.1969 17.48 64.4529 17.24C63.7089 17.012 63.0789 16.682 62.5629 16.25L63.5169 14.918C63.9009 15.266 64.3989 15.542 65.0109 15.746C65.6349 15.962 66.3129 16.07 67.0449 16.07C68.1489 16.07 69.0009 15.818 69.6009 15.314C70.2129 14.81 70.6269 14.03 70.8429 12.974L70.9869 12.29C70.0749 13.166 68.9229 13.604 67.5309 13.604C66.6909 13.604 65.9469 13.448 65.2989 13.136C64.6629 12.824 64.1649 12.374 63.8049 11.786C63.4569 11.198 63.2829 10.508 63.2829 9.716C63.2829 8.72 63.5109 7.814 63.9669 6.998C64.4349 6.182 65.0829 5.54 65.9109 5.072C66.7389 4.604 67.6749 4.37 68.7189 4.37C69.5349 4.37 70.2549 4.526 70.8789 4.838C71.5149 5.138 71.9829 5.594 72.2829 6.206L72.6249 4.46H74.2629ZM67.8729 12.092C68.5929 12.092 69.2349 11.936 69.7989 11.624C70.3749 11.3 70.8189 10.856 71.1309 10.292C71.4549 9.716 71.6169 9.068 71.6169 8.348C71.6169 7.58 71.3649 6.98 70.8609 6.548C70.3689 6.104 69.6729 5.882 68.7729 5.882C68.0529 5.882 67.4049 6.044 66.8289 6.368C66.2649 6.68 65.8209 7.124 65.4969 7.7C65.1849 8.264 65.0289 8.9 65.0289 9.608C65.0289 10.388 65.2809 11 65.7849 11.444C66.2889 11.876 66.9849 12.092 67.8729 12.092ZM77.5647 4.46H79.2927L77.4027 14H75.6747L77.5647 4.46ZM78.9327 2.624C78.6207 2.624 78.3627 2.522 78.1587 2.318C77.9547 2.114 77.8527 1.868 77.8527 1.58C77.8527 1.244 77.9667 0.961999 78.1947 0.733999C78.4347 0.493999 78.7347 0.373999 79.0947 0.373999C79.4067 0.373999 79.6647 0.476 79.8687 0.68C80.0847 0.872 80.1927 1.106 80.1927 1.382C80.1927 1.754 80.0727 2.054 79.8327 2.282C79.6047 2.51 79.3047 2.624 78.9327 2.624ZM82.376 9.77V9.878C82.376 10.766 82.628 11.444 83.132 11.912C83.636 12.368 84.392 12.596 85.4 12.596C85.988 12.596 86.54 12.5 87.056 12.308C87.572 12.104 88.004 11.834 88.352 11.498L89.09 12.74C88.622 13.172 88.052 13.508 87.38 13.748C86.708 13.988 86 14.108 85.256 14.108C84.32 14.108 83.51 13.94 82.826 13.604C82.142 13.268 81.614 12.788 81.242 12.164C80.87 11.54 80.684 10.808 80.684 9.968C80.684 8.9 80.912 7.94 81.368 7.088C81.836 6.236 82.478 5.57 83.294 5.09C84.122 4.61 85.046 4.37 86.066 4.37C87.362 4.37 88.394 4.742 89.162 5.486C89.942 6.218 90.332 7.22 90.332 8.492C90.332 8.876 90.29 9.302 90.206 9.77H82.376ZM85.994 5.81C85.142 5.81 84.41 6.05 83.798 6.53C83.186 7.01 82.772 7.67 82.556 8.51H88.712C88.76 7.658 88.532 6.998 88.028 6.53C87.536 6.05 86.858 5.81 85.994 5.81ZM99.2039 0.643999H100.932L98.2679 14H96.5399L99.2039 0.643999ZM103.565 1.4H105.077L103.997 6.26H102.737L103.565 1.4ZM116.129 4.46L114.239 14H112.583L112.817 12.776C112.385 13.22 111.875 13.556 111.287 13.784C110.711 14 110.081 14.108 109.397 14.108C108.341 14.108 107.507 13.826 106.895 13.262C106.283 12.698 105.977 11.912 105.977 10.904C105.977 10.568 106.013 10.202 106.085 9.806L107.147 4.46H108.875L107.813 9.824C107.753 10.148 107.723 10.418 107.723 10.634C107.723 11.258 107.903 11.738 108.263 12.074C108.635 12.398 109.181 12.56 109.901 12.56C110.813 12.56 111.569 12.302 112.169 11.786C112.781 11.27 113.189 10.514 113.393 9.518L114.401 4.46H116.129ZM120.534 14.108C119.742 14.108 118.986 14.006 118.266 13.802C117.558 13.598 117.006 13.334 116.61 13.01L117.384 11.642C117.756 11.942 118.236 12.182 118.824 12.362C119.424 12.53 120.048 12.614 120.696 12.614C121.512 12.614 122.13 12.494 122.55 12.254C122.982 12.002 123.198 11.654 123.198 11.21C123.198 10.85 123.024 10.592 122.676 10.436C122.34 10.28 121.812 10.124 121.092 9.968C120.42 9.824 119.868 9.68 119.436 9.536C119.016 9.38 118.656 9.14 118.356 8.816C118.056 8.48 117.906 8.03 117.906 7.466C117.906 6.842 118.08 6.296 118.428 5.828C118.788 5.36 119.292 5 119.94 4.748C120.6 4.496 121.362 4.37 122.226 4.37C122.862 4.37 123.48 4.448 124.08 4.604C124.68 4.76 125.172 4.97 125.556 5.234L124.872 6.602C124.5 6.35 124.068 6.164 123.576 6.044C123.084 5.912 122.58 5.846 122.064 5.846C121.284 5.846 120.684 5.978 120.264 6.242C119.844 6.494 119.634 6.836 119.634 7.268C119.634 7.652 119.808 7.928 120.156 8.096C120.504 8.252 121.044 8.408 121.776 8.564C122.436 8.708 122.976 8.852 123.396 8.996C123.816 9.14 124.17 9.374 124.458 9.698C124.758 10.022 124.908 10.46 124.908 11.012C124.908 11.984 124.506 12.746 123.702 13.298C122.91 13.838 121.854 14.108 120.534 14.108ZM137.418 4.46L135.528 14H133.872L134.106 12.83C133.674 13.238 133.17 13.556 132.594 13.784C132.03 14 131.412 14.108 130.74 14.108C129.924 14.108 129.198 13.946 128.562 13.622C127.926 13.286 127.428 12.806 127.068 12.182C126.708 11.558 126.528 10.826 126.528 9.986C126.528 8.906 126.762 7.94 127.23 7.088C127.698 6.236 128.34 5.57 129.156 5.09C129.984 4.61 130.908 4.37 131.928 4.37C132.744 4.37 133.44 4.514 134.016 4.802C134.604 5.09 135.054 5.516 135.366 6.08L135.69 4.46H137.418ZM131.118 12.596C131.826 12.596 132.462 12.428 133.026 12.092C133.602 11.744 134.046 11.264 134.358 10.652C134.682 10.04 134.844 9.344 134.844 8.564C134.844 7.712 134.598 7.052 134.106 6.584C133.614 6.116 132.912 5.882 132 5.882C131.292 5.882 130.656 6.056 130.092 6.404C129.528 6.74 129.084 7.214 128.76 7.826C128.436 8.438 128.274 9.134 128.274 9.914C128.274 10.754 128.52 11.414 129.012 11.894C129.516 12.362 130.218 12.596 131.118 12.596ZM149.831 4.46L148.193 12.704C147.857 14.408 147.221 15.65 146.285 16.43C145.361 17.21 144.095 17.6 142.487 17.6C141.587 17.6 140.765 17.48 140.021 17.24C139.277 17.012 138.647 16.682 138.131 16.25L139.085 14.918C139.469 15.266 139.967 15.542 140.579 15.746C141.203 15.962 141.881 16.07 142.613 16.07C143.717 16.07 144.569 15.818 145.169 15.314C145.781 14.81 146.195 14.03 146.411 12.974L146.555 12.29C145.643 13.166 144.491 13.604 143.099 13.604C142.259 13.604 141.515 13.448 140.867 13.136C140.231 12.824 139.733 12.374 139.373 11.786C139.025 11.198 138.851 10.508 138.851 9.716C138.851 8.72 139.079 7.814 139.535 6.998C140.003 6.182 140.651 5.54 141.479 5.072C142.307 4.604 143.243 4.37 144.287 4.37C145.103 4.37 145.823 4.526 146.447 4.838C147.083 5.138 147.551 5.594 147.851 6.206L148.193 4.46H149.831ZM143.441 12.092C144.161 12.092 144.803 11.936 145.367 11.624C145.943 11.3 146.387 10.856 146.699 10.292C147.023 9.716 147.185 9.068 147.185 8.348C147.185 7.58 146.933 6.98 146.429 6.548C145.937 6.104 145.241 5.882 144.341 5.882C143.621 5.882 142.973 6.044 142.397 6.368C141.833 6.68 141.389 7.124 141.065 7.7C140.753 8.264 140.597 8.9 140.597 9.608C140.597 10.388 140.849 11 141.353 11.444C141.857 11.876 142.553 12.092 143.441 12.092ZM152.917 9.77V9.878C152.917 10.766 153.169 11.444 153.673 11.912C154.177 12.368 154.933 12.596 155.941 12.596C156.529 12.596 157.081 12.5 157.597 12.308C158.113 12.104 158.545 11.834 158.893 11.498L159.631 12.74C159.163 13.172 158.593 13.508 157.921 13.748C157.249 13.988 156.541 14.108 155.797 14.108C154.861 14.108 154.051 13.94 153.367 13.604C152.683 13.268 152.155 12.788 151.783 12.164C151.411 11.54 151.225 10.808 151.225 9.968C151.225 8.9 151.453 7.94 151.909 7.088C152.377 6.236 153.019 5.57 153.835 5.09C154.663 4.61 155.587 4.37 156.607 4.37C157.903 4.37 158.935 4.742 159.703 5.486C160.483 6.218 160.873 7.22 160.873 8.492C160.873 8.876 160.831 9.302 160.747 9.77H152.917ZM156.535 5.81C155.683 5.81 154.951 6.05 154.339 6.53C153.727 7.01 153.313 7.67 153.097 8.51H159.253C159.301 7.658 159.073 6.998 158.569 6.53C158.077 6.05 157.399 5.81 156.535 5.81ZM177.953 4.46L176.063 14H174.407L174.641 12.83C174.209 13.238 173.705 13.556 173.129 13.784C172.565 14 171.947 14.108 171.275 14.108C170.459 14.108 169.733 13.946 169.097 13.622C168.461 13.286 167.963 12.806 167.603 12.182C167.243 11.558 167.063 10.826 167.063 9.986C167.063 8.906 167.297 7.94 167.765 7.088C168.233 6.236 168.875 5.57 169.691 5.09C170.519 4.61 171.443 4.37 172.463 4.37C173.279 4.37 173.975 4.514 174.551 4.802C175.139 5.09 175.589 5.516 175.901 6.08L176.225 4.46H177.953ZM171.653 12.596C172.361 12.596 172.997 12.428 173.561 12.092C174.137 11.744 174.581 11.264 174.893 10.652C175.217 10.04 175.379 9.344 175.379 8.564C175.379 7.712 175.133 7.052 174.641 6.584C174.149 6.116 173.447 5.882 172.535 5.882C171.827 5.882 171.191 6.056 170.627 6.404C170.063 6.74 169.619 7.214 169.295 7.826C168.971 8.438 168.809 9.134 168.809 9.914C168.809 10.754 169.055 11.414 169.547 11.894C170.051 12.362 170.753 12.596 171.653 12.596ZM170.789 0.733999H172.967L174.983 3.074H173.345L170.789 0.733999ZM186.848 0.643999H188.576L185.912 14H184.184L186.848 0.643999ZM200.084 4.46L198.194 14H196.538L196.772 12.83C196.34 13.238 195.836 13.556 195.26 13.784C194.696 14 194.078 14.108 193.406 14.108C192.59 14.108 191.864 13.946 191.228 13.622C190.592 13.286 190.094 12.806 189.734 12.182C189.374 11.558 189.194 10.826 189.194 9.986C189.194 8.906 189.428 7.94 189.896 7.088C190.364 6.236 191.006 5.57 191.822 5.09C192.65 4.61 193.574 4.37 194.594 4.37C195.41 4.37 196.106 4.514 196.682 4.802C197.27 5.09 197.72 5.516 198.032 6.08L198.356 4.46H200.084ZM193.784 12.596C194.492 12.596 195.128 12.428 195.692 12.092C196.268 11.744 196.712 11.264 197.024 10.652C197.348 10.04 197.51 9.344 197.51 8.564C197.51 7.712 197.264 7.052 196.772 6.584C196.28 6.116 195.578 5.882 194.666 5.882C193.958 5.882 193.322 6.056 192.758 6.404C192.194 6.74 191.75 7.214 191.426 7.826C191.102 8.438 190.94 9.134 190.94 9.914C190.94 10.754 191.186 11.414 191.678 11.894C192.182 12.362 192.884 12.596 193.784 12.596ZM212.993 4.37C213.809 4.37 214.535 4.538 215.171 4.874C215.807 5.198 216.305 5.672 216.665 6.296C217.025 6.908 217.205 7.634 217.205 8.474C217.205 9.554 216.971 10.52 216.503 11.372C216.035 12.224 215.387 12.896 214.559 13.388C213.743 13.868 212.825 14.108 211.805 14.108C210.989 14.108 210.287 13.964 209.699 13.676C209.111 13.376 208.661 12.944 208.349 12.38L207.341 17.492H205.613L208.205 4.46H209.861L209.627 5.648C210.515 4.796 211.637 4.37 212.993 4.37ZM211.733 12.596C212.441 12.596 213.077 12.428 213.641 12.092C214.205 11.744 214.649 11.264 214.973 10.652C215.297 10.04 215.459 9.344 215.459 8.564C215.459 7.712 215.213 7.052 214.721 6.584C214.229 6.116 213.527 5.882 212.615 5.882C211.907 5.882 211.265 6.056 210.689 6.404C210.125 6.74 209.681 7.214 209.357 7.826C209.045 8.438 208.889 9.134 208.889 9.914C208.889 10.754 209.135 11.414 209.627 11.894C210.131 12.362 210.833 12.596 211.733 12.596ZM223.049 14.108C222.149 14.108 221.363 13.94 220.691 13.604C220.019 13.256 219.497 12.77 219.125 12.146C218.753 11.522 218.567 10.802 218.567 9.986C218.567 8.918 218.807 7.958 219.287 7.106C219.767 6.254 220.433 5.588 221.285 5.108C222.137 4.616 223.097 4.37 224.165 4.37C225.065 4.37 225.851 4.538 226.523 4.874C227.195 5.21 227.711 5.69 228.071 6.314C228.443 6.926 228.629 7.646 228.629 8.474C228.629 9.542 228.389 10.508 227.909 11.372C227.429 12.224 226.763 12.896 225.911 13.388C225.071 13.868 224.117 14.108 223.049 14.108ZM223.157 12.596C223.865 12.596 224.501 12.428 225.065 12.092C225.641 11.744 226.085 11.264 226.397 10.652C226.721 10.04 226.883 9.344 226.883 8.564C226.883 7.712 226.637 7.052 226.145 6.584C225.653 6.116 224.951 5.882 224.039 5.882C223.331 5.882 222.695 6.056 222.131 6.404C221.567 6.74 221.123 7.214 220.799 7.826C220.475 8.438 220.313 9.134 220.313 9.914C220.313 10.754 220.559 11.414 221.051 11.894C221.555 12.362 222.257 12.596 223.157 12.596ZM233.017 14.108C232.225 14.108 231.469 14.006 230.749 13.802C230.041 13.598 229.489 13.334 229.093 13.01L229.867 11.642C230.239 11.942 230.719 12.182 231.307 12.362C231.907 12.53 232.531 12.614 233.179 12.614C233.995 12.614 234.613 12.494 235.033 12.254C235.465 12.002 235.681 11.654 235.681 11.21C235.681 10.85 235.507 10.592 235.159 10.436C234.823 10.28 234.295 10.124 233.575 9.968C232.903 9.824 232.351 9.68 231.919 9.536C231.499 9.38 231.139 9.14 230.839 8.816C230.539 8.48 230.389 8.03 230.389 7.466C230.389 6.842 230.563 6.296 230.911 5.828C231.271 5.36 231.775 5 232.423 4.748C233.083 4.496 233.845 4.37 234.709 4.37C235.345 4.37 235.963 4.448 236.563 4.604C237.163 4.76 237.655 4.97 238.039 5.234L237.355 6.602C236.983 6.35 236.551 6.164 236.059 6.044C235.567 5.912 235.063 5.846 234.547 5.846C233.767 5.846 233.167 5.978 232.747 6.242C232.327 6.494 232.117 6.836 232.117 7.268C232.117 7.652 232.291 7.928 232.639 8.096C232.987 8.252 233.527 8.408 234.259 8.564C234.919 8.708 235.459 8.852 235.879 8.996C236.299 9.14 236.653 9.374 236.941 9.698C237.241 10.022 237.391 10.46 237.391 11.012C237.391 11.984 236.989 12.746 236.185 13.298C235.393 13.838 234.337 14.108 233.017 14.108ZM242.034 14.108C241.242 14.108 240.486 14.006 239.766 13.802C239.058 13.598 238.506 13.334 238.11 13.01L238.884 11.642C239.256 11.942 239.736 12.182 240.324 12.362C240.924 12.53 241.548 12.614 242.196 12.614C243.012 12.614 243.63 12.494 244.05 12.254C244.482 12.002 244.698 11.654 244.698 11.21C244.698 10.85 244.524 10.592 244.176 10.436C243.84 10.28 243.312 10.124 242.592 9.968C241.92 9.824 241.368 9.68 240.936 9.536C240.516 9.38 240.156 9.14 239.856 8.816C239.556 8.48 239.406 8.03 239.406 7.466C239.406 6.842 239.58 6.296 239.928 5.828C240.288 5.36 240.792 5 241.44 4.748C242.1 4.496 242.862 4.37 243.726 4.37C244.362 4.37 244.98 4.448 245.58 4.604C246.18 4.76 246.672 4.97 247.056 5.234L246.372 6.602C246 6.35 245.568 6.164 245.076 6.044C244.584 5.912 244.08 5.846 243.564 5.846C242.784 5.846 242.184 5.978 241.764 6.242C241.344 6.494 241.134 6.836 241.134 7.268C241.134 7.652 241.308 7.928 241.656 8.096C242.004 8.252 242.544 8.408 243.276 8.564C243.936 8.708 244.476 8.852 244.896 8.996C245.316 9.14 245.67 9.374 245.958 9.698C246.258 10.022 246.408 10.46 246.408 11.012C246.408 11.984 246.006 12.746 245.202 13.298C244.41 13.838 243.354 14.108 242.034 14.108ZM249.72 9.77V9.878C249.72 10.766 249.972 11.444 250.476 11.912C250.98 12.368 251.736 12.596 252.744 12.596C253.332 12.596 253.884 12.5 254.4 12.308C254.916 12.104 255.348 11.834 255.696 11.498L256.434 12.74C255.966 13.172 255.396 13.508 254.724 13.748C254.052 13.988 253.344 14.108 252.6 14.108C251.664 14.108 250.854 13.94 250.17 13.604C249.486 13.268 248.958 12.788 248.586 12.164C248.214 11.54 248.028 10.808 248.028 9.968C248.028 8.9 248.256 7.94 248.712 7.088C249.18 6.236 249.822 5.57 250.638 5.09C251.466 4.61 252.39 4.37 253.41 4.37C254.706 4.37 255.738 4.742 256.506 5.486C257.286 6.218 257.676 7.22 257.676 8.492C257.676 8.876 257.634 9.302 257.55 9.77H249.72ZM253.338 5.81C252.486 5.81 251.754 6.05 251.142 6.53C250.53 7.01 250.116 7.67 249.9 8.51H256.056C256.104 7.658 255.876 6.998 255.372 6.53C254.88 6.05 254.202 5.81 253.338 5.81ZM262.056 14.108C261.264 14.108 260.508 14.006 259.788 13.802C259.08 13.598 258.528 13.334 258.132 13.01L258.906 11.642C259.278 11.942 259.758 12.182 260.346 12.362C260.946 12.53 261.57 12.614 262.218 12.614C263.034 12.614 263.652 12.494 264.072 12.254C264.504 12.002 264.72 11.654 264.72 11.21C264.72 10.85 264.546 10.592 264.198 10.436C263.862 10.28 263.334 10.124 262.614 9.968C261.942 9.824 261.39 9.68 260.958 9.536C260.538 9.38 260.178 9.14 259.878 8.816C259.578 8.48 259.428 8.03 259.428 7.466C259.428 6.842 259.602 6.296 259.95 5.828C260.31 5.36 260.814 5 261.462 4.748C262.122 4.496 262.884 4.37 263.748 4.37C264.384 4.37 265.002 4.448 265.602 4.604C266.202 4.76 266.694 4.97 267.078 5.234L266.394 6.602C266.022 6.35 265.59 6.164 265.098 6.044C264.606 5.912 264.102 5.846 263.586 5.846C262.806 5.846 262.206 5.978 261.786 6.242C261.366 6.494 261.156 6.836 261.156 7.268C261.156 7.652 261.33 7.928 261.678 8.096C262.026 8.252 262.566 8.408 263.298 8.564C263.958 8.708 264.498 8.852 264.918 8.996C265.338 9.14 265.692 9.374 265.98 9.698C266.28 10.022 266.43 10.46 266.43 11.012C266.43 11.984 266.028 12.746 265.224 13.298C264.432 13.838 263.376 14.108 262.056 14.108ZM271.073 14.108C270.281 14.108 269.525 14.006 268.805 13.802C268.097 13.598 267.545 13.334 267.149 13.01L267.923 11.642C268.295 11.942 268.775 12.182 269.363 12.362C269.963 12.53 270.587 12.614 271.235 12.614C272.051 12.614 272.669 12.494 273.089 12.254C273.521 12.002 273.737 11.654 273.737 11.21C273.737 10.85 273.563 10.592 273.215 10.436C272.879 10.28 272.351 10.124 271.631 9.968C270.959 9.824 270.407 9.68 269.975 9.536C269.555 9.38 269.195 9.14 268.895 8.816C268.595 8.48 268.445 8.03 268.445 7.466C268.445 6.842 268.619 6.296 268.967 5.828C269.327 5.36 269.831 5 270.479 4.748C271.139 4.496 271.901 4.37 272.765 4.37C273.401 4.37 274.019 4.448 274.619 4.604C275.219 4.76 275.711 4.97 276.095 5.234L275.411 6.602C275.039 6.35 274.607 6.164 274.115 6.044C273.623 5.912 273.119 5.846 272.603 5.846C271.823 5.846 271.223 5.978 270.803 6.242C270.383 6.494 270.173 6.836 270.173 7.268C270.173 7.652 270.347 7.928 270.695 8.096C271.043 8.252 271.583 8.408 272.315 8.564C272.975 8.708 273.515 8.852 273.935 8.996C274.355 9.14 274.709 9.374 274.997 9.698C275.297 10.022 275.447 10.46 275.447 11.012C275.447 11.984 275.045 12.746 274.241 13.298C273.449 13.838 272.393 14.108 271.073 14.108ZM278.975 4.46H280.703L278.813 14H277.085L278.975 4.46ZM280.343 2.624C280.031 2.624 279.773 2.522 279.569 2.318C279.365 2.114 279.263 1.868 279.263 1.58C279.263 1.244 279.377 0.961999 279.605 0.733999C279.845 0.493999 280.145 0.373999 280.505 0.373999C280.817 0.373999 281.075 0.476 281.279 0.68C281.495 0.872 281.603 1.106 281.603 1.382C281.603 1.754 281.483 2.054 281.243 2.282C281.015 2.51 280.715 2.624 280.343 2.624ZM286.576 14.108C285.676 14.108 284.89 13.94 284.218 13.604C283.546 13.256 283.024 12.77 282.652 12.146C282.28 11.522 282.094 10.802 282.094 9.986C282.094 8.918 282.334 7.958 282.814 7.106C283.294 6.254 283.96 5.588 284.812 5.108C285.664 4.616 286.624 4.37 287.692 4.37C288.592 4.37 289.378 4.538 290.05 4.874C290.722 5.21 291.238 5.69 291.598 6.314C291.97 6.926 292.156 7.646 292.156 8.474C292.156 9.542 291.916 10.508 291.436 11.372C290.956 12.224 290.29 12.896 289.438 13.388C288.598 13.868 287.644 14.108 286.576 14.108ZM286.684 12.596C287.392 12.596 288.028 12.428 288.592 12.092C289.168 11.744 289.612 11.264 289.924 10.652C290.248 10.04 290.41 9.344 290.41 8.564C290.41 7.712 290.164 7.052 289.672 6.584C289.18 6.116 288.478 5.882 287.566 5.882C286.858 5.882 286.222 6.056 285.658 6.404C285.094 6.74 284.65 7.214 284.326 7.826C284.002 8.438 283.84 9.134 283.84 9.914C283.84 10.754 284.086 11.414 284.578 11.894C285.082 12.362 285.784 12.596 286.684 12.596ZM300.306 4.37C301.398 4.37 302.244 4.646 302.844 5.198C303.456 5.75 303.762 6.53 303.762 7.538C303.762 7.886 303.726 8.258 303.654 8.654L302.592 14H300.864L301.926 8.654C301.986 8.33 302.016 8.066 302.016 7.862C302.016 7.238 301.83 6.758 301.458 6.422C301.086 6.086 300.534 5.918 299.802 5.918C298.866 5.918 298.092 6.176 297.48 6.692C296.88 7.196 296.478 7.952 296.274 8.96L295.266 14H293.538L295.428 4.46H297.084L296.85 5.684C297.714 4.808 298.866 4.37 300.306 4.37ZM308.565 0.536C308.889 0.536 309.159 0.644 309.375 0.86C309.591 1.076 309.699 1.352 309.699 1.688C309.699 1.88 309.669 2.06 309.609 2.228C309.549 2.384 309.447 2.594 309.303 2.858L307.791 5.558H306.657L307.863 2.858C307.683 2.762 307.539 2.624 307.431 2.444C307.335 2.252 307.287 2.048 307.287 1.832C307.287 1.46 307.413 1.154 307.665 0.913999C307.917 0.661999 308.217 0.536 308.565 0.536ZM311.967 0.536C312.291 0.536 312.561 0.644 312.777 0.86C312.993 1.076 313.101 1.352 313.101 1.688C313.101 1.88 313.071 2.06 313.011 2.228C312.951 2.384 312.849 2.594 312.705 2.858L311.193 5.558H310.059L311.265 2.858C311.085 2.762 310.941 2.624 310.833 2.444C310.737 2.252 310.689 2.048 310.689 1.832C310.689 1.46 310.815 1.154 311.067 0.913999C311.319 0.661999 311.619 0.536 311.967 0.536Z" fill="#3C3C3C"/>
</svg>
