<svg width="195" height="12" viewBox="0 0 195 12" fill="none" xmlns="http://www.w3.org/2000/svg">
<path d="M5.436 0.599999C6.38 0.599999 7.116 0.808 7.644 1.224C8.172 1.64 8.436 2.224 8.436 2.976C8.436 4.048 8.088 4.88 7.392 5.472C6.704 6.056 5.752 6.348 4.536 6.348H2.16L1.62 9H0.744L2.424 0.599999H5.436ZM4.548 5.568C5.508 5.568 6.248 5.356 6.768 4.932C7.288 4.508 7.548 3.884 7.548 3.06C7.548 2.508 7.36 2.088 6.984 1.8C6.608 1.512 6.068 1.368 5.364 1.368H3.156L2.304 5.568H4.548ZM10.744 3.84C11.024 3.432 11.376 3.132 11.8 2.94C12.224 2.74 12.736 2.64 13.336 2.64L13.18 3.468L12.94 3.456C12.26 3.456 11.7 3.652 11.26 4.044C10.828 4.436 10.536 5.02 10.384 5.796L9.74803 9H8.89603L10.144 2.688H10.96L10.744 3.84ZM14.8667 2.688H15.7187L14.4707 9H13.6187L14.8667 2.688ZM15.6587 1.308C15.4907 1.308 15.3507 1.252 15.2387 1.14C15.1347 1.028 15.0827 0.896 15.0827 0.744C15.0827 0.56 15.1427 0.408 15.2627 0.288C15.3907 0.16 15.5507 0.0959995 15.7427 0.0959995C15.9107 0.0959995 16.0507 0.151999 16.1627 0.263999C16.2747 0.368 16.3307 0.492 16.3307 0.636C16.3307 0.828 16.2667 0.988 16.1387 1.116C16.0107 1.244 15.8507 1.308 15.6587 1.308ZM23.4053 2.688L19.3493 9H18.4733L16.9133 2.688H17.7653L19.0733 8.076L22.5173 2.688H23.4053ZM24.5933 2.688H25.4453L24.1973 9H23.3453L24.5933 2.688ZM25.3853 1.308C25.2173 1.308 25.0773 1.252 24.9653 1.14C24.8613 1.028 24.8093 0.896 24.8093 0.744C24.8093 0.56 24.8693 0.408 24.9893 0.288C25.1173 0.16 25.2773 0.0959995 25.4693 0.0959995C25.6373 0.0959995 25.7773 0.151999 25.8893 0.263999C26.0013 0.368 26.0573 0.492 26.0573 0.636C26.0573 0.828 25.9933 0.988 25.8652 1.116C25.7373 1.244 25.5773 1.308 25.3853 1.308ZM28.3439 0.0959995H29.1959L27.4199 9H26.5679L28.3439 0.0959995ZM30.5826 6.084C30.5746 6.14 30.5706 6.224 30.5706 6.336C30.5706 6.976 30.7506 7.464 31.1106 7.8C31.4786 8.136 32.0226 8.304 32.7426 8.304C33.1586 8.304 33.5466 8.236 33.9066 8.1C34.2746 7.956 34.5746 7.76 34.8066 7.512L35.1906 8.124C34.8946 8.42 34.5226 8.652 34.0746 8.82C33.6346 8.98 33.1666 9.06 32.6706 9.06C31.7586 9.06 31.0386 8.82 30.5106 8.34C29.9906 7.86 29.7306 7.204 29.7306 6.372C29.7306 5.668 29.8786 5.032 30.1746 4.464C30.4786 3.896 30.8946 3.452 31.4226 3.132C31.9586 2.804 32.5586 2.64 33.2226 2.64C34.0626 2.64 34.7306 2.88 35.2266 3.36C35.7226 3.832 35.9706 4.484 35.9706 5.316C35.9706 5.548 35.9426 5.804 35.8866 6.084H30.5826ZM33.1986 3.36C32.5666 3.36 32.0266 3.548 31.5786 3.924C31.1306 4.3 30.8266 4.808 30.6666 5.448H35.1666C35.1746 5.392 35.1786 5.316 35.1786 5.22C35.1786 4.628 34.9986 4.172 34.6386 3.852C34.2786 3.524 33.7986 3.36 33.1986 3.36ZM34.6266 0.24H35.7906L33.6906 1.728H32.8026L34.6266 0.24ZM44.1368 2.688L43.0328 8.232C42.8168 9.336 42.4088 10.136 41.8088 10.632C41.2168 11.136 40.4008 11.388 39.3608 11.388C38.7688 11.388 38.2328 11.304 37.7528 11.136C37.2808 10.976 36.8808 10.744 36.5528 10.44L37.0568 9.792C37.3128 10.056 37.6447 10.26 38.0527 10.404C38.4688 10.556 38.9248 10.632 39.4208 10.632C40.2128 10.632 40.8288 10.448 41.2688 10.08C41.7088 9.712 42.0048 9.144 42.1568 8.376L42.3008 7.68C41.9968 8.024 41.6288 8.292 41.1968 8.484C40.7728 8.668 40.3008 8.76 39.7808 8.76C38.9408 8.76 38.2648 8.532 37.7528 8.076C37.2488 7.62 36.9968 7 36.9968 6.216C36.9968 5.544 37.1488 4.936 37.4528 4.392C37.7648 3.848 38.1928 3.42 38.7368 3.108C39.2888 2.796 39.9088 2.64 40.5968 2.64C41.1968 2.64 41.7128 2.764 42.1448 3.012C42.5768 3.252 42.8808 3.608 43.0568 4.08L43.3208 2.688H44.1368ZM39.9488 8.004C40.4688 8.004 40.9368 7.884 41.3528 7.644C41.7768 7.404 42.1048 7.072 42.3368 6.648C42.5768 6.224 42.6968 5.748 42.6968 5.22C42.6968 4.644 42.5128 4.196 42.1448 3.876C41.7768 3.548 41.2648 3.384 40.6088 3.384C40.0808 3.384 39.6088 3.504 39.1928 3.744C38.7768 3.984 38.4488 4.316 38.2088 4.74C37.9768 5.164 37.8608 5.64 37.8608 6.168C37.8608 6.744 38.0448 7.196 38.4128 7.524C38.7808 7.844 39.2928 8.004 39.9488 8.004ZM46.5073 2.688H47.3593L46.1113 9H45.2593L46.5073 2.688ZM47.2993 1.308C47.1313 1.308 46.9913 1.252 46.8793 1.14C46.7753 1.028 46.7233 0.896 46.7233 0.744C46.7233 0.56 46.7833 0.408 46.9033 0.288C47.0313 0.16 47.1913 0.0959995 47.3833 0.0959995C47.5513 0.0959995 47.6913 0.151999 47.8033 0.263999C47.9153 0.368 47.9713 0.492 47.9713 0.636C47.9713 0.828 47.9073 0.988 47.7793 1.116C47.6513 1.244 47.4913 1.308 47.2993 1.308ZM49.274 6.084C49.266 6.14 49.262 6.224 49.262 6.336C49.262 6.976 49.442 7.464 49.802 7.8C50.17 8.136 50.714 8.304 51.434 8.304C51.85 8.304 52.238 8.236 52.598 8.1C52.966 7.956 53.266 7.76 53.498 7.512L53.882 8.124C53.586 8.42 53.214 8.652 52.766 8.82C52.326 8.98 51.858 9.06 51.362 9.06C50.45 9.06 49.73 8.82 49.202 8.34C48.682 7.86 48.422 7.204 48.422 6.372C48.422 5.668 48.57 5.032 48.866 4.464C49.17 3.896 49.586 3.452 50.114 3.132C50.65 2.804 51.25 2.64 51.914 2.64C52.754 2.64 53.422 2.88 53.918 3.36C54.414 3.832 54.662 4.484 54.662 5.316C54.662 5.548 54.634 5.804 54.578 6.084H49.274ZM51.89 3.36C51.258 3.36 50.718 3.548 50.27 3.924C49.822 4.3 49.518 4.808 49.358 5.448H53.858C53.866 5.392 53.87 5.316 53.87 5.22C53.87 4.628 53.69 4.172 53.33 3.852C52.97 3.524 52.49 3.36 51.89 3.36ZM60.6408 0.0959995H61.4928L59.7168 9H58.8648L60.6408 0.0959995ZM63.4074 0.599999H64.1634L63.4794 3.768H62.8434L63.4074 0.599999ZM71.4612 2.688L70.2012 9H69.3852L69.5892 7.992C68.9972 8.704 68.1852 9.06 67.1532 9.06C66.4492 9.06 65.8972 8.88 65.4972 8.52C65.1052 8.152 64.9092 7.644 64.9092 6.996C64.9092 6.772 64.9332 6.536 64.9812 6.288L65.7012 2.688H66.5532L65.8332 6.288C65.7932 6.512 65.7732 6.7 65.7732 6.852C65.7732 7.316 65.9052 7.672 66.1692 7.92C66.4412 8.168 66.8452 8.292 67.3812 8.292C68.0532 8.292 68.6092 8.104 69.0492 7.728C69.4892 7.352 69.7852 6.804 69.9372 6.084L70.6092 2.688H71.4612ZM74.4234 9.06C73.9194 9.06 73.4354 8.988 72.9714 8.844C72.5154 8.7 72.1634 8.516 71.9154 8.292L72.3234 7.62C72.5634 7.828 72.8794 7.996 73.2714 8.124C73.6634 8.252 74.0754 8.316 74.5074 8.316C75.1074 8.316 75.5674 8.22 75.8874 8.028C76.2154 7.828 76.3794 7.548 76.3794 7.188C76.3794 6.988 76.3114 6.828 76.1754 6.708C76.0474 6.588 75.8874 6.496 75.6954 6.432C75.5034 6.368 75.2234 6.296 74.8554 6.216C74.4154 6.12 74.0594 6.024 73.7874 5.928C73.5154 5.832 73.2834 5.68 73.0914 5.472C72.8994 5.264 72.8034 4.976 72.8034 4.608C72.8034 4.008 73.0514 3.532 73.5474 3.18C74.0434 2.82 74.7074 2.64 75.5394 2.64C75.9474 2.64 76.3434 2.696 76.7274 2.808C77.1194 2.912 77.4354 3.052 77.6754 3.228L77.3154 3.912C77.0754 3.736 76.7914 3.604 76.4634 3.516C76.1434 3.42 75.8114 3.372 75.4674 3.372C74.8914 3.372 74.4434 3.476 74.1234 3.684C73.8034 3.892 73.6434 4.172 73.6434 4.524C73.6434 4.732 73.7114 4.9 73.8474 5.028C73.9834 5.156 74.1514 5.252 74.3514 5.316C74.5594 5.38 74.8394 5.448 75.1914 5.52C75.6234 5.616 75.9714 5.712 76.2354 5.808C76.5074 5.896 76.7394 6.044 76.9314 6.252C77.1234 6.46 77.2194 6.74 77.2194 7.092C77.2194 7.708 76.9634 8.192 76.4514 8.544C75.9474 8.888 75.2714 9.06 74.4234 9.06ZM85.4785 2.688L84.2185 9H83.4025L83.6065 8.004C83.3025 8.34 82.9425 8.6 82.5265 8.784C82.1105 8.968 81.6505 9.06 81.1465 9.06C80.6105 9.06 80.1345 8.952 79.7185 8.736C79.3025 8.52 78.9785 8.212 78.7465 7.812C78.5145 7.404 78.3985 6.928 78.3985 6.384C78.3985 5.672 78.5505 5.032 78.8545 4.464C79.1665 3.896 79.5945 3.452 80.1385 3.132C80.6825 2.804 81.2905 2.64 81.9625 2.64C82.5625 2.64 83.0665 2.76 83.4745 3C83.8825 3.232 84.1785 3.568 84.3625 4.008L84.6265 2.688H85.4785ZM81.3265 8.304C81.8465 8.304 82.3145 8.18 82.7305 7.932C83.1465 7.676 83.4705 7.324 83.7025 6.876C83.9425 6.42 84.0625 5.912 84.0625 5.352C84.0625 4.736 83.8785 4.256 83.5105 3.912C83.1505 3.56 82.6425 3.384 81.9865 3.384C81.4665 3.384 80.9985 3.512 80.5825 3.768C80.1665 4.024 79.8385 4.38 79.5985 4.836C79.3665 5.284 79.2505 5.788 79.2505 6.348C79.2505 6.964 79.4305 7.444 79.7905 7.788C80.1585 8.132 80.6705 8.304 81.3265 8.304ZM93.6953 2.688L92.5913 8.232C92.3753 9.336 91.9673 10.136 91.3673 10.632C90.7753 11.136 89.9593 11.388 88.9193 11.388C88.3273 11.388 87.7913 11.304 87.3113 11.136C86.8393 10.976 86.4393 10.744 86.1113 10.44L86.6153 9.792C86.8713 10.056 87.2033 10.26 87.6113 10.404C88.0273 10.556 88.4833 10.632 88.9793 10.632C89.7713 10.632 90.3873 10.448 90.8273 10.08C91.2673 9.712 91.5633 9.144 91.7153 8.376L91.8593 7.68C91.5553 8.024 91.1873 8.292 90.7553 8.484C90.3313 8.668 89.8593 8.76 89.3393 8.76C88.4993 8.76 87.8233 8.532 87.3113 8.076C86.8073 7.62 86.5553 7 86.5553 6.216C86.5553 5.544 86.7073 4.936 87.0113 4.392C87.3233 3.848 87.7513 3.42 88.2953 3.108C88.8473 2.796 89.4673 2.64 90.1553 2.64C90.7553 2.64 91.2713 2.764 91.7033 3.012C92.1353 3.252 92.4393 3.608 92.6153 4.08L92.8793 2.688H93.6953ZM89.5073 8.004C90.0273 8.004 90.4953 7.884 90.9113 7.644C91.3353 7.404 91.6633 7.072 91.8953 6.648C92.1353 6.224 92.2553 5.748 92.2553 5.22C92.2553 4.644 92.0713 4.196 91.7033 3.876C91.3353 3.548 90.8233 3.384 90.1673 3.384C89.6393 3.384 89.1673 3.504 88.7513 3.744C88.3353 3.984 88.0073 4.316 87.7673 4.74C87.5353 5.164 87.4193 5.64 87.4193 6.168C87.4193 6.744 87.6033 7.196 87.9713 7.524C88.3393 7.844 88.8513 8.004 89.5073 8.004ZM95.6099 6.084C95.6019 6.14 95.5979 6.224 95.5979 6.336C95.5979 6.976 95.7779 7.464 96.1379 7.8C96.5059 8.136 97.0499 8.304 97.7699 8.304C98.1859 8.304 98.5739 8.236 98.9339 8.1C99.3019 7.956 99.6019 7.76 99.8339 7.512L100.218 8.124C99.9219 8.42 99.5499 8.652 99.1019 8.82C98.6619 8.98 98.1939 9.06 97.6979 9.06C96.7859 9.06 96.0659 8.82 95.5379 8.34C95.0179 7.86 94.7579 7.204 94.7579 6.372C94.7579 5.668 94.9059 5.032 95.2019 4.464C95.5059 3.896 95.9219 3.452 96.4499 3.132C96.9859 2.804 97.5859 2.64 98.2499 2.64C99.0899 2.64 99.7579 2.88 100.254 3.36C100.75 3.832 100.998 4.484 100.998 5.316C100.998 5.548 100.97 5.804 100.914 6.084H95.6099ZM98.2259 3.36C97.5939 3.36 97.0539 3.548 96.6059 3.924C96.1579 4.3 95.8539 4.808 95.6939 5.448H100.194C100.202 5.392 100.206 5.316 100.206 5.22C100.206 4.628 100.026 4.172 99.6659 3.852C99.3059 3.524 98.8259 3.36 98.2259 3.36ZM112.221 2.688L110.961 9H110.145L110.349 8.004C110.045 8.34 109.685 8.6 109.269 8.784C108.853 8.968 108.393 9.06 107.889 9.06C107.353 9.06 106.877 8.952 106.461 8.736C106.045 8.52 105.721 8.212 105.489 7.812C105.257 7.404 105.141 6.928 105.141 6.384C105.141 5.672 105.293 5.032 105.597 4.464C105.909 3.896 106.337 3.452 106.881 3.132C107.425 2.804 108.033 2.64 108.705 2.64C109.305 2.64 109.809 2.76 110.217 3C110.625 3.232 110.921 3.568 111.105 4.008L111.369 2.688H112.221ZM108.069 8.304C108.589 8.304 109.057 8.18 109.473 7.932C109.889 7.676 110.213 7.324 110.445 6.876C110.685 6.42 110.805 5.912 110.805 5.352C110.805 4.736 110.621 4.256 110.253 3.912C109.893 3.56 109.385 3.384 108.729 3.384C108.209 3.384 107.741 3.512 107.325 3.768C106.909 4.024 106.581 4.38 106.341 4.836C106.109 5.284 105.993 5.788 105.993 6.348C105.993 6.964 106.173 7.444 106.533 7.788C106.901 8.132 107.413 8.304 108.069 8.304ZM107.697 0.215999H108.825L110.193 1.704H109.341L107.697 0.215999ZM118.25 0.0959995H119.102L117.326 9H116.474L118.25 0.0959995ZM126.717 2.688L125.457 9H124.641L124.845 8.004C124.541 8.34 124.181 8.6 123.765 8.784C123.349 8.968 122.889 9.06 122.385 9.06C121.849 9.06 121.373 8.952 120.957 8.736C120.541 8.52 120.217 8.212 119.985 7.812C119.753 7.404 119.637 6.928 119.637 6.384C119.637 5.672 119.789 5.032 120.093 4.464C120.405 3.896 120.833 3.452 121.377 3.132C121.921 2.804 122.529 2.64 123.201 2.64C123.801 2.64 124.305 2.76 124.713 3C125.121 3.232 125.417 3.568 125.601 4.008L125.865 2.688H126.717ZM122.565 8.304C123.085 8.304 123.553 8.18 123.969 7.932C124.385 7.676 124.709 7.324 124.941 6.876C125.181 6.42 125.301 5.912 125.301 5.352C125.301 4.736 125.117 4.256 124.749 3.912C124.389 3.56 123.881 3.384 123.225 3.384C122.705 3.384 122.237 3.512 121.821 3.768C121.405 4.024 121.077 4.38 120.837 4.836C120.605 5.284 120.489 5.788 120.489 6.348C120.489 6.964 120.669 7.444 121.029 7.788C121.397 8.132 121.909 8.304 122.565 8.304ZM135.29 2.64C135.826 2.64 136.302 2.748 136.718 2.964C137.142 3.18 137.47 3.488 137.702 3.888C137.934 4.288 138.05 4.76 138.05 5.304C138.05 6.016 137.894 6.66 137.582 7.236C137.278 7.804 136.854 8.252 136.31 8.58C135.766 8.9 135.154 9.06 134.474 9.06C133.874 9.06 133.37 8.944 132.962 8.712C132.554 8.472 132.258 8.128 132.074 7.68L131.354 11.328H130.502L132.218 2.688H133.034L132.83 3.696C133.134 3.352 133.494 3.092 133.91 2.916C134.326 2.732 134.786 2.64 135.29 2.64ZM134.462 8.304C134.982 8.304 135.446 8.18 135.854 7.932C136.27 7.676 136.594 7.324 136.826 6.876C137.066 6.428 137.186 5.92 137.186 5.352C137.186 4.736 137.002 4.256 136.634 3.912C136.274 3.56 135.766 3.384 135.11 3.384C134.59 3.384 134.122 3.512 133.706 3.768C133.298 4.016 132.974 4.368 132.734 4.824C132.502 5.272 132.386 5.78 132.386 6.348C132.386 6.964 132.566 7.444 132.926 7.788C133.294 8.132 133.806 8.304 134.462 8.304ZM141.911 9.06C141.335 9.06 140.831 8.952 140.399 8.736C139.967 8.512 139.631 8.2 139.391 7.8C139.159 7.392 139.043 6.92 139.043 6.384C139.043 5.672 139.199 5.032 139.511 4.464C139.823 3.896 140.255 3.452 140.807 3.132C141.367 2.804 141.995 2.64 142.691 2.64C143.571 2.64 144.267 2.88 144.779 3.36C145.299 3.84 145.559 4.488 145.559 5.304C145.559 6.016 145.403 6.66 145.091 7.236C144.779 7.804 144.343 8.252 143.783 8.58C143.231 8.9 142.607 9.06 141.911 9.06ZM141.971 8.304C142.491 8.304 142.959 8.18 143.375 7.932C143.791 7.676 144.115 7.324 144.347 6.876C144.587 6.42 144.707 5.912 144.707 5.352C144.707 4.736 144.523 4.256 144.155 3.912C143.795 3.56 143.287 3.384 142.631 3.384C142.111 3.384 141.643 3.512 141.227 3.768C140.811 4.024 140.483 4.38 140.243 4.836C140.011 5.284 139.895 5.788 139.895 6.348C139.895 6.964 140.075 7.444 140.435 7.788C140.803 8.132 141.315 8.304 141.971 8.304ZM148.463 9.06C147.959 9.06 147.475 8.988 147.011 8.844C146.555 8.7 146.203 8.516 145.954 8.292L146.363 7.62C146.603 7.828 146.919 7.996 147.311 8.124C147.703 8.252 148.115 8.316 148.547 8.316C149.147 8.316 149.607 8.22 149.927 8.028C150.255 7.828 150.419 7.548 150.419 7.188C150.419 6.988 150.351 6.828 150.215 6.708C150.087 6.588 149.927 6.496 149.735 6.432C149.543 6.368 149.263 6.296 148.895 6.216C148.455 6.12 148.099 6.024 147.826 5.928C147.555 5.832 147.323 5.68 147.131 5.472C146.939 5.264 146.843 4.976 146.843 4.608C146.843 4.008 147.091 3.532 147.587 3.18C148.083 2.82 148.747 2.64 149.579 2.64C149.987 2.64 150.383 2.696 150.767 2.808C151.159 2.912 151.475 3.052 151.715 3.228L151.355 3.912C151.115 3.736 150.831 3.604 150.503 3.516C150.183 3.42 149.851 3.372 149.507 3.372C148.931 3.372 148.483 3.476 148.163 3.684C147.843 3.892 147.683 4.172 147.683 4.524C147.683 4.732 147.751 4.9 147.887 5.028C148.023 5.156 148.191 5.252 148.391 5.316C148.599 5.38 148.879 5.448 149.23 5.52C149.663 5.616 150.011 5.712 150.275 5.808C150.547 5.896 150.779 6.044 150.971 6.252C151.163 6.46 151.259 6.74 151.259 7.092C151.259 7.708 151.003 8.192 150.491 8.544C149.987 8.888 149.311 9.06 148.463 9.06ZM154.334 9.06C153.83 9.06 153.346 8.988 152.882 8.844C152.426 8.7 152.074 8.516 151.826 8.292L152.234 7.62C152.474 7.828 152.79 7.996 153.182 8.124C153.574 8.252 153.986 8.316 154.418 8.316C155.018 8.316 155.478 8.22 155.798 8.028C156.126 7.828 156.29 7.548 156.29 7.188C156.29 6.988 156.222 6.828 156.086 6.708C155.958 6.588 155.798 6.496 155.606 6.432C155.414 6.368 155.134 6.296 154.766 6.216C154.326 6.12 153.97 6.024 153.698 5.928C153.426 5.832 153.194 5.68 153.002 5.472C152.81 5.264 152.714 4.976 152.714 4.608C152.714 4.008 152.962 3.532 153.458 3.18C153.954 2.82 154.618 2.64 155.45 2.64C155.858 2.64 156.254 2.696 156.638 2.808C157.03 2.912 157.346 3.052 157.586 3.228L157.226 3.912C156.986 3.736 156.702 3.604 156.374 3.516C156.054 3.42 155.722 3.372 155.378 3.372C154.802 3.372 154.354 3.476 154.034 3.684C153.714 3.892 153.554 4.172 153.554 4.524C153.554 4.732 153.622 4.9 153.758 5.028C153.894 5.156 154.062 5.252 154.262 5.316C154.47 5.38 154.75 5.448 155.102 5.52C155.534 5.616 155.882 5.712 156.146 5.808C156.418 5.896 156.65 6.044 156.842 6.252C157.034 6.46 157.13 6.74 157.13 7.092C157.13 7.708 156.874 8.192 156.362 8.544C155.858 8.888 155.182 9.06 154.334 9.06ZM159.161 6.084C159.153 6.14 159.149 6.224 159.149 6.336C159.149 6.976 159.329 7.464 159.689 7.8C160.057 8.136 160.601 8.304 161.321 8.304C161.737 8.304 162.125 8.236 162.485 8.1C162.853 7.956 163.153 7.76 163.385 7.512L163.769 8.124C163.473 8.42 163.101 8.652 162.653 8.82C162.213 8.98 161.745 9.06 161.249 9.06C160.337 9.06 159.617 8.82 159.089 8.34C158.569 7.86 158.309 7.204 158.309 6.372C158.309 5.668 158.457 5.032 158.753 4.464C159.057 3.896 159.473 3.452 160.001 3.132C160.537 2.804 161.137 2.64 161.801 2.64C162.641 2.64 163.309 2.88 163.805 3.36C164.301 3.832 164.549 4.484 164.549 5.316C164.549 5.548 164.521 5.804 164.465 6.084H159.161ZM161.777 3.36C161.145 3.36 160.605 3.548 160.157 3.924C159.709 4.3 159.405 4.808 159.245 5.448H163.745C163.753 5.392 163.757 5.316 163.757 5.22C163.757 4.628 163.577 4.172 163.217 3.852C162.857 3.524 162.377 3.36 161.777 3.36ZM167.447 9.06C166.943 9.06 166.459 8.988 165.995 8.844C165.539 8.7 165.187 8.516 164.939 8.292L165.347 7.62C165.587 7.828 165.903 7.996 166.295 8.124C166.687 8.252 167.099 8.316 167.531 8.316C168.131 8.316 168.591 8.22 168.911 8.028C169.239 7.828 169.403 7.548 169.403 7.188C169.403 6.988 169.335 6.828 169.199 6.708C169.071 6.588 168.911 6.496 168.719 6.432C168.527 6.368 168.247 6.296 167.879 6.216C167.439 6.12 167.083 6.024 166.811 5.928C166.539 5.832 166.307 5.68 166.115 5.472C165.923 5.264 165.827 4.976 165.827 4.608C165.827 4.008 166.075 3.532 166.571 3.18C167.067 2.82 167.731 2.64 168.563 2.64C168.971 2.64 169.367 2.696 169.751 2.808C170.143 2.912 170.459 3.052 170.699 3.228L170.339 3.912C170.099 3.736 169.815 3.604 169.487 3.516C169.167 3.42 168.835 3.372 168.491 3.372C167.915 3.372 167.467 3.476 167.147 3.684C166.827 3.892 166.667 4.172 166.667 4.524C166.667 4.732 166.735 4.9 166.871 5.028C167.007 5.156 167.175 5.252 167.375 5.316C167.583 5.38 167.863 5.448 168.215 5.52C168.647 5.616 168.995 5.712 169.259 5.808C169.531 5.896 169.763 6.044 169.955 6.252C170.147 6.46 170.243 6.74 170.243 7.092C170.243 7.708 169.987 8.192 169.475 8.544C168.971 8.888 168.295 9.06 167.447 9.06ZM173.318 9.06C172.814 9.06 172.33 8.988 171.866 8.844C171.41 8.7 171.058 8.516 170.81 8.292L171.218 7.62C171.458 7.828 171.774 7.996 172.166 8.124C172.558 8.252 172.97 8.316 173.402 8.316C174.002 8.316 174.462 8.22 174.782 8.028C175.11 7.828 175.274 7.548 175.274 7.188C175.274 6.988 175.206 6.828 175.07 6.708C174.942 6.588 174.782 6.496 174.59 6.432C174.398 6.368 174.118 6.296 173.75 6.216C173.31 6.12 172.954 6.024 172.682 5.928C172.41 5.832 172.178 5.68 171.986 5.472C171.794 5.264 171.698 4.976 171.698 4.608C171.698 4.008 171.946 3.532 172.442 3.18C172.938 2.82 173.602 2.64 174.434 2.64C174.842 2.64 175.238 2.696 175.622 2.808C176.014 2.912 176.33 3.052 176.57 3.228L176.21 3.912C175.97 3.736 175.686 3.604 175.358 3.516C175.038 3.42 174.706 3.372 174.362 3.372C173.786 3.372 173.338 3.476 173.018 3.684C172.698 3.892 172.538 4.172 172.538 4.524C172.538 4.732 172.606 4.9 172.742 5.028C172.878 5.156 173.046 5.252 173.246 5.316C173.454 5.38 173.734 5.448 174.086 5.52C174.518 5.616 174.866 5.712 175.13 5.808C175.402 5.896 175.634 6.044 175.826 6.252C176.018 6.46 176.114 6.74 176.114 7.092C176.114 7.708 175.858 8.192 175.346 8.544C174.842 8.888 174.166 9.06 173.318 9.06ZM178.601 2.688H179.453L178.205 9H177.353L178.601 2.688ZM179.393 1.308C179.225 1.308 179.085 1.252 178.973 1.14C178.869 1.028 178.817 0.896 178.817 0.744C178.817 0.56 178.877 0.408 178.997 0.288C179.125 0.16 179.285 0.0959995 179.477 0.0959995C179.645 0.0959995 179.785 0.151999 179.897 0.263999C180.009 0.368 180.065 0.492 180.065 0.636C180.065 0.828 180.001 0.988 179.873 1.116C179.745 1.244 179.585 1.308 179.393 1.308ZM183.384 9.06C182.808 9.06 182.304 8.952 181.872 8.736C181.44 8.512 181.104 8.2 180.864 7.8C180.632 7.392 180.516 6.92 180.516 6.384C180.516 5.672 180.672 5.032 180.984 4.464C181.296 3.896 181.728 3.452 182.28 3.132C182.84 2.804 183.468 2.64 184.164 2.64C185.044 2.64 185.74 2.88 186.252 3.36C186.772 3.84 187.032 4.488 187.032 5.304C187.032 6.016 186.876 6.66 186.564 7.236C186.252 7.804 185.816 8.252 185.256 8.58C184.704 8.9 184.08 9.06 183.384 9.06ZM183.444 8.304C183.964 8.304 184.432 8.18 184.848 7.932C185.264 7.676 185.588 7.324 185.82 6.876C186.06 6.42 186.18 5.912 186.18 5.352C186.18 4.736 185.996 4.256 185.628 3.912C185.268 3.56 184.76 3.384 184.104 3.384C183.584 3.384 183.116 3.512 182.7 3.768C182.284 4.024 181.956 4.38 181.716 4.836C181.484 5.284 181.368 5.788 181.368 6.348C181.368 6.964 181.548 7.444 181.908 7.788C182.276 8.132 182.788 8.304 183.444 8.304ZM192.431 2.64C193.143 2.64 193.695 2.824 194.087 3.192C194.487 3.552 194.687 4.052 194.687 4.692C194.687 4.916 194.663 5.156 194.615 5.412L193.895 9H193.043L193.763 5.4C193.803 5.176 193.823 4.984 193.823 4.824C193.823 4.368 193.683 4.02 193.403 3.78C193.131 3.532 192.727 3.408 192.191 3.408C191.511 3.408 190.951 3.596 190.511 3.972C190.071 4.34 189.775 4.888 189.623 5.616L188.951 9H188.099L189.347 2.688H190.163L189.959 3.696C190.559 2.992 191.383 2.64 192.431 2.64Z" fill="#3C3C3C"/>
</svg>
