<svg width="367" height="62" viewBox="0 0 367 62" fill="none" xmlns="http://www.w3.org/2000/svg">
<path d="M2.03053 3.362C2.19853 3.458 2.33053 3.596 2.42653 3.776C2.53453 3.944 2.58853 4.136 2.58853 4.352C2.58853 4.724 2.46253 5.036 2.21053 5.288C1.97053 5.54 1.67653 5.666 1.32853 5.666C1.00453 5.666 0.728531 5.558 0.500531 5.342C0.284531 5.126 0.176531 4.85 0.176531 4.514C0.176531 4.334 0.206531 4.166 0.266531 4.01C0.326531 3.842 0.434531 3.62 0.590531 3.344L2.10253 0.643999H3.23653L2.03053 3.362ZM5.43253 3.362C5.60053 3.458 5.73253 3.596 5.82853 3.776C5.93653 3.944 5.99053 4.136 5.99053 4.352C5.99053 4.724 5.86453 5.036 5.61253 5.288C5.37253 5.54 5.07853 5.666 4.73053 5.666C4.40653 5.666 4.13053 5.558 3.90253 5.342C3.68653 5.126 3.57853 4.85 3.57853 4.514C3.57853 4.334 3.60853 4.166 3.66853 4.01C3.72853 3.842 3.83653 3.62 3.99253 3.344L5.50453 0.643999H6.63853L5.43253 3.362ZM9.33881 1.4H11.1388L8.92481 12.434H15.7648L15.4588 14H6.81881L9.33881 1.4ZM28.0213 4.46L26.1313 14H24.4753L24.7093 12.83C24.2773 13.238 23.7733 13.556 23.1973 13.784C22.6333 14 22.0153 14.108 21.3433 14.108C20.5273 14.108 19.8013 13.946 19.1653 13.622C18.5293 13.286 18.0313 12.806 17.6713 12.182C17.3113 11.558 17.1313 10.826 17.1313 9.986C17.1313 8.906 17.3653 7.94 17.8333 7.088C18.3013 6.236 18.9433 5.57 19.7593 5.09C20.5873 4.61 21.5113 4.37 22.5313 4.37C23.3473 4.37 24.0433 4.514 24.6193 4.802C25.2073 5.09 25.6573 5.516 25.9693 6.08L26.2933 4.46H28.0213ZM21.7213 12.596C22.4293 12.596 23.0653 12.428 23.6293 12.092C24.2053 11.744 24.6493 11.264 24.9613 10.652C25.2853 10.04 25.4473 9.344 25.4473 8.564C25.4473 7.712 25.2013 7.052 24.7093 6.584C24.2173 6.116 23.5153 5.882 22.6033 5.882C21.8953 5.882 21.2593 6.056 20.6953 6.404C20.1313 6.74 19.6873 7.214 19.3633 7.826C19.0393 8.438 18.8773 9.134 18.8773 9.914C18.8773 10.754 19.1233 11.414 19.6153 11.894C20.1193 12.362 20.8213 12.596 21.7213 12.596ZM44.5848 4.46L38.5188 14H36.7548L34.4688 4.46H36.1968L37.9788 12.11L42.8388 4.46H44.5848ZM46.1975 4.46H47.9255L46.0355 14H44.3075L46.1975 4.46ZM47.5655 2.624C47.2535 2.624 46.9955 2.522 46.7915 2.318C46.5875 2.114 46.4855 1.868 46.4855 1.58C46.4855 1.244 46.5995 0.961999 46.8275 0.733999C47.0675 0.493999 47.3675 0.373999 47.7275 0.373999C48.0395 0.373999 48.2975 0.476 48.5015 0.68C48.7175 0.872 48.8255 1.106 48.8255 1.382C48.8255 1.754 48.7055 2.054 48.4655 2.282C48.2375 2.51 47.9375 2.624 47.5655 2.624ZM51.0088 9.77V9.878C51.0088 10.766 51.2608 11.444 51.7648 11.912C52.2688 12.368 53.0248 12.596 54.0328 12.596C54.6208 12.596 55.1728 12.5 55.6888 12.308C56.2048 12.104 56.6368 11.834 56.9848 11.498L57.7228 12.74C57.2548 13.172 56.6848 13.508 56.0128 13.748C55.3408 13.988 54.6328 14.108 53.8888 14.108C52.9528 14.108 52.1428 13.94 51.4588 13.604C50.7748 13.268 50.2468 12.788 49.8748 12.164C49.5028 11.54 49.3168 10.808 49.3168 9.968C49.3168 8.9 49.5448 7.94 50.0008 7.088C50.4688 6.236 51.1108 5.57 51.9268 5.09C52.7548 4.61 53.6788 4.37 54.6988 4.37C55.9948 4.37 57.0268 4.742 57.7948 5.486C58.5748 6.218 58.9648 7.22 58.9648 8.492C58.9648 8.876 58.9228 9.302 58.8388 9.77H51.0088ZM54.6268 5.81C53.7748 5.81 53.0428 6.05 52.4308 6.53C51.8188 7.01 51.4048 7.67 51.1888 8.51H57.3448C57.3928 7.658 57.1648 6.998 56.6608 6.53C56.1688 6.05 55.4908 5.81 54.6268 5.81ZM66.8467 9.77V9.878C66.8467 10.766 67.0987 11.444 67.6027 11.912C68.1067 12.368 68.8627 12.596 69.8707 12.596C70.4587 12.596 71.0107 12.5 71.5267 12.308C72.0427 12.104 72.4747 11.834 72.8227 11.498L73.5607 12.74C73.0927 13.172 72.5227 13.508 71.8507 13.748C71.1787 13.988 70.4707 14.108 69.7267 14.108C68.7907 14.108 67.9807 13.94 67.2967 13.604C66.6127 13.268 66.0847 12.788 65.7127 12.164C65.3407 11.54 65.1547 10.808 65.1547 9.968C65.1547 8.9 65.3827 7.94 65.8387 7.088C66.3067 6.236 66.9487 5.57 67.7647 5.09C68.5927 4.61 69.5167 4.37 70.5367 4.37C71.8327 4.37 72.8647 4.742 73.6327 5.486C74.4127 6.218 74.8027 7.22 74.8027 8.492C74.8027 8.876 74.7607 9.302 74.6767 9.77H66.8467ZM70.4647 5.81C69.6127 5.81 68.8807 6.05 68.2687 6.53C67.6567 7.01 67.2427 7.67 67.0267 8.51H73.1827C73.2307 7.658 73.0027 6.998 72.4987 6.53C72.0067 6.05 71.3287 5.81 70.4647 5.81ZM79.1826 14.108C78.3906 14.108 77.6346 14.006 76.9146 13.802C76.2066 13.598 75.6546 13.334 75.2586 13.01L76.0326 11.642C76.4046 11.942 76.8846 12.182 77.4726 12.362C78.0726 12.53 78.6966 12.614 79.3446 12.614C80.1606 12.614 80.7786 12.494 81.1986 12.254C81.6306 12.002 81.8466 11.654 81.8466 11.21C81.8466 10.85 81.6726 10.592 81.3246 10.436C80.9886 10.28 80.4606 10.124 79.7406 9.968C79.0686 9.824 78.5166 9.68 78.0846 9.536C77.6646 9.38 77.3046 9.14 77.0046 8.816C76.7046 8.48 76.5546 8.03 76.5546 7.466C76.5546 6.842 76.7286 6.296 77.0766 5.828C77.4366 5.36 77.9406 5 78.5886 4.748C79.2486 4.496 80.0106 4.37 80.8746 4.37C81.5106 4.37 82.1286 4.448 82.7286 4.604C83.3286 4.76 83.8206 4.97 84.2046 5.234L83.5206 6.602C83.1486 6.35 82.7166 6.164 82.2246 6.044C81.7326 5.912 81.2286 5.846 80.7126 5.846C79.9326 5.846 79.3326 5.978 78.9126 6.242C78.4926 6.494 78.2826 6.836 78.2826 7.268C78.2826 7.652 78.4566 7.928 78.8046 8.096C79.1526 8.252 79.6926 8.408 80.4246 8.564C81.0846 8.708 81.6246 8.852 82.0446 8.996C82.4646 9.14 82.8186 9.374 83.1066 9.698C83.4066 10.022 83.5566 10.46 83.5566 11.012C83.5566 11.984 83.1546 12.746 82.3506 13.298C81.5586 13.838 80.5026 14.108 79.1826 14.108ZM87.7502 10.958C87.7142 11.138 87.6962 11.306 87.6962 11.462C87.6962 11.846 87.7982 12.14 88.0022 12.344C88.2182 12.548 88.5362 12.65 88.9562 12.65C89.4602 12.65 89.9162 12.5 90.3242 12.2L90.6842 13.514C90.1082 13.91 89.3702 14.108 88.4702 14.108C87.7142 14.108 87.1022 13.898 86.6342 13.478C86.1782 13.046 85.9502 12.458 85.9502 11.714C85.9502 11.462 85.9742 11.222 86.0222 10.994L87.0482 5.882H85.4282L85.6982 4.46H87.3362L87.7502 2.372H89.4782L89.0642 4.46H91.8002L91.5122 5.882H88.7762L87.7502 10.958ZM101.999 14.108C101.087 14.108 100.289 13.94 99.6053 13.604C98.9213 13.256 98.3933 12.776 98.0213 12.164C97.6493 11.54 97.4633 10.814 97.4633 9.986C97.4633 8.918 97.7033 7.958 98.1833 7.106C98.6633 6.254 99.3293 5.588 100.181 5.108C101.033 4.616 101.999 4.37 103.079 4.37C104.963 4.37 106.271 5.06 107.003 6.44L105.545 7.25C105.041 6.338 104.177 5.882 102.953 5.882C102.245 5.882 101.603 6.056 101.027 6.404C100.463 6.74 100.019 7.214 99.6953 7.826C99.3713 8.438 99.2093 9.134 99.2093 9.914C99.2093 10.754 99.4553 11.414 99.9473 11.894C100.451 12.362 101.159 12.596 102.071 12.596C102.647 12.596 103.181 12.482 103.673 12.254C104.177 12.026 104.591 11.69 104.915 11.246L106.175 12.146C105.731 12.758 105.137 13.238 104.393 13.586C103.649 13.934 102.851 14.108 101.999 14.108ZM112.088 14.108C111.188 14.108 110.402 13.94 109.73 13.604C109.058 13.256 108.536 12.77 108.164 12.146C107.792 11.522 107.606 10.802 107.606 9.986C107.606 8.918 107.846 7.958 108.326 7.106C108.806 6.254 109.472 5.588 110.324 5.108C111.176 4.616 112.136 4.37 113.204 4.37C114.104 4.37 114.89 4.538 115.562 4.874C116.234 5.21 116.75 5.69 117.11 6.314C117.482 6.926 117.668 7.646 117.668 8.474C117.668 9.542 117.428 10.508 116.948 11.372C116.468 12.224 115.802 12.896 114.95 13.388C114.11 13.868 113.156 14.108 112.088 14.108ZM112.196 12.596C112.904 12.596 113.54 12.428 114.104 12.092C114.68 11.744 115.124 11.264 115.436 10.652C115.76 10.04 115.922 9.344 115.922 8.564C115.922 7.712 115.676 7.052 115.184 6.584C114.692 6.116 113.99 5.882 113.078 5.882C112.37 5.882 111.734 6.056 111.17 6.404C110.606 6.74 110.162 7.214 109.838 7.826C109.514 8.438 109.352 9.134 109.352 9.914C109.352 10.754 109.598 11.414 110.09 11.894C110.594 12.362 111.296 12.596 112.196 12.596ZM132.622 4.37C133.702 4.37 134.542 4.646 135.142 5.198C135.754 5.738 136.06 6.512 136.06 7.52C136.06 7.796 136.018 8.174 135.934 8.654L134.872 14H133.144L134.206 8.654C134.266 8.318 134.296 8.042 134.296 7.826C134.296 7.202 134.122 6.728 133.774 6.404C133.426 6.08 132.898 5.918 132.19 5.918C131.302 5.918 130.57 6.17 129.994 6.674C129.43 7.166 129.046 7.91 128.842 8.906L127.816 14H126.088L127.168 8.654C127.228 8.33 127.258 8.06 127.258 7.844C127.258 7.22 127.078 6.746 126.718 6.422C126.37 6.086 125.842 5.918 125.134 5.918C124.246 5.918 123.514 6.17 122.938 6.674C122.374 7.178 121.99 7.94 121.786 8.96L120.778 14H119.05L120.94 4.46H122.596L122.362 5.648C123.202 4.796 124.306 4.37 125.674 4.37C126.418 4.37 127.054 4.514 127.582 4.802C128.11 5.09 128.494 5.51 128.734 6.062C129.706 4.934 131.002 4.37 132.622 4.37ZM151.641 4.37C152.721 4.37 153.561 4.646 154.161 5.198C154.773 5.738 155.079 6.512 155.079 7.52C155.079 7.796 155.037 8.174 154.953 8.654L153.891 14H152.163L153.225 8.654C153.285 8.318 153.315 8.042 153.315 7.826C153.315 7.202 153.141 6.728 152.793 6.404C152.445 6.08 151.917 5.918 151.209 5.918C150.321 5.918 149.589 6.17 149.013 6.674C148.449 7.166 148.065 7.91 147.861 8.906L146.835 14H145.107L146.187 8.654C146.247 8.33 146.277 8.06 146.277 7.844C146.277 7.22 146.097 6.746 145.737 6.422C145.389 6.086 144.861 5.918 144.153 5.918C143.265 5.918 142.533 6.17 141.957 6.674C141.393 7.178 141.009 7.94 140.805 8.96L139.797 14H138.069L139.959 4.46H141.615L141.381 5.648C142.221 4.796 143.325 4.37 144.693 4.37C145.437 4.37 146.073 4.514 146.601 4.802C147.129 5.09 147.513 5.51 147.753 6.062C148.725 4.934 150.021 4.37 151.641 4.37ZM158.815 9.77V9.878C158.815 10.766 159.067 11.444 159.571 11.912C160.075 12.368 160.831 12.596 161.839 12.596C162.427 12.596 162.979 12.5 163.495 12.308C164.011 12.104 164.443 11.834 164.791 11.498L165.529 12.74C165.061 13.172 164.491 13.508 163.819 13.748C163.147 13.988 162.439 14.108 161.695 14.108C160.759 14.108 159.949 13.94 159.265 13.604C158.581 13.268 158.053 12.788 157.681 12.164C157.309 11.54 157.123 10.808 157.123 9.968C157.123 8.9 157.351 7.94 157.807 7.088C158.275 6.236 158.917 5.57 159.733 5.09C160.561 4.61 161.485 4.37 162.505 4.37C163.801 4.37 164.833 4.742 165.601 5.486C166.381 6.218 166.771 7.22 166.771 8.492C166.771 8.876 166.729 9.302 166.645 9.77H158.815ZM162.433 5.81C161.581 5.81 160.849 6.05 160.237 6.53C159.625 7.01 159.211 7.67 158.995 8.51H165.151C165.199 7.658 164.971 6.998 164.467 6.53C163.975 6.05 163.297 5.81 162.433 5.81ZM183.761 4.46L181.871 14H180.215L180.449 12.776C180.017 13.22 179.507 13.556 178.919 13.784C178.343 14 177.713 14.108 177.029 14.108C175.973 14.108 175.139 13.826 174.527 13.262C173.915 12.698 173.609 11.912 173.609 10.904C173.609 10.568 173.645 10.202 173.717 9.806L174.779 4.46H176.507L175.445 9.824C175.385 10.148 175.355 10.418 175.355 10.634C175.355 11.258 175.535 11.738 175.895 12.074C176.267 12.398 176.813 12.56 177.533 12.56C178.445 12.56 179.201 12.302 179.801 11.786C180.413 11.27 180.821 10.514 181.025 9.518L182.033 4.46H183.761ZM191.929 4.37C193.021 4.37 193.867 4.646 194.467 5.198C195.079 5.75 195.385 6.53 195.385 7.538C195.385 7.886 195.349 8.258 195.277 8.654L194.215 14H192.487L193.549 8.654C193.609 8.33 193.639 8.066 193.639 7.862C193.639 7.238 193.453 6.758 193.081 6.422C192.709 6.086 192.157 5.918 191.425 5.918C190.489 5.918 189.715 6.176 189.103 6.692C188.503 7.196 188.101 7.952 187.897 8.96L186.889 14H185.161L187.051 4.46H188.707L188.473 5.684C189.337 4.808 190.489 4.37 191.929 4.37ZM199.14 9.77V9.878C199.14 10.766 199.392 11.444 199.896 11.912C200.4 12.368 201.156 12.596 202.164 12.596C202.752 12.596 203.304 12.5 203.82 12.308C204.336 12.104 204.768 11.834 205.116 11.498L205.854 12.74C205.386 13.172 204.816 13.508 204.144 13.748C203.472 13.988 202.764 14.108 202.02 14.108C201.084 14.108 200.274 13.94 199.59 13.604C198.906 13.268 198.378 12.788 198.006 12.164C197.634 11.54 197.448 10.808 197.448 9.968C197.448 8.9 197.676 7.94 198.132 7.088C198.6 6.236 199.242 5.57 200.058 5.09C200.886 4.61 201.81 4.37 202.83 4.37C204.126 4.37 205.158 4.742 205.926 5.486C206.706 6.218 207.096 7.22 207.096 8.492C207.096 8.876 207.054 9.302 206.97 9.77H199.14ZM202.758 5.81C201.906 5.81 201.174 6.05 200.562 6.53C199.95 7.01 199.536 7.67 199.32 8.51H205.476C205.524 7.658 205.296 6.998 204.792 6.53C204.3 6.05 203.622 5.81 202.758 5.81ZM215.194 4.46H216.922L215.032 14H213.304L215.194 4.46ZM216.562 2.624C216.25 2.624 215.992 2.522 215.788 2.318C215.584 2.114 215.482 1.868 215.482 1.58C215.482 1.244 215.596 0.961999 215.824 0.733999C216.064 0.493999 216.364 0.373999 216.724 0.373999C217.036 0.373999 217.294 0.476 217.498 0.68C217.714 0.872 217.822 1.106 217.822 1.382C217.822 1.754 217.702 2.054 217.462 2.282C217.234 2.51 216.934 2.624 216.562 2.624ZM231.903 4.37C232.983 4.37 233.823 4.646 234.423 5.198C235.035 5.738 235.341 6.512 235.341 7.52C235.341 7.796 235.299 8.174 235.215 8.654L234.153 14H232.425L233.487 8.654C233.547 8.318 233.577 8.042 233.577 7.826C233.577 7.202 233.403 6.728 233.055 6.404C232.707 6.08 232.179 5.918 231.471 5.918C230.583 5.918 229.851 6.17 229.275 6.674C228.711 7.166 228.327 7.91 228.123 8.906L227.097 14H225.369L226.449 8.654C226.509 8.33 226.539 8.06 226.539 7.844C226.539 7.22 226.359 6.746 225.999 6.422C225.651 6.086 225.123 5.918 224.415 5.918C223.527 5.918 222.795 6.17 222.219 6.674C221.655 7.178 221.271 7.94 221.067 8.96L220.059 14H218.331L220.221 4.46H221.877L221.643 5.648C222.483 4.796 223.587 4.37 224.955 4.37C225.699 4.37 226.335 4.514 226.863 4.802C227.391 5.09 227.775 5.51 228.015 6.062C228.987 4.934 230.283 4.37 231.903 4.37ZM250.922 4.37C252.002 4.37 252.842 4.646 253.442 5.198C254.054 5.738 254.36 6.512 254.36 7.52C254.36 7.796 254.318 8.174 254.234 8.654L253.172 14H251.444L252.506 8.654C252.566 8.318 252.596 8.042 252.596 7.826C252.596 7.202 252.422 6.728 252.074 6.404C251.726 6.08 251.198 5.918 250.49 5.918C249.602 5.918 248.87 6.17 248.294 6.674C247.73 7.166 247.346 7.91 247.142 8.906L246.116 14H244.388L245.468 8.654C245.528 8.33 245.558 8.06 245.558 7.844C245.558 7.22 245.378 6.746 245.018 6.422C244.67 6.086 244.142 5.918 243.434 5.918C242.546 5.918 241.814 6.17 241.238 6.674C240.674 7.178 240.29 7.94 240.086 8.96L239.078 14H237.35L239.24 4.46H240.896L240.662 5.648C241.502 4.796 242.606 4.37 243.974 4.37C244.718 4.37 245.354 4.514 245.882 4.802C246.41 5.09 246.794 5.51 247.034 6.062C248.006 4.934 249.302 4.37 250.922 4.37ZM258.097 9.77V9.878C258.097 10.766 258.349 11.444 258.853 11.912C259.357 12.368 260.113 12.596 261.121 12.596C261.709 12.596 262.261 12.5 262.777 12.308C263.293 12.104 263.725 11.834 264.073 11.498L264.811 12.74C264.343 13.172 263.773 13.508 263.101 13.748C262.429 13.988 261.721 14.108 260.977 14.108C260.041 14.108 259.231 13.94 258.547 13.604C257.863 13.268 257.335 12.788 256.963 12.164C256.591 11.54 256.405 10.808 256.405 9.968C256.405 8.9 256.633 7.94 257.089 7.088C257.557 6.236 258.199 5.57 259.015 5.09C259.843 4.61 260.767 4.37 261.787 4.37C263.083 4.37 264.115 4.742 264.883 5.486C265.663 6.218 266.053 7.22 266.053 8.492C266.053 8.876 266.011 9.302 265.927 9.77H258.097ZM261.715 5.81C260.863 5.81 260.131 6.05 259.519 6.53C258.907 7.01 258.493 7.67 258.277 8.51H264.433C264.481 7.658 264.253 6.998 263.749 6.53C263.257 6.05 262.579 5.81 261.715 5.81ZM274.195 4.37C275.287 4.37 276.133 4.646 276.733 5.198C277.345 5.75 277.651 6.53 277.651 7.538C277.651 7.886 277.615 8.258 277.543 8.654L276.481 14H274.753L275.815 8.654C275.875 8.33 275.905 8.066 275.905 7.862C275.905 7.238 275.719 6.758 275.347 6.422C274.975 6.086 274.423 5.918 273.691 5.918C272.755 5.918 271.981 6.176 271.369 6.692C270.769 7.196 270.367 7.952 270.163 8.96L269.155 14H267.427L269.317 4.46H270.973L270.739 5.684C271.603 4.808 272.755 4.37 274.195 4.37ZM282.685 14.108C281.893 14.108 281.137 14.006 280.417 13.802C279.709 13.598 279.157 13.334 278.761 13.01L279.535 11.642C279.907 11.942 280.387 12.182 280.975 12.362C281.575 12.53 282.199 12.614 282.847 12.614C283.663 12.614 284.281 12.494 284.701 12.254C285.133 12.002 285.349 11.654 285.349 11.21C285.349 10.85 285.175 10.592 284.827 10.436C284.491 10.28 283.963 10.124 283.243 9.968C282.571 9.824 282.019 9.68 281.587 9.536C281.167 9.38 280.807 9.14 280.507 8.816C280.207 8.48 280.057 8.03 280.057 7.466C280.057 6.842 280.231 6.296 280.579 5.828C280.939 5.36 281.443 5 282.091 4.748C282.751 4.496 283.513 4.37 284.377 4.37C285.013 4.37 285.631 4.448 286.231 4.604C286.831 4.76 287.323 4.97 287.707 5.234L287.023 6.602C286.651 6.35 286.219 6.164 285.727 6.044C285.235 5.912 284.731 5.846 284.215 5.846C283.435 5.846 282.835 5.978 282.415 6.242C281.995 6.494 281.785 6.836 281.785 7.268C281.785 7.652 281.959 7.928 282.307 8.096C282.655 8.252 283.195 8.408 283.927 8.564C284.587 8.708 285.127 8.852 285.547 8.996C285.967 9.14 286.321 9.374 286.609 9.698C286.909 10.022 287.059 10.46 287.059 11.012C287.059 11.984 286.657 12.746 285.853 13.298C285.061 13.838 284.005 14.108 282.685 14.108ZM290.37 9.77V9.878C290.37 10.766 290.622 11.444 291.126 11.912C291.63 12.368 292.386 12.596 293.394 12.596C293.982 12.596 294.534 12.5 295.05 12.308C295.566 12.104 295.998 11.834 296.346 11.498L297.084 12.74C296.616 13.172 296.046 13.508 295.374 13.748C294.702 13.988 293.994 14.108 293.25 14.108C292.314 14.108 291.504 13.94 290.82 13.604C290.136 13.268 289.608 12.788 289.236 12.164C288.864 11.54 288.678 10.808 288.678 9.968C288.678 8.9 288.906 7.94 289.362 7.088C289.83 6.236 290.472 5.57 291.288 5.09C292.116 4.61 293.04 4.37 294.06 4.37C295.356 4.37 296.388 4.742 297.156 5.486C297.936 6.218 298.326 7.22 298.326 8.492C298.326 8.876 298.284 9.302 298.2 9.77H290.37ZM293.988 5.81C293.136 5.81 292.404 6.05 291.792 6.53C291.18 7.01 290.766 7.67 290.55 8.51H296.706C296.754 7.658 296.526 6.998 296.022 6.53C295.53 6.05 294.852 5.81 293.988 5.81ZM309.052 14.108C308.14 14.108 307.342 13.94 306.658 13.604C305.974 13.256 305.446 12.776 305.074 12.164C304.702 11.54 304.516 10.814 304.516 9.986C304.516 8.918 304.756 7.958 305.236 7.106C305.716 6.254 306.382 5.588 307.234 5.108C308.086 4.616 309.052 4.37 310.132 4.37C312.016 4.37 313.324 5.06 314.056 6.44L312.598 7.25C312.094 6.338 311.23 5.882 310.006 5.882C309.298 5.882 308.656 6.056 308.08 6.404C307.516 6.74 307.072 7.214 306.748 7.826C306.424 8.438 306.262 9.134 306.262 9.914C306.262 10.754 306.508 11.414 307 11.894C307.504 12.362 308.212 12.596 309.124 12.596C309.7 12.596 310.234 12.482 310.726 12.254C311.23 12.026 311.644 11.69 311.968 11.246L313.228 12.146C312.784 12.758 312.19 13.238 311.446 13.586C310.702 13.934 309.904 14.108 309.052 14.108ZM321.462 4.37C322.554 4.37 323.4 4.646 324 5.198C324.612 5.75 324.918 6.53 324.918 7.538C324.918 7.886 324.882 8.258 324.81 8.654L323.748 14H322.02L323.082 8.654C323.142 8.33 323.172 8.066 323.172 7.862C323.172 7.238 322.986 6.758 322.614 6.422C322.242 6.086 321.69 5.918 320.958 5.918C320.022 5.918 319.248 6.176 318.636 6.692C318.036 7.196 317.634 7.952 317.43 8.96L316.422 14H314.694L317.358 0.643999H319.086L318.096 5.576C318.948 4.772 320.07 4.37 321.462 4.37ZM337.871 4.46L335.981 14H334.325L334.559 12.83C334.127 13.238 333.623 13.556 333.047 13.784C332.483 14 331.865 14.108 331.193 14.108C330.377 14.108 329.651 13.946 329.015 13.622C328.379 13.286 327.881 12.806 327.521 12.182C327.161 11.558 326.981 10.826 326.981 9.986C326.981 8.906 327.215 7.94 327.683 7.088C328.151 6.236 328.793 5.57 329.609 5.09C330.437 4.61 331.361 4.37 332.381 4.37C333.197 4.37 333.893 4.514 334.469 4.802C335.057 5.09 335.507 5.516 335.819 6.08L336.143 4.46H337.871ZM331.571 12.596C332.279 12.596 332.915 12.428 333.479 12.092C334.055 11.744 334.499 11.264 334.811 10.652C335.135 10.04 335.297 9.344 335.297 8.564C335.297 7.712 335.051 7.052 334.559 6.584C334.067 6.116 333.365 5.882 332.453 5.882C331.745 5.882 331.109 6.056 330.545 6.404C329.981 6.74 329.537 7.214 329.213 7.826C328.889 8.438 328.727 9.134 328.727 9.914C328.727 10.754 328.973 11.414 329.465 11.894C329.969 12.362 330.671 12.596 331.571 12.596ZM342.274 14.108C341.482 14.108 340.726 14.006 340.006 13.802C339.298 13.598 338.746 13.334 338.35 13.01L339.124 11.642C339.496 11.942 339.976 12.182 340.564 12.362C341.164 12.53 341.788 12.614 342.436 12.614C343.252 12.614 343.87 12.494 344.29 12.254C344.722 12.002 344.938 11.654 344.938 11.21C344.938 10.85 344.764 10.592 344.416 10.436C344.08 10.28 343.552 10.124 342.832 9.968C342.16 9.824 341.608 9.68 341.176 9.536C340.756 9.38 340.396 9.14 340.096 8.816C339.796 8.48 339.646 8.03 339.646 7.466C339.646 6.842 339.82 6.296 340.168 5.828C340.528 5.36 341.032 5 341.68 4.748C342.34 4.496 343.102 4.37 343.966 4.37C344.602 4.37 345.22 4.448 345.82 4.604C346.42 4.76 346.912 4.97 347.296 5.234L346.612 6.602C346.24 6.35 345.808 6.164 345.316 6.044C344.824 5.912 344.32 5.846 343.804 5.846C343.024 5.846 342.424 5.978 342.004 6.242C341.584 6.494 341.374 6.836 341.374 7.268C341.374 7.652 341.548 7.928 341.896 8.096C342.244 8.252 342.784 8.408 343.516 8.564C344.176 8.708 344.716 8.852 345.136 8.996C345.556 9.14 345.91 9.374 346.198 9.698C346.498 10.022 346.648 10.46 346.648 11.012C346.648 11.984 346.246 12.746 345.442 13.298C344.65 13.838 343.594 14.108 342.274 14.108ZM351.292 14.108C350.5 14.108 349.744 14.006 349.024 13.802C348.316 13.598 347.764 13.334 347.368 13.01L348.142 11.642C348.514 11.942 348.994 12.182 349.582 12.362C350.182 12.53 350.806 12.614 351.454 12.614C352.27 12.614 352.888 12.494 353.308 12.254C353.74 12.002 353.956 11.654 353.956 11.21C353.956 10.85 353.782 10.592 353.434 10.436C353.098 10.28 352.57 10.124 351.85 9.968C351.178 9.824 350.626 9.68 350.194 9.536C349.774 9.38 349.414 9.14 349.114 8.816C348.814 8.48 348.664 8.03 348.664 7.466C348.664 6.842 348.838 6.296 349.186 5.828C349.546 5.36 350.05 5 350.698 4.748C351.358 4.496 352.12 4.37 352.984 4.37C353.62 4.37 354.238 4.448 354.838 4.604C355.438 4.76 355.93 4.97 356.314 5.234L355.63 6.602C355.258 6.35 354.826 6.164 354.334 6.044C353.842 5.912 353.338 5.846 352.822 5.846C352.042 5.846 351.442 5.978 351.022 6.242C350.602 6.494 350.392 6.836 350.392 7.268C350.392 7.652 350.566 7.928 350.914 8.096C351.262 8.252 351.802 8.408 352.534 8.564C353.194 8.708 353.734 8.852 354.154 8.996C354.574 9.14 354.928 9.374 355.216 9.698C355.516 10.022 355.666 10.46 355.666 11.012C355.666 11.984 355.264 12.746 354.46 13.298C353.668 13.838 352.612 14.108 351.292 14.108ZM358.978 9.77V9.878C358.978 10.766 359.23 11.444 359.734 11.912C360.238 12.368 360.994 12.596 362.002 12.596C362.59 12.596 363.142 12.5 363.658 12.308C364.174 12.104 364.606 11.834 364.954 11.498L365.692 12.74C365.224 13.172 364.654 13.508 363.982 13.748C363.31 13.988 362.602 14.108 361.858 14.108C360.922 14.108 360.112 13.94 359.428 13.604C358.744 13.268 358.216 12.788 357.844 12.164C357.472 11.54 357.286 10.808 357.286 9.968C357.286 8.9 357.514 7.94 357.97 7.088C358.438 6.236 359.08 5.57 359.896 5.09C360.724 4.61 361.648 4.37 362.668 4.37C363.964 4.37 364.996 4.742 365.764 5.486C366.544 6.218 366.934 7.22 366.934 8.492C366.934 8.876 366.892 9.302 366.808 9.77H358.978ZM362.596 5.81C361.744 5.81 361.012 6.05 360.4 6.53C359.788 7.01 359.374 7.67 359.158 8.51H365.314C365.362 7.658 365.134 6.998 364.63 6.53C364.138 6.05 363.46 5.81 362.596 5.81ZM12.7898 26.46L10.8998 36H9.24382L9.47782 34.83C9.04582 35.238 8.54182 35.556 7.96582 35.784C7.40182 36 6.78382 36.108 6.11182 36.108C5.29582 36.108 4.56982 35.946 3.93382 35.622C3.29782 35.286 2.79982 34.806 2.43982 34.182C2.07982 33.558 1.89982 32.826 1.89982 31.986C1.89982 30.906 2.13382 29.94 2.60182 29.088C3.06982 28.236 3.71182 27.57 4.52782 27.09C5.35582 26.61 6.27982 26.37 7.29982 26.37C8.11582 26.37 8.81182 26.514 9.38782 26.802C9.97582 27.09 10.4258 27.516 10.7378 28.08L11.0618 26.46H12.7898ZM6.48982 34.596C7.19782 34.596 7.83382 34.428 8.39782 34.092C8.97382 33.744 9.41782 33.264 9.72982 32.652C10.0538 32.04 10.2158 31.344 10.2158 30.564C10.2158 29.712 9.96982 29.052 9.47782 28.584C8.98582 28.116 8.28382 27.882 7.37182 27.882C6.66382 27.882 6.02782 28.056 5.46382 28.404C4.89982 28.74 4.45582 29.214 4.13182 29.826C3.80782 30.438 3.64582 31.134 3.64582 31.914C3.64582 32.754 3.89182 33.414 4.38382 33.894C4.88782 34.362 5.58982 34.596 6.48982 34.596ZM24.9694 26.46L23.0794 36H21.4234L21.6574 34.776C21.2254 35.22 20.7154 35.556 20.1274 35.784C19.5514 36 18.9214 36.108 18.2374 36.108C17.1814 36.108 16.3474 35.826 15.7354 35.262C15.1234 34.698 14.8174 33.912 14.8174 32.904C14.8174 32.568 14.8534 32.202 14.9254 31.806L15.9874 26.46H17.7154L16.6534 31.824C16.5934 32.148 16.5634 32.418 16.5634 32.634C16.5634 33.258 16.7434 33.738 17.1034 34.074C17.4754 34.398 18.0214 34.56 18.7414 34.56C19.6534 34.56 20.4094 34.302 21.0094 33.786C21.6214 33.27 22.0294 32.514 22.2334 31.518L23.2414 26.46H24.9694ZM33.759 32.958C33.723 33.138 33.705 33.306 33.705 33.462C33.705 33.846 33.807 34.14 34.011 34.344C34.227 34.548 34.545 34.65 34.965 34.65C35.469 34.65 35.925 34.5 36.333 34.2L36.693 35.514C36.117 35.91 35.379 36.108 34.479 36.108C33.723 36.108 33.111 35.898 32.643 35.478C32.187 35.046 31.959 34.458 31.959 33.714C31.959 33.462 31.983 33.222 32.031 32.994L33.057 27.882H31.437L31.707 26.46H33.345L33.759 24.372H35.487L35.073 26.46H37.809L37.521 27.882H34.785L33.759 32.958ZM41.9321 27.882C42.3521 27.354 42.8681 26.97 43.4801 26.73C44.0921 26.49 44.8361 26.37 45.7121 26.37L45.3881 28.044C45.2801 28.032 45.1301 28.026 44.9381 28.026C42.9581 28.026 41.7581 29.094 41.3381 31.23L40.3841 36H38.6561L40.5461 26.46H42.2021L41.9321 27.882ZM47.502 31.77V31.878C47.502 32.766 47.754 33.444 48.258 33.912C48.762 34.368 49.518 34.596 50.526 34.596C51.114 34.596 51.666 34.5 52.182 34.308C52.698 34.104 53.13 33.834 53.478 33.498L54.216 34.74C53.748 35.172 53.178 35.508 52.506 35.748C51.834 35.988 51.126 36.108 50.382 36.108C49.446 36.108 48.636 35.94 47.952 35.604C47.268 35.268 46.74 34.788 46.368 34.164C45.996 33.54 45.81 32.808 45.81 31.968C45.81 30.9 46.038 29.94 46.494 29.088C46.962 28.236 47.604 27.57 48.42 27.09C49.248 26.61 50.172 26.37 51.192 26.37C52.488 26.37 53.52 26.742 54.288 27.486C55.068 28.218 55.458 29.22 55.458 30.492C55.458 30.876 55.416 31.302 55.332 31.77H47.502ZM51.12 27.81C50.268 27.81 49.536 28.05 48.924 28.53C48.312 29.01 47.898 29.67 47.682 30.51H53.838C53.886 29.658 53.658 28.998 53.154 28.53C52.662 28.05 51.984 27.81 51.12 27.81ZM53.082 22.752H55.332L52.056 25.092H50.364L53.082 22.752ZM59.8379 36.108C59.0459 36.108 58.2899 36.006 57.5699 35.802C56.8619 35.598 56.3099 35.334 55.9139 35.01L56.6879 33.642C57.0599 33.942 57.5399 34.182 58.1279 34.362C58.7279 34.53 59.3519 34.614 59.9999 34.614C60.8159 34.614 61.4339 34.494 61.8539 34.254C62.2859 34.002 62.5019 33.654 62.5019 33.21C62.5019 32.85 62.3279 32.592 61.9799 32.436C61.6439 32.28 61.1159 32.124 60.3959 31.968C59.7239 31.824 59.1719 31.68 58.7399 31.536C58.3199 31.38 57.9599 31.14 57.6599 30.816C57.3599 30.48 57.2099 30.03 57.2099 29.466C57.2099 28.842 57.3839 28.296 57.7319 27.828C58.0919 27.36 58.5959 27 59.2439 26.748C59.9039 26.496 60.6659 26.37 61.5299 26.37C62.1659 26.37 62.7839 26.448 63.3839 26.604C63.9839 26.76 64.4759 26.97 64.8599 27.234L64.1759 28.602C63.8039 28.35 63.3719 28.164 62.8799 28.044C62.3879 27.912 61.8839 27.846 61.3679 27.846C60.5879 27.846 59.9879 27.978 59.5679 28.242C59.1479 28.494 58.9379 28.836 58.9379 29.268C58.9379 29.652 59.1119 29.928 59.4599 30.096C59.8079 30.252 60.3479 30.408 61.0799 30.564C61.7399 30.708 62.2799 30.852 62.6999 30.996C63.1199 31.14 63.4739 31.374 63.7619 31.698C64.0619 32.022 64.2119 32.46 64.2119 33.012C64.2119 33.984 63.8099 34.746 63.0059 35.298C62.2139 35.838 61.1579 36.108 59.8379 36.108ZM70.3135 36.108C69.4135 36.108 68.6275 35.94 67.9555 35.604C67.2835 35.256 66.7615 34.77 66.3895 34.146C66.0175 33.522 65.8315 32.802 65.8315 31.986C65.8315 30.918 66.0715 29.958 66.5515 29.106C67.0315 28.254 67.6975 27.588 68.5495 27.108C69.4015 26.616 70.3615 26.37 71.4295 26.37C72.3295 26.37 73.1155 26.538 73.7875 26.874C74.4595 27.21 74.9755 27.69 75.3355 28.314C75.7075 28.926 75.8935 29.646 75.8935 30.474C75.8935 31.542 75.6535 32.508 75.1735 33.372C74.6935 34.224 74.0275 34.896 73.1755 35.388C72.3355 35.868 71.3815 36.108 70.3135 36.108ZM70.4215 34.596C71.1295 34.596 71.7655 34.428 72.3295 34.092C72.9055 33.744 73.3495 33.264 73.6615 32.652C73.9855 32.04 74.1475 31.344 74.1475 30.564C74.1475 29.712 73.9015 29.052 73.4095 28.584C72.9175 28.116 72.2155 27.882 71.3035 27.882C70.5955 27.882 69.9595 28.056 69.3955 28.404C68.8315 28.74 68.3875 29.214 68.0635 29.826C67.7395 30.438 67.5775 31.134 67.5775 31.914C67.5775 32.754 67.8235 33.414 68.3155 33.894C68.8195 34.362 69.5215 34.596 70.4215 34.596ZM80.5512 27.882C80.9712 27.354 81.4872 26.97 82.0992 26.73C82.7112 26.49 83.4552 26.37 84.3312 26.37L84.0072 28.044C83.8992 28.032 83.7492 28.026 83.5572 28.026C81.5772 28.026 80.3772 29.094 79.9572 31.23L79.0032 36H77.2752L79.1652 26.46H80.8212L80.5512 27.882ZM93.956 36.108C93.056 36.108 92.27 35.94 91.598 35.604C90.926 35.256 90.404 34.77 90.032 34.146C89.66 33.522 89.474 32.802 89.474 31.986C89.474 30.918 89.714 29.958 90.194 29.106C90.674 28.254 91.34 27.588 92.192 27.108C93.044 26.616 94.004 26.37 95.072 26.37C95.972 26.37 96.758 26.538 97.43 26.874C98.102 27.21 98.618 27.69 98.978 28.314C99.35 28.926 99.536 29.646 99.536 30.474C99.536 31.542 99.296 32.508 98.816 33.372C98.336 34.224 97.67 34.896 96.818 35.388C95.978 35.868 95.024 36.108 93.956 36.108ZM94.064 34.596C94.772 34.596 95.408 34.428 95.972 34.092C96.548 33.744 96.992 33.264 97.304 32.652C97.628 32.04 97.79 31.344 97.79 30.564C97.79 29.712 97.544 29.052 97.052 28.584C96.56 28.116 95.858 27.882 94.946 27.882C94.238 27.882 93.602 28.056 93.038 28.404C92.474 28.74 92.03 29.214 91.706 29.826C91.382 30.438 91.22 31.134 91.22 31.914C91.22 32.754 91.466 33.414 91.958 33.894C92.462 34.362 93.164 34.596 94.064 34.596ZM111.7 26.46L109.81 36H108.154L108.388 34.776C107.956 35.22 107.446 35.556 106.858 35.784C106.282 36 105.652 36.108 104.968 36.108C103.912 36.108 103.078 35.826 102.466 35.262C101.854 34.698 101.548 33.912 101.548 32.904C101.548 32.568 101.584 32.202 101.656 31.806L102.718 26.46H104.446L103.384 31.824C103.324 32.148 103.294 32.418 103.294 32.634C103.294 33.258 103.474 33.738 103.834 34.074C104.206 34.398 104.752 34.56 105.472 34.56C106.384 34.56 107.14 34.302 107.74 33.786C108.352 33.27 108.76 32.514 108.964 31.518L109.972 26.46H111.7ZM104.662 22.734H106.84L108.856 25.074H107.218L104.662 22.734ZM122.451 36.108C121.539 36.108 120.741 35.94 120.057 35.604C119.373 35.256 118.845 34.776 118.473 34.164C118.101 33.54 117.915 32.814 117.915 31.986C117.915 30.918 118.155 29.958 118.635 29.106C119.115 28.254 119.781 27.588 120.633 27.108C121.485 26.616 122.451 26.37 123.531 26.37C125.415 26.37 126.723 27.06 127.455 28.44L125.997 29.25C125.493 28.338 124.629 27.882 123.405 27.882C122.697 27.882 122.055 28.056 121.479 28.404C120.915 28.74 120.471 29.214 120.147 29.826C119.823 30.438 119.661 31.134 119.661 31.914C119.661 32.754 119.907 33.414 120.399 33.894C120.903 34.362 121.611 34.596 122.523 34.596C123.099 34.596 123.633 34.482 124.125 34.254C124.629 34.026 125.043 33.69 125.367 33.246L126.627 34.146C126.183 34.758 125.589 35.238 124.845 35.586C124.101 35.934 123.303 36.108 122.451 36.108ZM134.862 26.37C135.954 26.37 136.8 26.646 137.4 27.198C138.012 27.75 138.318 28.53 138.318 29.538C138.318 29.886 138.282 30.258 138.21 30.654L137.148 36H135.42L136.482 30.654C136.542 30.33 136.572 30.066 136.572 29.862C136.572 29.238 136.386 28.758 136.014 28.422C135.642 28.086 135.09 27.918 134.358 27.918C133.422 27.918 132.648 28.176 132.036 28.692C131.436 29.196 131.034 29.952 130.83 30.96L129.822 36H128.094L130.758 22.644H132.486L131.496 27.576C132.348 26.772 133.47 26.37 134.862 26.37ZM151.27 26.46L149.38 36H147.724L147.958 34.83C147.526 35.238 147.022 35.556 146.446 35.784C145.882 36 145.264 36.108 144.592 36.108C143.776 36.108 143.05 35.946 142.414 35.622C141.778 35.286 141.28 34.806 140.92 34.182C140.56 33.558 140.38 32.826 140.38 31.986C140.38 30.906 140.614 29.94 141.082 29.088C141.55 28.236 142.192 27.57 143.008 27.09C143.836 26.61 144.76 26.37 145.78 26.37C146.596 26.37 147.292 26.514 147.868 26.802C148.456 27.09 148.906 27.516 149.218 28.08L149.542 26.46H151.27ZM144.97 34.596C145.678 34.596 146.314 34.428 146.878 34.092C147.454 33.744 147.898 33.264 148.21 32.652C148.534 32.04 148.696 31.344 148.696 30.564C148.696 29.712 148.45 29.052 147.958 28.584C147.466 28.116 146.764 27.882 145.852 27.882C145.144 27.882 144.508 28.056 143.944 28.404C143.38 28.74 142.936 29.214 142.612 29.826C142.288 30.438 142.126 31.134 142.126 31.914C142.126 32.754 142.372 33.414 142.864 33.894C143.368 34.362 144.07 34.596 144.97 34.596ZM163.54 26.46L160.948 39.492H159.22L160.12 34.938C159.7 35.31 159.214 35.598 158.662 35.802C158.11 36.006 157.51 36.108 156.862 36.108C156.046 36.108 155.32 35.946 154.684 35.622C154.048 35.286 153.55 34.806 153.19 34.182C152.83 33.558 152.65 32.826 152.65 31.986C152.65 30.906 152.884 29.94 153.352 29.088C153.82 28.236 154.462 27.57 155.278 27.09C156.106 26.61 157.03 26.37 158.05 26.37C158.89 26.37 159.604 26.526 160.192 26.838C160.792 27.138 161.242 27.588 161.542 28.188L161.902 26.46H163.54ZM157.24 34.596C157.948 34.596 158.584 34.428 159.148 34.092C159.724 33.744 160.168 33.264 160.48 32.652C160.804 32.04 160.966 31.344 160.966 30.564C160.966 29.712 160.72 29.052 160.228 28.584C159.736 28.116 159.034 27.882 158.122 27.882C157.414 27.882 156.778 28.056 156.214 28.404C155.65 28.74 155.206 29.214 154.882 29.826C154.558 30.438 154.396 31.134 154.396 31.914C154.396 32.754 154.642 33.414 155.134 33.894C155.638 34.362 156.34 34.596 157.24 34.596ZM175.719 26.46L173.829 36H172.173L172.407 34.776C171.975 35.22 171.465 35.556 170.877 35.784C170.301 36 169.671 36.108 168.987 36.108C167.931 36.108 167.097 35.826 166.485 35.262C165.873 34.698 165.567 33.912 165.567 32.904C165.567 32.568 165.603 32.202 165.675 31.806L166.737 26.46H168.465L167.403 31.824C167.343 32.148 167.313 32.418 167.313 32.634C167.313 33.258 167.493 33.738 167.853 34.074C168.225 34.398 168.771 34.56 169.491 34.56C170.403 34.56 171.159 34.302 171.759 33.786C172.371 33.27 172.779 32.514 172.983 31.518L173.991 26.46H175.719ZM178.793 31.77V31.878C178.793 32.766 179.045 33.444 179.549 33.912C180.053 34.368 180.809 34.596 181.817 34.596C182.405 34.596 182.957 34.5 183.473 34.308C183.989 34.104 184.421 33.834 184.769 33.498L185.507 34.74C185.039 35.172 184.469 35.508 183.797 35.748C183.125 35.988 182.417 36.108 181.673 36.108C180.737 36.108 179.927 35.94 179.243 35.604C178.559 35.268 178.031 34.788 177.659 34.164C177.287 33.54 177.101 32.808 177.101 31.968C177.101 30.9 177.329 29.94 177.785 29.088C178.253 28.236 178.895 27.57 179.711 27.09C180.539 26.61 181.463 26.37 182.483 26.37C183.779 26.37 184.811 26.742 185.579 27.486C186.359 28.218 186.749 29.22 186.749 30.492C186.749 30.876 186.707 31.302 186.623 31.77H178.793ZM182.411 27.81C181.559 27.81 180.827 28.05 180.215 28.53C179.603 29.01 179.189 29.67 178.973 30.51H185.129C185.177 29.658 184.949 28.998 184.445 28.53C183.953 28.05 183.275 27.81 182.411 27.81ZM199.725 26.37C200.817 26.37 201.663 26.646 202.263 27.198C202.875 27.75 203.181 28.53 203.181 29.538C203.181 29.886 203.145 30.258 203.073 30.654L202.011 36H200.283L201.345 30.654C201.405 30.33 201.435 30.066 201.435 29.862C201.435 29.238 201.249 28.758 200.877 28.422C200.505 28.086 199.953 27.918 199.221 27.918C198.285 27.918 197.511 28.176 196.899 28.692C196.299 29.196 195.897 29.952 195.693 30.96L194.685 36H192.957L194.847 26.46H196.503L196.269 27.684C197.133 26.808 198.285 26.37 199.725 26.37ZM209.726 36.108C208.826 36.108 208.04 35.94 207.368 35.604C206.696 35.256 206.174 34.77 205.802 34.146C205.43 33.522 205.244 32.802 205.244 31.986C205.244 30.918 205.484 29.958 205.964 29.106C206.444 28.254 207.11 27.588 207.962 27.108C208.814 26.616 209.774 26.37 210.842 26.37C211.742 26.37 212.528 26.538 213.2 26.874C213.872 27.21 214.388 27.69 214.748 28.314C215.12 28.926 215.306 29.646 215.306 30.474C215.306 31.542 215.066 32.508 214.586 33.372C214.106 34.224 213.44 34.896 212.588 35.388C211.748 35.868 210.794 36.108 209.726 36.108ZM209.834 34.596C210.542 34.596 211.178 34.428 211.742 34.092C212.318 33.744 212.762 33.264 213.074 32.652C213.398 32.04 213.56 31.344 213.56 30.564C213.56 29.712 213.314 29.052 212.822 28.584C212.33 28.116 211.628 27.882 210.716 27.882C210.008 27.882 209.372 28.056 208.808 28.404C208.244 28.74 207.8 29.214 207.476 29.826C207.152 30.438 206.99 31.134 206.99 31.914C206.99 32.754 207.236 33.414 207.728 33.894C208.232 34.362 208.934 34.596 209.834 34.596ZM227.469 26.46L225.579 36H223.923L224.157 34.776C223.725 35.22 223.215 35.556 222.627 35.784C222.051 36 221.421 36.108 220.737 36.108C219.681 36.108 218.847 35.826 218.235 35.262C217.623 34.698 217.317 33.912 217.317 32.904C217.317 32.568 217.353 32.202 217.425 31.806L218.487 26.46H220.215L219.153 31.824C219.093 32.148 219.063 32.418 219.063 32.634C219.063 33.258 219.243 33.738 219.603 34.074C219.975 34.398 220.521 34.56 221.241 34.56C222.153 34.56 222.909 34.302 223.509 33.786C224.121 33.27 224.529 32.514 224.733 31.518L225.741 26.46H227.469ZM239.201 26.46L233.135 36H231.371L229.085 26.46H230.813L232.595 34.11L237.455 26.46H239.201ZM240.334 31.77V31.878C240.334 32.766 240.586 33.444 241.09 33.912C241.594 34.368 242.35 34.596 243.358 34.596C243.946 34.596 244.498 34.5 245.014 34.308C245.53 34.104 245.962 33.834 246.31 33.498L247.048 34.74C246.58 35.172 246.01 35.508 245.338 35.748C244.666 35.988 243.958 36.108 243.214 36.108C242.278 36.108 241.468 35.94 240.784 35.604C240.1 35.268 239.572 34.788 239.2 34.164C238.828 33.54 238.642 32.808 238.642 31.968C238.642 30.9 238.87 29.94 239.326 29.088C239.794 28.236 240.436 27.57 241.252 27.09C242.08 26.61 243.004 26.37 244.024 26.37C245.32 26.37 246.352 26.742 247.12 27.486C247.9 28.218 248.29 29.22 248.29 30.492C248.29 30.876 248.248 31.302 248.164 31.77H240.334ZM243.952 27.81C243.1 27.81 242.368 28.05 241.756 28.53C241.144 29.01 240.73 29.67 240.514 30.51H246.67C246.718 29.658 246.49 28.998 245.986 28.53C245.494 28.05 244.816 27.81 243.952 27.81ZM252.328 22.644H254.056L251.392 36H249.664L252.328 22.644ZM257.355 22.644H259.083L256.419 36H254.691L257.355 22.644ZM261.393 31.77V31.878C261.393 32.766 261.645 33.444 262.149 33.912C262.653 34.368 263.409 34.596 264.417 34.596C265.005 34.596 265.557 34.5 266.073 34.308C266.589 34.104 267.021 33.834 267.369 33.498L268.107 34.74C267.639 35.172 267.069 35.508 266.397 35.748C265.725 35.988 265.017 36.108 264.273 36.108C263.337 36.108 262.527 35.94 261.843 35.604C261.159 35.268 260.631 34.788 260.259 34.164C259.887 33.54 259.701 32.808 259.701 31.968C259.701 30.9 259.929 29.94 260.385 29.088C260.853 28.236 261.495 27.57 262.311 27.09C263.139 26.61 264.063 26.37 265.083 26.37C266.379 26.37 267.411 26.742 268.179 27.486C268.959 28.218 269.349 29.22 269.349 30.492C269.349 30.876 269.307 31.302 269.223 31.77H261.393ZM265.011 27.81C264.159 27.81 263.427 28.05 262.815 28.53C262.203 29.01 261.789 29.67 261.573 30.51H267.729C267.777 29.658 267.549 28.998 267.045 28.53C266.553 28.05 265.875 27.81 265.011 27.81ZM278.832 27.882C279.252 27.354 279.768 26.97 280.38 26.73C280.992 26.49 281.736 26.37 282.612 26.37L282.288 28.044C282.18 28.032 282.03 28.026 281.838 28.026C279.858 28.026 278.658 29.094 278.238 31.23L277.284 36H275.556L277.446 26.46H279.102L278.832 27.882ZM284.402 31.77V31.878C284.402 32.766 284.654 33.444 285.158 33.912C285.662 34.368 286.418 34.596 287.426 34.596C288.014 34.596 288.566 34.5 289.082 34.308C289.598 34.104 290.03 33.834 290.378 33.498L291.116 34.74C290.648 35.172 290.078 35.508 289.406 35.748C288.734 35.988 288.026 36.108 287.282 36.108C286.346 36.108 285.536 35.94 284.852 35.604C284.168 35.268 283.64 34.788 283.268 34.164C282.896 33.54 282.71 32.808 282.71 31.968C282.71 30.9 282.938 29.94 283.394 29.088C283.862 28.236 284.504 27.57 285.32 27.09C286.148 26.61 287.072 26.37 288.092 26.37C289.388 26.37 290.42 26.742 291.188 27.486C291.968 28.218 292.358 29.22 292.358 30.492C292.358 30.876 292.316 31.302 292.232 31.77H284.402ZM288.02 27.81C287.168 27.81 286.436 28.05 285.824 28.53C285.212 29.01 284.798 29.67 284.582 30.51H290.738C290.786 29.658 290.558 28.998 290.054 28.53C289.562 28.05 288.884 27.81 288.02 27.81ZM300.5 26.37C301.592 26.37 302.438 26.646 303.038 27.198C303.65 27.75 303.956 28.53 303.956 29.538C303.956 29.886 303.92 30.258 303.848 30.654L302.786 36H301.058L302.12 30.654C302.18 30.33 302.21 30.066 302.21 29.862C302.21 29.238 302.024 28.758 301.652 28.422C301.28 28.086 300.728 27.918 299.996 27.918C299.06 27.918 298.286 28.176 297.674 28.692C297.074 29.196 296.672 29.952 296.468 30.96L295.46 36H293.732L295.622 26.46H297.278L297.044 27.684C297.908 26.808 299.06 26.37 300.5 26.37ZM310.555 36.108C309.643 36.108 308.845 35.94 308.161 35.604C307.477 35.256 306.949 34.776 306.577 34.164C306.205 33.54 306.019 32.814 306.019 31.986C306.019 30.918 306.259 29.958 306.739 29.106C307.219 28.254 307.885 27.588 308.737 27.108C309.589 26.616 310.555 26.37 311.635 26.37C313.519 26.37 314.827 27.06 315.559 28.44L314.101 29.25C313.597 28.338 312.733 27.882 311.509 27.882C310.801 27.882 310.159 28.056 309.583 28.404C309.019 28.74 308.575 29.214 308.251 29.826C307.927 30.438 307.765 31.134 307.765 31.914C307.765 32.754 308.011 33.414 308.503 33.894C309.007 34.362 309.715 34.596 310.627 34.596C311.203 34.596 311.737 34.482 312.229 34.254C312.733 34.026 313.147 33.69 313.471 33.246L314.731 34.146C314.287 34.758 313.693 35.238 312.949 35.586C312.205 35.934 311.407 36.108 310.555 36.108ZM320.644 36.108C319.744 36.108 318.958 35.94 318.286 35.604C317.614 35.256 317.092 34.77 316.72 34.146C316.348 33.522 316.162 32.802 316.162 31.986C316.162 30.918 316.402 29.958 316.882 29.106C317.362 28.254 318.028 27.588 318.88 27.108C319.732 26.616 320.692 26.37 321.76 26.37C322.66 26.37 323.446 26.538 324.118 26.874C324.79 27.21 325.306 27.69 325.666 28.314C326.038 28.926 326.224 29.646 326.224 30.474C326.224 31.542 325.984 32.508 325.504 33.372C325.024 34.224 324.358 34.896 323.506 35.388C322.666 35.868 321.712 36.108 320.644 36.108ZM320.752 34.596C321.46 34.596 322.096 34.428 322.66 34.092C323.236 33.744 323.68 33.264 323.992 32.652C324.316 32.04 324.478 31.344 324.478 30.564C324.478 29.712 324.232 29.052 323.74 28.584C323.248 28.116 322.546 27.882 321.634 27.882C320.926 27.882 320.29 28.056 319.726 28.404C319.162 28.74 318.718 29.214 318.394 29.826C318.07 30.438 317.908 31.134 317.908 31.914C317.908 32.754 318.154 33.414 318.646 33.894C319.15 34.362 319.852 34.596 320.752 34.596ZM334.373 26.37C335.465 26.37 336.311 26.646 336.911 27.198C337.523 27.75 337.829 28.53 337.829 29.538C337.829 29.886 337.793 30.258 337.721 30.654L336.659 36H334.931L335.993 30.654C336.053 30.33 336.083 30.066 336.083 29.862C336.083 29.238 335.897 28.758 335.525 28.422C335.153 28.086 334.601 27.918 333.869 27.918C332.933 27.918 332.159 28.176 331.547 28.692C330.947 29.196 330.545 29.952 330.341 30.96L329.333 36H327.605L329.495 26.46H331.151L330.917 27.684C331.781 26.808 332.933 26.37 334.373 26.37ZM342.413 32.958C342.377 33.138 342.359 33.306 342.359 33.462C342.359 33.846 342.461 34.14 342.665 34.344C342.881 34.548 343.199 34.65 343.619 34.65C344.123 34.65 344.579 34.5 344.987 34.2L345.347 35.514C344.771 35.91 344.033 36.108 343.133 36.108C342.377 36.108 341.765 35.898 341.297 35.478C340.841 35.046 340.613 34.458 340.613 33.714C340.613 33.462 340.637 33.222 340.685 32.994L341.711 27.882H340.091L340.361 26.46H341.999L342.413 24.372H344.141L343.727 26.46H346.463L346.175 27.882H343.439L342.413 32.958ZM350.586 27.882C351.006 27.354 351.522 26.97 352.134 26.73C352.746 26.49 353.49 26.37 354.366 26.37L354.042 28.044C353.934 28.032 353.784 28.026 353.592 28.026C351.612 28.026 350.412 29.094 349.992 31.23L349.038 36H347.31L349.2 26.46H350.856L350.586 27.882ZM356.156 31.77V31.878C356.156 32.766 356.408 33.444 356.912 33.912C357.416 34.368 358.172 34.596 359.18 34.596C359.768 34.596 360.32 34.5 360.836 34.308C361.352 34.104 361.784 33.834 362.132 33.498L362.87 34.74C362.402 35.172 361.832 35.508 361.16 35.748C360.488 35.988 359.78 36.108 359.036 36.108C358.1 36.108 357.29 35.94 356.606 35.604C355.922 35.268 355.394 34.788 355.022 34.164C354.65 33.54 354.464 32.808 354.464 31.968C354.464 30.9 354.692 29.94 355.148 29.088C355.616 28.236 356.258 27.57 357.074 27.09C357.902 26.61 358.826 26.37 359.846 26.37C361.142 26.37 362.174 26.742 362.942 27.486C363.722 28.218 364.112 29.22 364.112 30.492C364.112 30.876 364.07 31.302 363.986 31.77H356.156ZM359.774 27.81C358.922 27.81 358.19 28.05 357.578 28.53C356.966 29.01 356.552 29.67 356.336 30.51H362.492C362.54 29.658 362.312 28.998 361.808 28.53C361.316 28.05 360.638 27.81 359.774 27.81ZM35.3849 48.37C36.2009 48.37 36.9269 48.538 37.5629 48.874C38.1989 49.198 38.6969 49.672 39.0569 50.296C39.4169 50.908 39.5969 51.634 39.5969 52.474C39.5969 53.554 39.3629 54.52 38.8949 55.372C38.4269 56.224 37.7789 56.896 36.9509 57.388C36.1349 57.868 35.2169 58.108 34.1969 58.108C33.3809 58.108 32.6789 57.964 32.0909 57.676C31.5029 57.376 31.0529 56.944 30.7409 56.38L29.7329 61.492H28.0049L30.5969 48.46H32.2529L32.0189 49.648C32.9069 48.796 34.0289 48.37 35.3849 48.37ZM34.1249 56.596C34.8329 56.596 35.4689 56.428 36.0329 56.092C36.5969 55.744 37.0409 55.264 37.3649 54.652C37.6889 54.04 37.8509 53.344 37.8509 52.564C37.8509 51.712 37.6049 51.052 37.1129 50.584C36.6209 50.116 35.9189 49.882 35.0069 49.882C34.2989 49.882 33.6569 50.056 33.0809 50.404C32.5169 50.74 32.0729 51.214 31.7489 51.826C31.4369 52.438 31.2809 53.134 31.2809 53.914C31.2809 54.754 31.5269 55.414 32.0189 55.894C32.5229 56.362 33.2249 56.596 34.1249 56.596ZM42.6504 53.77V53.878C42.6504 54.766 42.9024 55.444 43.4064 55.912C43.9104 56.368 44.6664 56.596 45.6744 56.596C46.2624 56.596 46.8144 56.5 47.3304 56.308C47.8464 56.104 48.2784 55.834 48.6264 55.498L49.3644 56.74C48.8964 57.172 48.3264 57.508 47.6544 57.748C46.9824 57.988 46.2744 58.108 45.5304 58.108C44.5944 58.108 43.7844 57.94 43.1004 57.604C42.4164 57.268 41.8884 56.788 41.5164 56.164C41.1444 55.54 40.9584 54.808 40.9584 53.968C40.9584 52.9 41.1864 51.94 41.6424 51.088C42.1104 50.236 42.7524 49.57 43.5684 49.09C44.3964 48.61 45.3204 48.37 46.3404 48.37C47.6364 48.37 48.6684 48.742 49.4364 49.486C50.2164 50.218 50.6064 51.22 50.6064 52.492C50.6064 52.876 50.5644 53.302 50.4804 53.77H42.6504ZM46.2684 49.81C45.4164 49.81 44.6844 50.05 44.0724 50.53C43.4604 51.01 43.0464 51.67 42.8304 52.51H48.9864C49.0344 51.658 48.8064 50.998 48.3024 50.53C47.8104 50.05 47.1324 49.81 46.2684 49.81ZM62.7623 48.46L60.8723 58H59.2163L59.4503 56.776C59.0183 57.22 58.5083 57.556 57.9203 57.784C57.3443 58 56.7143 58.108 56.0303 58.108C54.9743 58.108 54.1403 57.826 53.5283 57.262C52.9163 56.698 52.6103 55.912 52.6103 54.904C52.6103 54.568 52.6463 54.202 52.7183 53.806L53.7803 48.46H55.5083L54.4463 53.824C54.3863 54.148 54.3563 54.418 54.3563 54.634C54.3563 55.258 54.5363 55.738 54.8963 56.074C55.2683 56.398 55.8143 56.56 56.5343 56.56C57.4463 56.56 58.2023 56.302 58.8023 55.786C59.4143 55.27 59.8223 54.514 60.0263 53.518L61.0343 48.46H62.7623ZM66.718 54.958C66.682 55.138 66.664 55.306 66.664 55.462C66.664 55.846 66.766 56.14 66.97 56.344C67.186 56.548 67.504 56.65 67.924 56.65C68.428 56.65 68.884 56.5 69.292 56.2L69.652 57.514C69.076 57.91 68.338 58.108 67.438 58.108C66.682 58.108 66.07 57.898 65.602 57.478C65.146 57.046 64.918 56.458 64.918 55.714C64.918 55.462 64.942 55.222 64.99 54.994L66.016 49.882H64.396L64.666 48.46H66.304L66.718 46.372H68.446L68.032 48.46H70.768L70.48 49.882H67.744L66.718 54.958ZM88.0951 44.644L85.4311 58H83.7751L84.0091 56.83C83.5771 57.238 83.0731 57.556 82.4971 57.784C81.9331 58 81.3151 58.108 80.6431 58.108C79.8271 58.108 79.1011 57.946 78.4651 57.622C77.8291 57.286 77.3311 56.806 76.9711 56.182C76.6111 55.558 76.4311 54.826 76.4311 53.986C76.4311 52.906 76.6651 51.94 77.1331 51.088C77.6011 50.236 78.2431 49.57 79.0591 49.09C79.8871 48.61 80.8111 48.37 81.8311 48.37C82.6471 48.37 83.3491 48.52 83.9371 48.82C84.5371 49.108 84.9871 49.534 85.2871 50.098L86.3671 44.644H88.0951ZM81.0211 56.596C81.7291 56.596 82.3651 56.428 82.9291 56.092C83.5051 55.744 83.9491 55.264 84.2611 54.652C84.5851 54.04 84.7471 53.344 84.7471 52.564C84.7471 51.712 84.5011 51.052 84.0091 50.584C83.5171 50.116 82.8151 49.882 81.9031 49.882C81.1951 49.882 80.5591 50.056 79.9951 50.404C79.4311 50.74 78.9871 51.214 78.6631 51.826C78.3391 52.438 78.1771 53.134 78.1771 53.914C78.1771 54.754 78.4231 55.414 78.9151 55.894C79.4191 56.362 80.1211 56.596 81.0211 56.596ZM90.3926 53.77V53.878C90.3926 54.766 90.6446 55.444 91.1486 55.912C91.6526 56.368 92.4086 56.596 93.4166 56.596C94.0046 56.596 94.5566 56.5 95.0726 56.308C95.5886 56.104 96.0206 55.834 96.3686 55.498L97.1066 56.74C96.6386 57.172 96.0686 57.508 95.3966 57.748C94.7246 57.988 94.0166 58.108 93.2726 58.108C92.3366 58.108 91.5266 57.94 90.8426 57.604C90.1586 57.268 89.6306 56.788 89.2586 56.164C88.8866 55.54 88.7006 54.808 88.7006 53.968C88.7006 52.9 88.9286 51.94 89.3846 51.088C89.8526 50.236 90.4946 49.57 91.3106 49.09C92.1386 48.61 93.0626 48.37 94.0826 48.37C95.3786 48.37 96.4106 48.742 97.1786 49.486C97.9586 50.218 98.3486 51.22 98.3486 52.492C98.3486 52.876 98.3066 53.302 98.2226 53.77H90.3926ZM94.0106 49.81C93.1586 49.81 92.4266 50.05 91.8146 50.53C91.2026 51.01 90.7886 51.67 90.5726 52.51H96.7286C96.7766 51.658 96.5486 50.998 96.0446 50.53C95.5526 50.05 94.8746 49.81 94.0106 49.81ZM109.879 48.46L103.813 58H102.049L99.7627 48.46H101.491L103.273 56.11L108.133 48.46H109.879ZM111.012 53.77V53.878C111.012 54.766 111.264 55.444 111.768 55.912C112.272 56.368 113.028 56.596 114.036 56.596C114.624 56.596 115.176 56.5 115.692 56.308C116.208 56.104 116.64 55.834 116.988 55.498L117.726 56.74C117.258 57.172 116.688 57.508 116.016 57.748C115.344 57.988 114.636 58.108 113.892 58.108C112.956 58.108 112.146 57.94 111.462 57.604C110.778 57.268 110.25 56.788 109.878 56.164C109.506 55.54 109.32 54.808 109.32 53.968C109.32 52.9 109.548 51.94 110.004 51.088C110.472 50.236 111.114 49.57 111.93 49.09C112.758 48.61 113.682 48.37 114.702 48.37C115.998 48.37 117.03 48.742 117.798 49.486C118.578 50.218 118.968 51.22 118.968 52.492C118.968 52.876 118.926 53.302 118.842 53.77H111.012ZM114.63 49.81C113.778 49.81 113.046 50.05 112.434 50.53C111.822 51.01 111.408 51.67 111.192 52.51H117.348C117.396 51.658 117.168 50.998 116.664 50.53C116.172 50.05 115.494 49.81 114.63 49.81ZM127.11 48.37C128.202 48.37 129.048 48.646 129.648 49.198C130.26 49.75 130.566 50.53 130.566 51.538C130.566 51.886 130.53 52.258 130.458 52.654L129.396 58H127.668L128.73 52.654C128.79 52.33 128.82 52.066 128.82 51.862C128.82 51.238 128.634 50.758 128.262 50.422C127.89 50.086 127.338 49.918 126.606 49.918C125.67 49.918 124.896 50.176 124.284 50.692C123.684 51.196 123.282 51.952 123.078 52.96L122.07 58H120.342L122.232 48.46H123.888L123.654 49.684C124.518 48.808 125.67 48.37 127.11 48.37ZM134.484 48.46H136.212L134.322 58H132.594L134.484 48.46ZM135.852 46.624C135.54 46.624 135.282 46.522 135.078 46.318C134.874 46.114 134.772 45.868 134.772 45.58C134.772 45.244 134.886 44.962 135.114 44.734C135.354 44.494 135.654 44.374 136.014 44.374C136.326 44.374 136.584 44.476 136.788 44.68C137.004 44.872 137.112 45.106 137.112 45.382C137.112 45.754 136.992 46.054 136.752 46.282C136.524 46.51 136.224 46.624 135.852 46.624ZM140.897 49.882C141.317 49.354 141.833 48.97 142.445 48.73C143.057 48.49 143.801 48.37 144.677 48.37L144.353 50.044C144.245 50.032 144.095 50.026 143.903 50.026C141.923 50.026 140.723 51.094 140.303 53.23L139.349 58H137.621L139.511 48.46H141.167L140.897 49.882ZM160.62 48.46L158.73 58H157.074L157.308 56.776C156.876 57.22 156.366 57.556 155.778 57.784C155.202 58 154.572 58.108 153.888 58.108C152.832 58.108 151.998 57.826 151.386 57.262C150.774 56.698 150.468 55.912 150.468 54.904C150.468 54.568 150.504 54.202 150.576 53.806L151.638 48.46H153.366L152.304 53.824C152.244 54.148 152.214 54.418 152.214 54.634C152.214 55.258 152.394 55.738 152.754 56.074C153.126 56.398 153.672 56.56 154.392 56.56C155.304 56.56 156.06 56.302 156.66 55.786C157.272 55.27 157.68 54.514 157.884 53.518L158.892 48.46H160.62ZM168.787 48.37C169.879 48.37 170.725 48.646 171.325 49.198C171.937 49.75 172.243 50.53 172.243 51.538C172.243 51.886 172.207 52.258 172.135 52.654L171.073 58H169.345L170.407 52.654C170.467 52.33 170.497 52.066 170.497 51.862C170.497 51.238 170.311 50.758 169.939 50.422C169.567 50.086 169.015 49.918 168.283 49.918C167.347 49.918 166.573 50.176 165.961 50.692C165.361 51.196 164.959 51.952 164.755 52.96L163.747 58H162.019L163.909 48.46H165.565L165.331 49.684C166.195 48.808 167.347 48.37 168.787 48.37ZM175.998 53.77V53.878C175.998 54.766 176.25 55.444 176.754 55.912C177.258 56.368 178.014 56.596 179.022 56.596C179.61 56.596 180.162 56.5 180.678 56.308C181.194 56.104 181.626 55.834 181.974 55.498L182.712 56.74C182.244 57.172 181.674 57.508 181.002 57.748C180.33 57.988 179.622 58.108 178.878 58.108C177.942 58.108 177.132 57.94 176.448 57.604C175.764 57.268 175.236 56.788 174.864 56.164C174.492 55.54 174.306 54.808 174.306 53.968C174.306 52.9 174.534 51.94 174.99 51.088C175.458 50.236 176.1 49.57 176.916 49.09C177.744 48.61 178.668 48.37 179.688 48.37C180.984 48.37 182.016 48.742 182.784 49.486C183.564 50.218 183.954 51.22 183.954 52.492C183.954 52.876 183.912 53.302 183.828 53.77H175.998ZM179.616 49.81C178.764 49.81 178.032 50.05 177.42 50.53C176.808 51.01 176.394 51.67 176.178 52.51H182.334C182.382 51.658 182.154 50.998 181.65 50.53C181.158 50.05 180.48 49.81 179.616 49.81ZM193.168 58.108C192.376 58.108 191.62 58.006 190.9 57.802C190.192 57.598 189.64 57.334 189.244 57.01L190.018 55.642C190.39 55.942 190.87 56.182 191.458 56.362C192.058 56.53 192.682 56.614 193.33 56.614C194.146 56.614 194.764 56.494 195.184 56.254C195.616 56.002 195.832 55.654 195.832 55.21C195.832 54.85 195.658 54.592 195.31 54.436C194.974 54.28 194.446 54.124 193.726 53.968C193.054 53.824 192.502 53.68 192.07 53.536C191.65 53.38 191.29 53.14 190.99 52.816C190.69 52.48 190.54 52.03 190.54 51.466C190.54 50.842 190.714 50.296 191.062 49.828C191.422 49.36 191.926 49 192.574 48.748C193.234 48.496 193.996 48.37 194.86 48.37C195.496 48.37 196.114 48.448 196.714 48.604C197.314 48.76 197.806 48.97 198.19 49.234L197.506 50.602C197.134 50.35 196.702 50.164 196.21 50.044C195.718 49.912 195.214 49.846 194.698 49.846C193.918 49.846 193.318 49.978 192.898 50.242C192.478 50.494 192.268 50.836 192.268 51.268C192.268 51.652 192.442 51.928 192.79 52.096C193.138 52.252 193.678 52.408 194.41 52.564C195.07 52.708 195.61 52.852 196.03 52.996C196.45 53.14 196.804 53.374 197.092 53.698C197.392 54.022 197.542 54.46 197.542 55.012C197.542 55.984 197.14 56.746 196.336 57.298C195.544 57.838 194.488 58.108 193.168 58.108ZM201.07 48.46H202.798L200.908 58H199.18L201.07 48.46ZM202.438 46.624C202.126 46.624 201.868 46.522 201.664 46.318C201.46 46.114 201.358 45.868 201.358 45.58C201.358 45.244 201.472 44.962 201.7 44.734C201.94 44.494 202.24 44.374 202.6 44.374C202.912 44.374 203.17 44.476 203.374 44.68C203.59 44.872 203.698 45.106 203.698 45.382C203.698 45.754 203.578 46.054 203.338 46.282C203.11 46.51 202.81 46.624 202.438 46.624ZM215.719 48.37C216.535 48.37 217.261 48.538 217.897 48.874C218.533 49.198 219.031 49.672 219.391 50.296C219.751 50.908 219.931 51.634 219.931 52.474C219.931 53.554 219.697 54.52 219.229 55.372C218.761 56.224 218.113 56.896 217.285 57.388C216.469 57.868 215.551 58.108 214.531 58.108C213.691 58.108 212.971 57.952 212.371 57.64C211.783 57.328 211.339 56.872 211.039 56.272L210.679 58H209.041L211.705 44.644H213.433L212.443 49.558C213.331 48.766 214.423 48.37 215.719 48.37ZM214.459 56.596C215.167 56.596 215.803 56.428 216.367 56.092C216.931 55.744 217.375 55.264 217.699 54.652C218.023 54.04 218.185 53.344 218.185 52.564C218.185 51.712 217.939 51.052 217.447 50.584C216.955 50.116 216.253 49.882 215.341 49.882C214.633 49.882 213.991 50.056 213.415 50.404C212.851 50.74 212.407 51.214 212.083 51.826C211.771 52.438 211.615 53.134 211.615 53.914C211.615 54.754 211.861 55.414 212.353 55.894C212.857 56.362 213.559 56.596 214.459 56.596ZM222.984 53.77V53.878C222.984 54.766 223.236 55.444 223.74 55.912C224.244 56.368 225 56.596 226.008 56.596C226.596 56.596 227.148 56.5 227.664 56.308C228.18 56.104 228.612 55.834 228.96 55.498L229.698 56.74C229.23 57.172 228.66 57.508 227.988 57.748C227.316 57.988 226.608 58.108 225.864 58.108C224.928 58.108 224.118 57.94 223.434 57.604C222.75 57.268 222.222 56.788 221.85 56.164C221.478 55.54 221.292 54.808 221.292 53.968C221.292 52.9 221.52 51.94 221.976 51.088C222.444 50.236 223.086 49.57 223.902 49.09C224.73 48.61 225.654 48.37 226.674 48.37C227.97 48.37 229.002 48.742 229.77 49.486C230.55 50.218 230.94 51.22 230.94 52.492C230.94 52.876 230.898 53.302 230.814 53.77H222.984ZM226.602 49.81C225.75 49.81 225.018 50.05 224.406 50.53C223.794 51.01 223.38 51.67 223.164 52.51H229.32C229.368 51.658 229.14 50.998 228.636 50.53C228.144 50.05 227.466 49.81 226.602 49.81ZM234.978 44.644H236.706L234.042 58H232.314L234.978 44.644ZM240.006 44.644H241.734L239.07 58H237.342L240.006 44.644ZM244.043 53.77V53.878C244.043 54.766 244.295 55.444 244.799 55.912C245.303 56.368 246.059 56.596 247.067 56.596C247.655 56.596 248.207 56.5 248.723 56.308C249.239 56.104 249.671 55.834 250.019 55.498L250.757 56.74C250.289 57.172 249.719 57.508 249.047 57.748C248.375 57.988 247.667 58.108 246.923 58.108C245.987 58.108 245.177 57.94 244.493 57.604C243.809 57.268 243.281 56.788 242.909 56.164C242.537 55.54 242.351 54.808 242.351 53.968C242.351 52.9 242.579 51.94 243.035 51.088C243.503 50.236 244.145 49.57 244.961 49.09C245.789 48.61 246.713 48.37 247.733 48.37C249.029 48.37 250.061 48.742 250.829 49.486C251.609 50.218 251.999 51.22 251.999 52.492C251.999 52.876 251.957 53.302 251.873 53.77H244.043ZM247.661 49.81C246.809 49.81 246.077 50.05 245.465 50.53C244.853 51.01 244.439 51.67 244.223 52.51H250.379C250.427 51.658 250.199 50.998 249.695 50.53C249.203 50.05 248.525 49.81 247.661 49.81ZM261.213 58.108C260.421 58.108 259.665 58.006 258.945 57.802C258.237 57.598 257.685 57.334 257.289 57.01L258.063 55.642C258.435 55.942 258.915 56.182 259.503 56.362C260.103 56.53 260.727 56.614 261.375 56.614C262.191 56.614 262.809 56.494 263.229 56.254C263.661 56.002 263.877 55.654 263.877 55.21C263.877 54.85 263.703 54.592 263.355 54.436C263.019 54.28 262.491 54.124 261.771 53.968C261.099 53.824 260.547 53.68 260.115 53.536C259.695 53.38 259.335 53.14 259.035 52.816C258.735 52.48 258.585 52.03 258.585 51.466C258.585 50.842 258.759 50.296 259.107 49.828C259.467 49.36 259.971 49 260.619 48.748C261.279 48.496 262.041 48.37 262.905 48.37C263.541 48.37 264.159 48.448 264.759 48.604C265.359 48.76 265.851 48.97 266.235 49.234L265.551 50.602C265.179 50.35 264.747 50.164 264.255 50.044C263.763 49.912 263.259 49.846 262.743 49.846C261.963 49.846 261.363 49.978 260.943 50.242C260.523 50.494 260.313 50.836 260.313 51.268C260.313 51.652 260.487 51.928 260.835 52.096C261.183 52.252 261.723 52.408 262.455 52.564C263.115 52.708 263.655 52.852 264.075 52.996C264.495 53.14 264.849 53.374 265.137 53.698C265.437 54.022 265.587 54.46 265.587 55.012C265.587 55.984 265.185 56.746 264.381 57.298C263.589 57.838 262.533 58.108 261.213 58.108ZM278.006 48.46L276.116 58H274.46L274.694 56.776C274.262 57.22 273.752 57.556 273.164 57.784C272.588 58 271.958 58.108 271.274 58.108C270.218 58.108 269.384 57.826 268.772 57.262C268.16 56.698 267.854 55.912 267.854 54.904C267.854 54.568 267.89 54.202 267.962 53.806L269.024 48.46H270.752L269.69 53.824C269.63 54.148 269.6 54.418 269.6 54.634C269.6 55.258 269.78 55.738 270.14 56.074C270.512 56.398 271.058 56.56 271.778 56.56C272.69 56.56 273.446 56.302 274.046 55.786C274.658 55.27 275.066 54.514 275.27 53.518L276.278 48.46H278.006ZM282.682 49.882C283.102 49.354 283.618 48.97 284.23 48.73C284.842 48.49 285.586 48.37 286.462 48.37L286.138 50.044C286.03 50.032 285.88 50.026 285.688 50.026C283.708 50.026 282.508 51.094 282.088 53.23L281.134 58H279.406L281.296 48.46H282.952L282.682 49.882ZM293.344 48.37C294.16 48.37 294.886 48.538 295.522 48.874C296.158 49.198 296.656 49.672 297.016 50.296C297.376 50.908 297.556 51.634 297.556 52.474C297.556 53.554 297.322 54.52 296.854 55.372C296.386 56.224 295.738 56.896 294.91 57.388C294.094 57.868 293.176 58.108 292.156 58.108C291.34 58.108 290.638 57.964 290.05 57.676C289.462 57.376 289.012 56.944 288.7 56.38L287.692 61.492H285.964L288.556 48.46H290.212L289.978 49.648C290.866 48.796 291.988 48.37 293.344 48.37ZM292.084 56.596C292.792 56.596 293.428 56.428 293.992 56.092C294.556 55.744 295 55.264 295.324 54.652C295.648 54.04 295.81 53.344 295.81 52.564C295.81 51.712 295.564 51.052 295.072 50.584C294.58 50.116 293.878 49.882 292.966 49.882C292.258 49.882 291.616 50.056 291.04 50.404C290.476 50.74 290.032 51.214 289.708 51.826C289.396 52.438 289.24 53.134 289.24 53.914C289.24 54.754 289.486 55.414 289.978 55.894C290.482 56.362 291.184 56.596 292.084 56.596ZM302.211 49.882C302.631 49.354 303.147 48.97 303.759 48.73C304.371 48.49 305.115 48.37 305.991 48.37L305.667 50.044C305.559 50.032 305.409 50.026 305.217 50.026C303.237 50.026 302.037 51.094 301.617 53.23L300.663 58H298.935L300.825 48.46H302.481L302.211 49.882ZM308.085 48.46H309.813L307.923 58H306.195L308.085 48.46ZM309.453 46.624C309.141 46.624 308.883 46.522 308.679 46.318C308.475 46.114 308.373 45.868 308.373 45.58C308.373 45.244 308.487 44.962 308.715 44.734C308.955 44.494 309.255 44.374 309.615 44.374C309.927 44.374 310.185 44.476 310.389 44.68C310.605 44.872 310.713 45.106 310.713 45.382C310.713 45.754 310.593 46.054 310.353 46.282C310.125 46.51 309.825 46.624 309.453 46.624ZM314.229 58.108C313.437 58.108 312.681 58.006 311.961 57.802C311.253 57.598 310.701 57.334 310.305 57.01L311.079 55.642C311.451 55.942 311.931 56.182 312.519 56.362C313.119 56.53 313.743 56.614 314.391 56.614C315.207 56.614 315.825 56.494 316.245 56.254C316.677 56.002 316.893 55.654 316.893 55.21C316.893 54.85 316.719 54.592 316.371 54.436C316.035 54.28 315.507 54.124 314.787 53.968C314.115 53.824 313.563 53.68 313.131 53.536C312.711 53.38 312.351 53.14 312.051 52.816C311.751 52.48 311.601 52.03 311.601 51.466C311.601 50.842 311.775 50.296 312.123 49.828C312.483 49.36 312.987 49 313.635 48.748C314.295 48.496 315.057 48.37 315.921 48.37C316.557 48.37 317.175 48.448 317.775 48.604C318.375 48.76 318.867 48.97 319.251 49.234L318.567 50.602C318.195 50.35 317.763 50.164 317.271 50.044C316.779 49.912 316.275 49.846 315.759 49.846C314.979 49.846 314.379 49.978 313.959 50.242C313.539 50.494 313.329 50.836 313.329 51.268C313.329 51.652 313.503 51.928 313.851 52.096C314.199 52.252 314.739 52.408 315.471 52.564C316.131 52.708 316.671 52.852 317.091 52.996C317.511 53.14 317.865 53.374 318.153 53.698C318.453 54.022 318.603 54.46 318.603 55.012C318.603 55.984 318.201 56.746 317.397 57.298C316.605 57.838 315.549 58.108 314.229 58.108ZM321.914 53.77V53.878C321.914 54.766 322.166 55.444 322.67 55.912C323.174 56.368 323.93 56.596 324.938 56.596C325.526 56.596 326.078 56.5 326.594 56.308C327.11 56.104 327.542 55.834 327.89 55.498L328.628 56.74C328.16 57.172 327.59 57.508 326.918 57.748C326.246 57.988 325.538 58.108 324.794 58.108C323.858 58.108 323.048 57.94 322.364 57.604C321.68 57.268 321.152 56.788 320.78 56.164C320.408 55.54 320.222 54.808 320.222 53.968C320.222 52.9 320.45 51.94 320.906 51.088C321.374 50.236 322.016 49.57 322.832 49.09C323.66 48.61 324.584 48.37 325.604 48.37C326.9 48.37 327.932 48.742 328.7 49.486C329.48 50.218 329.87 51.22 329.87 52.492C329.87 52.876 329.828 53.302 329.744 53.77H321.914ZM325.532 49.81C324.68 49.81 323.948 50.05 323.336 50.53C322.724 51.01 322.31 51.67 322.094 52.51H328.25C328.298 51.658 328.07 50.998 327.566 50.53C327.074 50.05 326.396 49.81 325.532 49.81ZM334.107 44.536C334.431 44.536 334.701 44.644 334.917 44.86C335.133 45.076 335.241 45.352 335.241 45.688C335.241 45.88 335.211 46.06 335.151 46.228C335.091 46.384 334.989 46.594 334.845 46.858L333.333 49.558H332.199L333.405 46.858C333.225 46.762 333.081 46.624 332.973 46.444C332.877 46.252 332.829 46.048 332.829 45.832C332.829 45.46 332.955 45.154 333.207 44.914C333.459 44.662 333.759 44.536 334.107 44.536ZM337.509 44.536C337.833 44.536 338.103 44.644 338.319 44.86C338.535 45.076 338.643 45.352 338.643 45.688C338.643 45.88 338.613 46.06 338.553 46.228C338.493 46.384 338.391 46.594 338.247 46.858L336.735 49.558H335.601L336.807 46.858C336.627 46.762 336.483 46.624 336.375 46.444C336.279 46.252 336.231 46.048 336.231 45.832C336.231 45.46 336.357 45.154 336.609 44.914C336.861 44.662 337.161 44.536 337.509 44.536Z" fill="#3C3C3C"/>
</svg>
