<svg width="" height="20" viewBox="0 0 16 17" fill="none" xmlns="http://www.w3.org/2000/svg">
<path d="M5.97845 7.19454C6.71512 8.44195 6.27795 10.037 5.00201 10.7572C3.72606 11.4774 2.09452 11.05 1.35785 9.80258C0.621184 8.55517 1.05835 6.96012 2.3343 6.23993C3.61024 5.51974 5.24179 5.94713 5.97845 7.19454ZM5.97845 7.19454L10.0215 4.9125M10.0215 4.9125C10.7582 6.15991 12.3898 6.5873 13.6657 5.86711C14.9416 5.14692 15.3788 3.55187 14.6421 2.30446C13.9055 1.05705 12.2739 0.629656 10.998 1.34985C9.72205 2.07004 9.28488 3.66509 10.0215 4.9125ZM10.0204 12.0875C10.7571 10.8401 12.3886 10.4127 13.6646 11.1329C14.9405 11.8531 15.3777 13.4481 14.641 14.6955C13.9043 15.943 12.2728 16.3703 10.9969 15.6502C9.72091 14.93 9.28374 13.3349 10.0204 12.0875ZM10.0204 12.0875L5.97733 9.80555" stroke="#B2895D"/>
</svg>
