<svg width="16" height="17" viewBox="0 0 16 17" fill="none" xmlns="http://www.w3.org/2000/svg">
<path fill-rule="evenodd" clip-rule="evenodd" d="M2.96042 1L2.91607 1.20245L3.21525 1.2451C2.91607 1.20245 2.91607 1.20245 2.91607 1.20245L2.91552 1.20498L2.91413 1.21147L2.90897 1.236C2.90453 1.25737 2.89817 1.28862 2.89034 1.32879C2.87467 1.40912 2.85307 1.52523 2.82912 1.66953C2.78125 1.95795 2.7238 2.35995 2.68547 2.81468C2.60954 3.71554 2.6054 4.8556 2.92386 5.72623C3.12151 6.2666 3.51513 6.89889 3.84986 7.38607C4.01877 7.63191 4.17567 7.84506 4.2904 7.99683C4.3478 8.07276 4.39474 8.13345 4.42746 8.17533C4.42851 8.17667 4.42954 8.17799 4.43056 8.17929C4.43127 8.18021 4.43098 10.5971 4.43074 12.0114C4.43065 12.5636 3.98297 13.0098 3.43077 13.0098H2.49019C2.21947 13.0098 2 13.2293 2 13.5H7.46875C7.46875 13.2293 7.24928 13.0098 6.97855 13.0098H6.03819C5.48591 13.0098 5.03819 12.5621 5.03819 12.0098V8.17923C5.0392 8.17795 5.04021 8.17665 5.04124 8.17533C5.07397 8.13345 5.1209 8.07276 5.1783 7.99683C5.29304 7.84506 5.44993 7.63191 5.61884 7.38607C5.95357 6.89889 6.34719 6.2666 6.54485 5.72623C6.86331 4.8556 6.85916 3.71554 6.78323 2.81468C6.7449 2.35995 6.68745 1.95795 6.63958 1.66953C6.61563 1.52523 6.59404 1.40912 6.57837 1.32879C6.57053 1.28862 6.56417 1.25737 6.55974 1.236L6.55458 1.21147L6.55318 1.20498L6.55269 1.2027C6.55269 1.2027 6.55263 1.20245 6.25345 1.2451L6.55269 1.2027L6.50829 1H2.96042ZM3.43139 1.73459C3.44716 1.63956 3.46185 1.55731 3.47435 1.4902H5.99435C6.00686 1.55731 6.02154 1.63956 6.03732 1.73459C6.08389 2.01518 6.13977 2.40628 6.17699 2.84794C6.25217 3.73985 6.24803 4.80567 5.96205 5.5875C5.78427 6.07352 5.41835 6.66672 5.08738 7.14843C4.95764 7.33726 4.83508 7.50639 4.73435 7.64181C4.63363 7.50639 4.51106 7.33726 4.38132 7.14843C4.05036 6.66672 3.68443 6.07352 3.50665 5.5875C3.22068 4.80567 3.21653 3.73985 3.29171 2.84794C3.32894 2.40628 3.38482 2.01518 3.43139 1.73459Z" fill="#B2895D"/>
<path d="M12.3838 6.03398L12.055 6.41069L12.3835 6.03373C11.4783 5.24497 10.1812 5.3712 9.35308 6.14467C8.52577 5.37092 7.22742 5.24523 6.32256 6.03373L6.32228 6.03398C5.28192 6.94196 5.23049 8.55796 6.15816 9.53862L6.15836 9.53883L8.69267 12.2146L8.69276 12.2147C9.05368 12.5956 9.651 12.5956 10.012 12.2147L10.0121 12.2146L12.5463 9.53894C12.5463 9.5389 12.5463 9.53887 12.5464 9.53883C13.4756 8.55813 13.4241 6.94197 12.3838 6.03398Z" fill="#B2895D" stroke="#F2F2F2"/>
</svg>
