<svg width="418" height="418" viewBox="0 0 418 418" fill="none" xmlns="http://www.w3.org/2000/svg">
<path d="M208 134C249.421 134 283 167.579 283 209C283 250.421 249.421 284 208 284C166.579 284 133 250.421 133 209C133 167.579 166.579 134 208 134Z" fill="#F2F2F2"/>
<path fill-rule="evenodd" clip-rule="evenodd" d="M358 209C358 126.157 290.842 59 208 59C125.158 59 58 126.157 58 209C58 291.843 125.158 359 208 359C290.842 359 358 291.843 358 209ZM308 209C308 153.772 263.229 109 208 109C152.771 109 108 153.772 108 209C108 264.228 152.771 309 208 309C263.229 309 308 264.228 308 209Z" fill="#F2F2F2"/>
<path d="M10 234C4.47715 234 1.55275e-06 229.523 1.31134e-06 224L0 194C-2.41411e-07 188.477 4.47715 184 10 184H60C65.5228 184 70 188.477 70 194V224C70 229.523 65.5228 234 60 234H10Z" fill="#F2F2F2"/>
<path d="M184 10C184 4.47715 188.477 0 194 0H224C229.523 0 234 4.47715 234 10V60C234 65.5228 229.523 70 224 70H194C188.477 70 184 65.5228 184 60V10Z" fill="#F2F2F2"/>
<path d="M358 234C352.477 234 348 229.523 348 224V194C348 188.477 352.477 184 358 184H408C413.523 184 418 188.477 418 194V224C418 229.523 413.523 234 408 234H358Z" fill="#F2F2F2"/>
<path d="M184 358C184 352.477 188.477 348 194 348H224C229.523 348 234 352.477 234 358V408C234 413.523 229.523 418 224 418H194C188.477 418 184 413.523 184 408V358Z" fill="#F2F2F2"/>
</svg>
