<svg width="496" height="496" viewBox="0 0 496 496" fill="none" xmlns="http://www.w3.org/2000/svg">
<path d="M247.545 0.000403208C181.276 0.119403 121.107 26.2334 76.685 68.6854L40.971 32.9714C25.851 17.8514 0 28.5594 0 49.9414V184C0 197.255 10.745 208 24 208H158.059C179.441 208 190.149 182.149 175.03 167.029L133.28 125.279C164.144 96.3804 204.081 80.3724 246.51 80.0064C338.908 79.2084 416.793 153.983 415.994 249.448C415.236 340.009 341.816 416 248 416C206.873 416 168.003 401.322 137.37 374.444C132.627 370.283 125.464 370.536 121.002 374.997L81.34 414.659C76.468 419.531 76.709 427.474 81.822 432.092C125.798 471.813 184.074 496 248 496C384.966 496 495.999 384.967 496 248.002C496.001 111.193 384.354 -0.244597 247.545 0.000403208Z" fill="#F2F2F2"/>
</svg>
