<svg width="496" height="496" viewBox="0 0 496 496" fill="none" xmlns="http://www.w3.org/2000/svg">
<path d="M248.455 0.000403208C314.724 0.119403 374.892 26.2334 419.314 68.6854L455.029 32.9704C470.149 17.8514 496 28.5594 496 49.9414V184C496 197.255 485.255 208 472 208H337.941C316.559 208 305.851 182.149 320.97 167.029L362.72 125.279C331.856 96.3804 291.919 80.3724 249.49 80.0064C157.092 79.2084 79.207 153.983 80.006 249.448C80.764 340.009 154.184 416 248 416C289.127 416 327.997 401.322 358.629 374.444C363.372 370.283 370.535 370.536 374.997 374.997L414.659 414.659C419.531 419.531 419.29 427.474 414.177 432.092C370.202 471.813 311.926 496 248 496C111.034 496 0.00100001 384.967 6.71755e-09 248.002C-0.000999993 111.193 111.646 -0.244597 248.455 0.000403208Z" fill="#F2F2F2"/>
</svg>
