<svg width="27" height="27" viewBox="0 0 27 27" fill="none" xmlns="http://www.w3.org/2000/svg">
<path d="M24.1071 0H2.89286C1.29576 0 0 1.29576 0 2.89286V24.1071C0 25.7042 1.29576 27 2.89286 27H24.1071C25.7042 27 27 25.7042 27 24.1071V2.89286C27 1.29576 25.7042 0 24.1071 0ZM21.16 9.57054C21.1721 9.73929 21.1721 9.91406 21.1721 10.0828C21.1721 15.308 17.1944 21.3288 9.92612 21.3288C7.68415 21.3288 5.60491 20.6779 3.85714 19.5569C4.17656 19.5931 4.48393 19.6051 4.80938 19.6051C6.6596 19.6051 8.35915 18.9783 9.71518 17.9176C7.97946 17.8815 6.52098 16.7424 6.02076 15.1754C6.62946 15.2658 7.1779 15.2658 7.80469 15.1031C5.99665 14.7355 4.64062 13.1444 4.64062 11.2219V11.1737C5.16496 11.469 5.77969 11.6498 6.42455 11.6739C5.8824 11.3133 5.43796 10.824 5.13089 10.2498C4.82381 9.67567 4.66367 9.0344 4.66473 8.38326C4.66473 7.64799 4.85759 6.97299 5.20112 6.38839C7.14777 8.78705 10.0708 10.354 13.3493 10.5228C12.7888 7.84085 14.7958 5.66518 17.2065 5.66518C18.3455 5.66518 19.3701 6.14129 20.0933 6.91272C20.9853 6.74397 21.8411 6.4125 22.6004 5.96049C22.3051 6.87656 21.6844 7.64799 20.8647 8.13616C21.6603 8.05179 22.4317 7.82879 23.1429 7.52143C22.6065 8.31094 21.9315 9.01004 21.16 9.57054Z" fill="#1DA1F2"/>
</svg>
