<svg width="13" height="13" viewBox="0 0 13 13" fill="none" xmlns="http://www.w3.org/2000/svg">
<path d="M7.97392 5.02615C9.43259 6.48633 9.41257 8.82736 7.98271 10.2652C7.98003 10.2681 7.97685 10.2713 7.97392 10.2742L6.3333 11.9148C4.88628 13.3618 2.53206 13.3616 1.08526 11.9148C-0.361755 10.468 -0.361755 8.11355 1.08526 6.66677L1.99117 5.76087C2.2314 5.52063 2.64512 5.6803 2.65753 6.0198C2.67335 6.45247 2.75093 6.88716 2.8941 7.30693C2.94258 7.44907 2.90794 7.6063 2.80174 7.7125L2.48223 8.032C1.79801 8.71623 1.77655 9.83034 2.45404 10.5213C3.13821 11.219 4.26277 11.2231 4.9522 10.5337L6.59282 8.89333C7.28108 8.20507 7.2782 7.09263 6.59282 6.40725C6.50247 6.31707 6.41145 6.247 6.34036 6.19805C6.29006 6.16351 6.24853 6.1177 6.21909 6.06426C6.18964 6.01083 6.17309 5.95125 6.17075 5.89029C6.16108 5.6323 6.25249 5.36646 6.45635 5.1626L6.97036 4.64856C7.10515 4.51377 7.3166 4.49722 7.4729 4.6063C7.65189 4.73129 7.81955 4.87178 7.97392 5.02615ZM11.4147 1.58519C9.96791 0.138367 7.61369 0.138172 6.16668 1.58519L4.52605 3.22581C4.52312 3.22874 4.51995 3.23192 4.51726 3.23485C3.08743 4.67264 3.06739 7.01367 4.52605 8.47385C4.68042 8.62821 4.84806 8.76869 5.02705 8.89367C5.18335 9.00275 5.39483 8.98618 5.52959 8.85141L6.0436 8.33738C6.24746 8.13352 6.33887 7.86767 6.3292 7.60969C6.32686 7.54872 6.31031 7.48915 6.28086 7.43571C6.25142 7.38228 6.20989 7.33646 6.1596 7.30193C6.0885 7.25298 5.99749 7.18291 5.90713 7.09272C5.22176 6.40735 5.21887 5.2949 5.90713 4.60665L7.54775 2.96627C8.23718 2.27684 9.36171 2.28099 10.0459 2.97872C10.7234 3.66964 10.702 4.78374 10.0177 5.46797L9.69821 5.78748C9.59201 5.89368 9.55737 6.0509 9.60585 6.19304C9.74902 6.61282 9.8266 7.04751 9.84242 7.48017C9.85485 7.81968 10.2685 7.97934 10.5088 7.73911L11.4147 6.8332C12.8617 5.38645 12.8617 3.03197 11.4147 1.58519Z" fill="#1A1A1A"/>
</svg>
